G04 #@! TF.GenerationSoftware,KiCad,Pcbnew,5.1.5*
G04 #@! TF.CreationDate,2020-01-13T20:05:45+01:00*
G04 #@! TF.ProjectId,ESP8266_Uni,45535038-3236-4365-9f55-6e692e6b6963,rev?*
G04 #@! TF.SameCoordinates,Original*
G04 #@! TF.FileFunction,Legend,Bot*
G04 #@! TF.FilePolarity,Positive*
%FSLAX46Y46*%
G04 Gerber Fmt 4.6, Leading zero omitted, Abs format (unit mm)*
G04 Created by KiCad (PCBNEW 5.1.5) date 2020-01-13 20:05:45*
%MOMM*%
%LPD*%
G04 APERTURE LIST*
%ADD10C,0.120000*%
%ADD11C,0.150000*%
%ADD12C,0.200000*%
G04 APERTURE END LIST*
D10*
X127508000Y-32004000D02*
X127508000Y-42418000D01*
X132080000Y-32004000D02*
X127508000Y-32004000D01*
X132080000Y-42418000D02*
X132080000Y-32004000D01*
X127508000Y-42418000D02*
X132080000Y-42418000D01*
D11*
X128631904Y-36811047D02*
X127831904Y-36811047D01*
X127908095Y-37153904D02*
X127870000Y-37192000D01*
X127831904Y-37268190D01*
X127831904Y-37458666D01*
X127870000Y-37534857D01*
X127908095Y-37572952D01*
X127984285Y-37611047D01*
X128060476Y-37611047D01*
X128174761Y-37572952D01*
X128631904Y-37115809D01*
X128631904Y-37611047D01*
X128555714Y-38411047D02*
X128593809Y-38372952D01*
X128631904Y-38258666D01*
X128631904Y-38182476D01*
X128593809Y-38068190D01*
X128517619Y-37992000D01*
X128441428Y-37953904D01*
X128289047Y-37915809D01*
X128174761Y-37915809D01*
X128022380Y-37953904D01*
X127946190Y-37992000D01*
X127870000Y-38068190D01*
X127831904Y-38182476D01*
X127831904Y-38258666D01*
X127870000Y-38372952D01*
X127908095Y-38411047D01*
X114829023Y-32073904D02*
X114562357Y-32873904D01*
X114295690Y-32073904D01*
X113571880Y-32797714D02*
X113609976Y-32835809D01*
X113724261Y-32873904D01*
X113800452Y-32873904D01*
X113914738Y-32835809D01*
X113990928Y-32759619D01*
X114029023Y-32683428D01*
X114067119Y-32531047D01*
X114067119Y-32416761D01*
X114029023Y-32264380D01*
X113990928Y-32188190D01*
X113914738Y-32112000D01*
X113800452Y-32073904D01*
X113724261Y-32073904D01*
X113609976Y-32112000D01*
X113571880Y-32150095D01*
X112771880Y-32797714D02*
X112809976Y-32835809D01*
X112924261Y-32873904D01*
X113000452Y-32873904D01*
X113114738Y-32835809D01*
X113190928Y-32759619D01*
X113229023Y-32683428D01*
X113267119Y-32531047D01*
X113267119Y-32416761D01*
X113229023Y-32264380D01*
X113190928Y-32188190D01*
X113114738Y-32112000D01*
X113000452Y-32073904D01*
X112924261Y-32073904D01*
X112809976Y-32112000D01*
X112771880Y-32150095D01*
X116352833Y-29572000D02*
X116429023Y-29533904D01*
X116543309Y-29533904D01*
X116657595Y-29572000D01*
X116733785Y-29648190D01*
X116771880Y-29724380D01*
X116809976Y-29876761D01*
X116809976Y-29991047D01*
X116771880Y-30143428D01*
X116733785Y-30219619D01*
X116657595Y-30295809D01*
X116543309Y-30333904D01*
X116467119Y-30333904D01*
X116352833Y-30295809D01*
X116314738Y-30257714D01*
X116314738Y-29991047D01*
X116467119Y-29991047D01*
X115971880Y-30333904D02*
X115971880Y-29533904D01*
X115667119Y-29533904D01*
X115590928Y-29572000D01*
X115552833Y-29610095D01*
X115514738Y-29686285D01*
X115514738Y-29800571D01*
X115552833Y-29876761D01*
X115590928Y-29914857D01*
X115667119Y-29952952D01*
X115971880Y-29952952D01*
X115171880Y-30333904D02*
X115171880Y-29533904D01*
X114638547Y-29533904D02*
X114486166Y-29533904D01*
X114409976Y-29572000D01*
X114333785Y-29648190D01*
X114295690Y-29800571D01*
X114295690Y-30067238D01*
X114333785Y-30219619D01*
X114409976Y-30295809D01*
X114486166Y-30333904D01*
X114638547Y-30333904D01*
X114714738Y-30295809D01*
X114790928Y-30219619D01*
X114829023Y-30067238D01*
X114829023Y-29800571D01*
X114790928Y-29648190D01*
X114714738Y-29572000D01*
X114638547Y-29533904D01*
X113533785Y-30333904D02*
X113990928Y-30333904D01*
X113762357Y-30333904D02*
X113762357Y-29533904D01*
X113838547Y-29648190D01*
X113914738Y-29724380D01*
X113990928Y-29762476D01*
X112848071Y-29800571D02*
X112848071Y-30333904D01*
X113038547Y-29495809D02*
X113229023Y-30067238D01*
X112733785Y-30067238D01*
X114448071Y-27032000D02*
X114524261Y-26993904D01*
X114638547Y-26993904D01*
X114752833Y-27032000D01*
X114829023Y-27108190D01*
X114867119Y-27184380D01*
X114905214Y-27336761D01*
X114905214Y-27451047D01*
X114867119Y-27603428D01*
X114829023Y-27679619D01*
X114752833Y-27755809D01*
X114638547Y-27793904D01*
X114562357Y-27793904D01*
X114448071Y-27755809D01*
X114409976Y-27717714D01*
X114409976Y-27451047D01*
X114562357Y-27451047D01*
X114067119Y-27793904D02*
X114067119Y-26993904D01*
X113609976Y-27793904D01*
X113609976Y-26993904D01*
X113229023Y-27793904D02*
X113229023Y-26993904D01*
X113038547Y-26993904D01*
X112924261Y-27032000D01*
X112848071Y-27108190D01*
X112809976Y-27184380D01*
X112771880Y-27336761D01*
X112771880Y-27451047D01*
X112809976Y-27603428D01*
X112848071Y-27679619D01*
X112924261Y-27755809D01*
X113038547Y-27793904D01*
X113229023Y-27793904D01*
X114448071Y-39732000D02*
X114524261Y-39693904D01*
X114638547Y-39693904D01*
X114752833Y-39732000D01*
X114829023Y-39808190D01*
X114867119Y-39884380D01*
X114905214Y-40036761D01*
X114905214Y-40151047D01*
X114867119Y-40303428D01*
X114829023Y-40379619D01*
X114752833Y-40455809D01*
X114638547Y-40493904D01*
X114562357Y-40493904D01*
X114448071Y-40455809D01*
X114409976Y-40417714D01*
X114409976Y-40151047D01*
X114562357Y-40151047D01*
X114067119Y-40493904D02*
X114067119Y-39693904D01*
X113609976Y-40493904D01*
X113609976Y-39693904D01*
X113229023Y-40493904D02*
X113229023Y-39693904D01*
X113038547Y-39693904D01*
X112924261Y-39732000D01*
X112848071Y-39808190D01*
X112809976Y-39884380D01*
X112771880Y-40036761D01*
X112771880Y-40151047D01*
X112809976Y-40303428D01*
X112848071Y-40379619D01*
X112924261Y-40455809D01*
X113038547Y-40493904D01*
X113229023Y-40493904D01*
X114829023Y-44773904D02*
X114562357Y-45573904D01*
X114295690Y-44773904D01*
X113571880Y-45497714D02*
X113609976Y-45535809D01*
X113724261Y-45573904D01*
X113800452Y-45573904D01*
X113914738Y-45535809D01*
X113990928Y-45459619D01*
X114029023Y-45383428D01*
X114067119Y-45231047D01*
X114067119Y-45116761D01*
X114029023Y-44964380D01*
X113990928Y-44888190D01*
X113914738Y-44812000D01*
X113800452Y-44773904D01*
X113724261Y-44773904D01*
X113609976Y-44812000D01*
X113571880Y-44850095D01*
X112771880Y-45497714D02*
X112809976Y-45535809D01*
X112924261Y-45573904D01*
X113000452Y-45573904D01*
X113114738Y-45535809D01*
X113190928Y-45459619D01*
X113229023Y-45383428D01*
X113267119Y-45231047D01*
X113267119Y-45116761D01*
X113229023Y-44964380D01*
X113190928Y-44888190D01*
X113114738Y-44812000D01*
X113000452Y-44773904D01*
X112924261Y-44773904D01*
X112809976Y-44812000D01*
X112771880Y-44850095D01*
X116352833Y-42272000D02*
X116429023Y-42233904D01*
X116543309Y-42233904D01*
X116657595Y-42272000D01*
X116733785Y-42348190D01*
X116771880Y-42424380D01*
X116809976Y-42576761D01*
X116809976Y-42691047D01*
X116771880Y-42843428D01*
X116733785Y-42919619D01*
X116657595Y-42995809D01*
X116543309Y-43033904D01*
X116467119Y-43033904D01*
X116352833Y-42995809D01*
X116314738Y-42957714D01*
X116314738Y-42691047D01*
X116467119Y-42691047D01*
X115971880Y-43033904D02*
X115971880Y-42233904D01*
X115667119Y-42233904D01*
X115590928Y-42272000D01*
X115552833Y-42310095D01*
X115514738Y-42386285D01*
X115514738Y-42500571D01*
X115552833Y-42576761D01*
X115590928Y-42614857D01*
X115667119Y-42652952D01*
X115971880Y-42652952D01*
X115171880Y-43033904D02*
X115171880Y-42233904D01*
X114638547Y-42233904D02*
X114486166Y-42233904D01*
X114409976Y-42272000D01*
X114333785Y-42348190D01*
X114295690Y-42500571D01*
X114295690Y-42767238D01*
X114333785Y-42919619D01*
X114409976Y-42995809D01*
X114486166Y-43033904D01*
X114638547Y-43033904D01*
X114714738Y-42995809D01*
X114790928Y-42919619D01*
X114829023Y-42767238D01*
X114829023Y-42500571D01*
X114790928Y-42348190D01*
X114714738Y-42272000D01*
X114638547Y-42233904D01*
X113533785Y-43033904D02*
X113990928Y-43033904D01*
X113762357Y-43033904D02*
X113762357Y-42233904D01*
X113838547Y-42348190D01*
X113914738Y-42424380D01*
X113990928Y-42462476D01*
X113229023Y-42310095D02*
X113190928Y-42272000D01*
X113114738Y-42233904D01*
X112924261Y-42233904D01*
X112848071Y-42272000D01*
X112809976Y-42310095D01*
X112771880Y-42386285D01*
X112771880Y-42462476D01*
X112809976Y-42576761D01*
X113267119Y-43033904D01*
X112771880Y-43033904D01*
X114448071Y-51670000D02*
X114524261Y-51631904D01*
X114638547Y-51631904D01*
X114752833Y-51670000D01*
X114829023Y-51746190D01*
X114867119Y-51822380D01*
X114905214Y-51974761D01*
X114905214Y-52089047D01*
X114867119Y-52241428D01*
X114829023Y-52317619D01*
X114752833Y-52393809D01*
X114638547Y-52431904D01*
X114562357Y-52431904D01*
X114448071Y-52393809D01*
X114409976Y-52355714D01*
X114409976Y-52089047D01*
X114562357Y-52089047D01*
X114067119Y-52431904D02*
X114067119Y-51631904D01*
X113609976Y-52431904D01*
X113609976Y-51631904D01*
X113229023Y-52431904D02*
X113229023Y-51631904D01*
X113038547Y-51631904D01*
X112924261Y-51670000D01*
X112848071Y-51746190D01*
X112809976Y-51822380D01*
X112771880Y-51974761D01*
X112771880Y-52089047D01*
X112809976Y-52241428D01*
X112848071Y-52317619D01*
X112924261Y-52393809D01*
X113038547Y-52431904D01*
X113229023Y-52431904D01*
X116352833Y-54210000D02*
X116429023Y-54171904D01*
X116543309Y-54171904D01*
X116657595Y-54210000D01*
X116733785Y-54286190D01*
X116771880Y-54362380D01*
X116809976Y-54514761D01*
X116809976Y-54629047D01*
X116771880Y-54781428D01*
X116733785Y-54857619D01*
X116657595Y-54933809D01*
X116543309Y-54971904D01*
X116467119Y-54971904D01*
X116352833Y-54933809D01*
X116314738Y-54895714D01*
X116314738Y-54629047D01*
X116467119Y-54629047D01*
X115971880Y-54971904D02*
X115971880Y-54171904D01*
X115667119Y-54171904D01*
X115590928Y-54210000D01*
X115552833Y-54248095D01*
X115514738Y-54324285D01*
X115514738Y-54438571D01*
X115552833Y-54514761D01*
X115590928Y-54552857D01*
X115667119Y-54590952D01*
X115971880Y-54590952D01*
X115171880Y-54971904D02*
X115171880Y-54171904D01*
X114638547Y-54171904D02*
X114486166Y-54171904D01*
X114409976Y-54210000D01*
X114333785Y-54286190D01*
X114295690Y-54438571D01*
X114295690Y-54705238D01*
X114333785Y-54857619D01*
X114409976Y-54933809D01*
X114486166Y-54971904D01*
X114638547Y-54971904D01*
X114714738Y-54933809D01*
X114790928Y-54857619D01*
X114829023Y-54705238D01*
X114829023Y-54438571D01*
X114790928Y-54286190D01*
X114714738Y-54210000D01*
X114638547Y-54171904D01*
X113533785Y-54971904D02*
X113990928Y-54971904D01*
X113762357Y-54971904D02*
X113762357Y-54171904D01*
X113838547Y-54286190D01*
X113914738Y-54362380D01*
X113990928Y-54400476D01*
X113267119Y-54171904D02*
X112771880Y-54171904D01*
X113038547Y-54476666D01*
X112924261Y-54476666D01*
X112848071Y-54514761D01*
X112809976Y-54552857D01*
X112771880Y-54629047D01*
X112771880Y-54819523D01*
X112809976Y-54895714D01*
X112848071Y-54933809D01*
X112924261Y-54971904D01*
X113152833Y-54971904D01*
X113229023Y-54933809D01*
X113267119Y-54895714D01*
X114829023Y-56711904D02*
X114562357Y-57511904D01*
X114295690Y-56711904D01*
X113571880Y-57435714D02*
X113609976Y-57473809D01*
X113724261Y-57511904D01*
X113800452Y-57511904D01*
X113914738Y-57473809D01*
X113990928Y-57397619D01*
X114029023Y-57321428D01*
X114067119Y-57169047D01*
X114067119Y-57054761D01*
X114029023Y-56902380D01*
X113990928Y-56826190D01*
X113914738Y-56750000D01*
X113800452Y-56711904D01*
X113724261Y-56711904D01*
X113609976Y-56750000D01*
X113571880Y-56788095D01*
X112771880Y-57435714D02*
X112809976Y-57473809D01*
X112924261Y-57511904D01*
X113000452Y-57511904D01*
X113114738Y-57473809D01*
X113190928Y-57397619D01*
X113229023Y-57321428D01*
X113267119Y-57169047D01*
X113267119Y-57054761D01*
X113229023Y-56902380D01*
X113190928Y-56826190D01*
X113114738Y-56750000D01*
X113000452Y-56711904D01*
X112924261Y-56711904D01*
X112809976Y-56750000D01*
X112771880Y-56788095D01*
X121443714Y-55122214D02*
X121481809Y-55084119D01*
X121519904Y-54969833D01*
X121519904Y-54893642D01*
X121481809Y-54779357D01*
X121405619Y-54703166D01*
X121329428Y-54665071D01*
X121177047Y-54626976D01*
X121062761Y-54626976D01*
X120910380Y-54665071D01*
X120834190Y-54703166D01*
X120758000Y-54779357D01*
X120719904Y-54893642D01*
X120719904Y-54969833D01*
X120758000Y-55084119D01*
X120796095Y-55122214D01*
X121481809Y-55426976D02*
X121519904Y-55541261D01*
X121519904Y-55731738D01*
X121481809Y-55807928D01*
X121443714Y-55846023D01*
X121367523Y-55884119D01*
X121291333Y-55884119D01*
X121215142Y-55846023D01*
X121177047Y-55807928D01*
X121138952Y-55731738D01*
X121100857Y-55579357D01*
X121062761Y-55503166D01*
X121024666Y-55465071D01*
X120948476Y-55426976D01*
X120872285Y-55426976D01*
X120796095Y-55465071D01*
X120758000Y-55503166D01*
X120719904Y-55579357D01*
X120719904Y-55769833D01*
X120758000Y-55884119D01*
X124059904Y-53331738D02*
X123259904Y-53331738D01*
X123831333Y-53598404D01*
X123259904Y-53865071D01*
X124059904Y-53865071D01*
X123259904Y-54398404D02*
X123259904Y-54550785D01*
X123298000Y-54626976D01*
X123374190Y-54703166D01*
X123526571Y-54741261D01*
X123793238Y-54741261D01*
X123945619Y-54703166D01*
X124021809Y-54626976D01*
X124059904Y-54550785D01*
X124059904Y-54398404D01*
X124021809Y-54322214D01*
X123945619Y-54246023D01*
X123793238Y-54207928D01*
X123526571Y-54207928D01*
X123374190Y-54246023D01*
X123298000Y-54322214D01*
X123259904Y-54398404D01*
X124021809Y-55046023D02*
X124059904Y-55160309D01*
X124059904Y-55350785D01*
X124021809Y-55426976D01*
X123983714Y-55465071D01*
X123907523Y-55503166D01*
X123831333Y-55503166D01*
X123755142Y-55465071D01*
X123717047Y-55426976D01*
X123678952Y-55350785D01*
X123640857Y-55198404D01*
X123602761Y-55122214D01*
X123564666Y-55084119D01*
X123488476Y-55046023D01*
X123412285Y-55046023D01*
X123336095Y-55084119D01*
X123298000Y-55122214D01*
X123259904Y-55198404D01*
X123259904Y-55388880D01*
X123298000Y-55503166D01*
X124059904Y-55846023D02*
X123259904Y-55846023D01*
X126599904Y-53331738D02*
X125799904Y-53331738D01*
X126371333Y-53598404D01*
X125799904Y-53865071D01*
X126599904Y-53865071D01*
X126599904Y-54246023D02*
X125799904Y-54246023D01*
X126561809Y-54588880D02*
X126599904Y-54703166D01*
X126599904Y-54893642D01*
X126561809Y-54969833D01*
X126523714Y-55007928D01*
X126447523Y-55046023D01*
X126371333Y-55046023D01*
X126295142Y-55007928D01*
X126257047Y-54969833D01*
X126218952Y-54893642D01*
X126180857Y-54741261D01*
X126142761Y-54665071D01*
X126104666Y-54626976D01*
X126028476Y-54588880D01*
X125952285Y-54588880D01*
X125876095Y-54626976D01*
X125838000Y-54665071D01*
X125799904Y-54741261D01*
X125799904Y-54931738D01*
X125838000Y-55046023D01*
X125799904Y-55541261D02*
X125799904Y-55693642D01*
X125838000Y-55769833D01*
X125914190Y-55846023D01*
X126066571Y-55884119D01*
X126333238Y-55884119D01*
X126485619Y-55846023D01*
X126561809Y-55769833D01*
X126599904Y-55693642D01*
X126599904Y-55541261D01*
X126561809Y-55465071D01*
X126485619Y-55388880D01*
X126333238Y-55350785D01*
X126066571Y-55350785D01*
X125914190Y-55388880D01*
X125838000Y-55465071D01*
X125799904Y-55541261D01*
X129101809Y-53179357D02*
X129139904Y-53293642D01*
X129139904Y-53484119D01*
X129101809Y-53560309D01*
X129063714Y-53598404D01*
X128987523Y-53636500D01*
X128911333Y-53636500D01*
X128835142Y-53598404D01*
X128797047Y-53560309D01*
X128758952Y-53484119D01*
X128720857Y-53331738D01*
X128682761Y-53255547D01*
X128644666Y-53217452D01*
X128568476Y-53179357D01*
X128492285Y-53179357D01*
X128416095Y-53217452D01*
X128378000Y-53255547D01*
X128339904Y-53331738D01*
X128339904Y-53522214D01*
X128378000Y-53636500D01*
X129063714Y-54436500D02*
X129101809Y-54398404D01*
X129139904Y-54284119D01*
X129139904Y-54207928D01*
X129101809Y-54093642D01*
X129025619Y-54017452D01*
X128949428Y-53979357D01*
X128797047Y-53941261D01*
X128682761Y-53941261D01*
X128530380Y-53979357D01*
X128454190Y-54017452D01*
X128378000Y-54093642D01*
X128339904Y-54207928D01*
X128339904Y-54284119D01*
X128378000Y-54398404D01*
X128416095Y-54436500D01*
X129139904Y-55160309D02*
X129139904Y-54779357D01*
X128339904Y-54779357D01*
X129139904Y-55426976D02*
X128339904Y-55426976D01*
X129139904Y-55884119D02*
X128682761Y-55541261D01*
X128339904Y-55884119D02*
X128797047Y-55426976D01*
X130664000Y-54207928D02*
X130625904Y-54131738D01*
X130625904Y-54017452D01*
X130664000Y-53903166D01*
X130740190Y-53826976D01*
X130816380Y-53788880D01*
X130968761Y-53750785D01*
X131083047Y-53750785D01*
X131235428Y-53788880D01*
X131311619Y-53826976D01*
X131387809Y-53903166D01*
X131425904Y-54017452D01*
X131425904Y-54093642D01*
X131387809Y-54207928D01*
X131349714Y-54246023D01*
X131083047Y-54246023D01*
X131083047Y-54093642D01*
X131425904Y-54588880D02*
X130625904Y-54588880D01*
X131425904Y-55046023D01*
X130625904Y-55046023D01*
X131425904Y-55426976D02*
X130625904Y-55426976D01*
X130625904Y-55617452D01*
X130664000Y-55731738D01*
X130740190Y-55807928D01*
X130816380Y-55846023D01*
X130968761Y-55884119D01*
X131083047Y-55884119D01*
X131235428Y-55846023D01*
X131311619Y-55807928D01*
X131387809Y-55731738D01*
X131425904Y-55617452D01*
X131425904Y-55426976D01*
X133165904Y-53826976D02*
X133965904Y-54093642D01*
X133165904Y-54360309D01*
X133889714Y-55084119D02*
X133927809Y-55046023D01*
X133965904Y-54931738D01*
X133965904Y-54855547D01*
X133927809Y-54741261D01*
X133851619Y-54665071D01*
X133775428Y-54626976D01*
X133623047Y-54588880D01*
X133508761Y-54588880D01*
X133356380Y-54626976D01*
X133280190Y-54665071D01*
X133204000Y-54741261D01*
X133165904Y-54855547D01*
X133165904Y-54931738D01*
X133204000Y-55046023D01*
X133242095Y-55084119D01*
X133889714Y-55884119D02*
X133927809Y-55846023D01*
X133965904Y-55731738D01*
X133965904Y-55655547D01*
X133927809Y-55541261D01*
X133851619Y-55465071D01*
X133775428Y-55426976D01*
X133623047Y-55388880D01*
X133508761Y-55388880D01*
X133356380Y-55426976D01*
X133280190Y-55465071D01*
X133204000Y-55541261D01*
X133165904Y-55655547D01*
X133165904Y-55731738D01*
X133204000Y-55846023D01*
X133242095Y-55884119D01*
X141304309Y-54679904D02*
X141037642Y-55479904D01*
X140770976Y-54679904D01*
X140047166Y-55403714D02*
X140085261Y-55441809D01*
X140199547Y-55479904D01*
X140275738Y-55479904D01*
X140390023Y-55441809D01*
X140466214Y-55365619D01*
X140504309Y-55289428D01*
X140542404Y-55137047D01*
X140542404Y-55022761D01*
X140504309Y-54870380D01*
X140466214Y-54794190D01*
X140390023Y-54718000D01*
X140275738Y-54679904D01*
X140199547Y-54679904D01*
X140085261Y-54718000D01*
X140047166Y-54756095D01*
X139247166Y-55403714D02*
X139285261Y-55441809D01*
X139399547Y-55479904D01*
X139475738Y-55479904D01*
X139590023Y-55441809D01*
X139666214Y-55365619D01*
X139704309Y-55289428D01*
X139742404Y-55137047D01*
X139742404Y-55022761D01*
X139704309Y-54870380D01*
X139666214Y-54794190D01*
X139590023Y-54718000D01*
X139475738Y-54679904D01*
X139399547Y-54679904D01*
X139285261Y-54718000D01*
X139247166Y-54756095D01*
X140770976Y-57004000D02*
X140847166Y-56965904D01*
X140961452Y-56965904D01*
X141075738Y-57004000D01*
X141151928Y-57080190D01*
X141190023Y-57156380D01*
X141228119Y-57308761D01*
X141228119Y-57423047D01*
X141190023Y-57575428D01*
X141151928Y-57651619D01*
X141075738Y-57727809D01*
X140961452Y-57765904D01*
X140885261Y-57765904D01*
X140770976Y-57727809D01*
X140732880Y-57689714D01*
X140732880Y-57423047D01*
X140885261Y-57423047D01*
X140390023Y-57765904D02*
X140390023Y-56965904D01*
X139932880Y-57765904D01*
X139932880Y-56965904D01*
X139551928Y-57765904D02*
X139551928Y-56965904D01*
X139361452Y-56965904D01*
X139247166Y-57004000D01*
X139170976Y-57080190D01*
X139132880Y-57156380D01*
X139094785Y-57308761D01*
X139094785Y-57423047D01*
X139132880Y-57575428D01*
X139170976Y-57651619D01*
X139247166Y-57727809D01*
X139361452Y-57765904D01*
X139551928Y-57765904D01*
X140770976Y-47352000D02*
X140847166Y-47313904D01*
X140961452Y-47313904D01*
X141075738Y-47352000D01*
X141151928Y-47428190D01*
X141190023Y-47504380D01*
X141228119Y-47656761D01*
X141228119Y-47771047D01*
X141190023Y-47923428D01*
X141151928Y-47999619D01*
X141075738Y-48075809D01*
X140961452Y-48113904D01*
X140885261Y-48113904D01*
X140770976Y-48075809D01*
X140732880Y-48037714D01*
X140732880Y-47771047D01*
X140885261Y-47771047D01*
X140390023Y-48113904D02*
X140390023Y-47313904D01*
X140085261Y-47313904D01*
X140009071Y-47352000D01*
X139970976Y-47390095D01*
X139932880Y-47466285D01*
X139932880Y-47580571D01*
X139970976Y-47656761D01*
X140009071Y-47694857D01*
X140085261Y-47732952D01*
X140390023Y-47732952D01*
X139590023Y-48113904D02*
X139590023Y-47313904D01*
X139056690Y-47313904D02*
X138904309Y-47313904D01*
X138828119Y-47352000D01*
X138751928Y-47428190D01*
X138713833Y-47580571D01*
X138713833Y-47847238D01*
X138751928Y-47999619D01*
X138828119Y-48075809D01*
X138904309Y-48113904D01*
X139056690Y-48113904D01*
X139132880Y-48075809D01*
X139209071Y-47999619D01*
X139247166Y-47847238D01*
X139247166Y-47580571D01*
X139209071Y-47428190D01*
X139132880Y-47352000D01*
X139056690Y-47313904D01*
X138028119Y-47580571D02*
X138028119Y-48113904D01*
X138218595Y-47275809D02*
X138409071Y-47847238D01*
X137913833Y-47847238D01*
X137037642Y-47275809D02*
X137723357Y-48304380D01*
X136809071Y-48075809D02*
X136694785Y-48113904D01*
X136504309Y-48113904D01*
X136428119Y-48075809D01*
X136390023Y-48037714D01*
X136351928Y-47961523D01*
X136351928Y-47885333D01*
X136390023Y-47809142D01*
X136428119Y-47771047D01*
X136504309Y-47732952D01*
X136656690Y-47694857D01*
X136732880Y-47656761D01*
X136770976Y-47618666D01*
X136809071Y-47542476D01*
X136809071Y-47466285D01*
X136770976Y-47390095D01*
X136732880Y-47352000D01*
X136656690Y-47313904D01*
X136466214Y-47313904D01*
X136351928Y-47352000D01*
X136009071Y-48113904D02*
X136009071Y-47313904D01*
X135818595Y-47313904D01*
X135704309Y-47352000D01*
X135628119Y-47428190D01*
X135590023Y-47504380D01*
X135551928Y-47656761D01*
X135551928Y-47771047D01*
X135590023Y-47923428D01*
X135628119Y-47999619D01*
X135704309Y-48075809D01*
X135818595Y-48113904D01*
X136009071Y-48113904D01*
X135247166Y-47885333D02*
X134866214Y-47885333D01*
X135323357Y-48113904D02*
X135056690Y-47313904D01*
X134790023Y-48113904D01*
X140770976Y-44812000D02*
X140847166Y-44773904D01*
X140961452Y-44773904D01*
X141075738Y-44812000D01*
X141151928Y-44888190D01*
X141190023Y-44964380D01*
X141228119Y-45116761D01*
X141228119Y-45231047D01*
X141190023Y-45383428D01*
X141151928Y-45459619D01*
X141075738Y-45535809D01*
X140961452Y-45573904D01*
X140885261Y-45573904D01*
X140770976Y-45535809D01*
X140732880Y-45497714D01*
X140732880Y-45231047D01*
X140885261Y-45231047D01*
X140390023Y-45573904D02*
X140390023Y-44773904D01*
X140085261Y-44773904D01*
X140009071Y-44812000D01*
X139970976Y-44850095D01*
X139932880Y-44926285D01*
X139932880Y-45040571D01*
X139970976Y-45116761D01*
X140009071Y-45154857D01*
X140085261Y-45192952D01*
X140390023Y-45192952D01*
X139590023Y-45573904D02*
X139590023Y-44773904D01*
X139056690Y-44773904D02*
X138904309Y-44773904D01*
X138828119Y-44812000D01*
X138751928Y-44888190D01*
X138713833Y-45040571D01*
X138713833Y-45307238D01*
X138751928Y-45459619D01*
X138828119Y-45535809D01*
X138904309Y-45573904D01*
X139056690Y-45573904D01*
X139132880Y-45535809D01*
X139209071Y-45459619D01*
X139247166Y-45307238D01*
X139247166Y-45040571D01*
X139209071Y-44888190D01*
X139132880Y-44812000D01*
X139056690Y-44773904D01*
X137990023Y-44773904D02*
X138370976Y-44773904D01*
X138409071Y-45154857D01*
X138370976Y-45116761D01*
X138294785Y-45078666D01*
X138104309Y-45078666D01*
X138028119Y-45116761D01*
X137990023Y-45154857D01*
X137951928Y-45231047D01*
X137951928Y-45421523D01*
X137990023Y-45497714D01*
X138028119Y-45535809D01*
X138104309Y-45573904D01*
X138294785Y-45573904D01*
X138370976Y-45535809D01*
X138409071Y-45497714D01*
X137037642Y-44735809D02*
X137723357Y-45764380D01*
X136809071Y-45535809D02*
X136694785Y-45573904D01*
X136504309Y-45573904D01*
X136428119Y-45535809D01*
X136390023Y-45497714D01*
X136351928Y-45421523D01*
X136351928Y-45345333D01*
X136390023Y-45269142D01*
X136428119Y-45231047D01*
X136504309Y-45192952D01*
X136656690Y-45154857D01*
X136732880Y-45116761D01*
X136770976Y-45078666D01*
X136809071Y-45002476D01*
X136809071Y-44926285D01*
X136770976Y-44850095D01*
X136732880Y-44812000D01*
X136656690Y-44773904D01*
X136466214Y-44773904D01*
X136351928Y-44812000D01*
X135551928Y-45497714D02*
X135590023Y-45535809D01*
X135704309Y-45573904D01*
X135780500Y-45573904D01*
X135894785Y-45535809D01*
X135970976Y-45459619D01*
X136009071Y-45383428D01*
X136047166Y-45231047D01*
X136047166Y-45116761D01*
X136009071Y-44964380D01*
X135970976Y-44888190D01*
X135894785Y-44812000D01*
X135780500Y-44773904D01*
X135704309Y-44773904D01*
X135590023Y-44812000D01*
X135551928Y-44850095D01*
X134828119Y-45573904D02*
X135209071Y-45573904D01*
X135209071Y-44773904D01*
X140770976Y-42272000D02*
X140847166Y-42233904D01*
X140961452Y-42233904D01*
X141075738Y-42272000D01*
X141151928Y-42348190D01*
X141190023Y-42424380D01*
X141228119Y-42576761D01*
X141228119Y-42691047D01*
X141190023Y-42843428D01*
X141151928Y-42919619D01*
X141075738Y-42995809D01*
X140961452Y-43033904D01*
X140885261Y-43033904D01*
X140770976Y-42995809D01*
X140732880Y-42957714D01*
X140732880Y-42691047D01*
X140885261Y-42691047D01*
X140390023Y-43033904D02*
X140390023Y-42233904D01*
X139932880Y-43033904D01*
X139932880Y-42233904D01*
X139551928Y-43033904D02*
X139551928Y-42233904D01*
X139361452Y-42233904D01*
X139247166Y-42272000D01*
X139170976Y-42348190D01*
X139132880Y-42424380D01*
X139094785Y-42576761D01*
X139094785Y-42691047D01*
X139132880Y-42843428D01*
X139170976Y-42919619D01*
X139247166Y-42995809D01*
X139361452Y-43033904D01*
X139551928Y-43033904D01*
X141304309Y-39947904D02*
X141037642Y-40747904D01*
X140770976Y-39947904D01*
X140047166Y-40671714D02*
X140085261Y-40709809D01*
X140199547Y-40747904D01*
X140275738Y-40747904D01*
X140390023Y-40709809D01*
X140466214Y-40633619D01*
X140504309Y-40557428D01*
X140542404Y-40405047D01*
X140542404Y-40290761D01*
X140504309Y-40138380D01*
X140466214Y-40062190D01*
X140390023Y-39986000D01*
X140275738Y-39947904D01*
X140199547Y-39947904D01*
X140085261Y-39986000D01*
X140047166Y-40024095D01*
X139247166Y-40671714D02*
X139285261Y-40709809D01*
X139399547Y-40747904D01*
X139475738Y-40747904D01*
X139590023Y-40709809D01*
X139666214Y-40633619D01*
X139704309Y-40557428D01*
X139742404Y-40405047D01*
X139742404Y-40290761D01*
X139704309Y-40138380D01*
X139666214Y-40062190D01*
X139590023Y-39986000D01*
X139475738Y-39947904D01*
X139399547Y-39947904D01*
X139285261Y-39986000D01*
X139247166Y-40024095D01*
X140770976Y-34144000D02*
X140847166Y-34105904D01*
X140961452Y-34105904D01*
X141075738Y-34144000D01*
X141151928Y-34220190D01*
X141190023Y-34296380D01*
X141228119Y-34448761D01*
X141228119Y-34563047D01*
X141190023Y-34715428D01*
X141151928Y-34791619D01*
X141075738Y-34867809D01*
X140961452Y-34905904D01*
X140885261Y-34905904D01*
X140770976Y-34867809D01*
X140732880Y-34829714D01*
X140732880Y-34563047D01*
X140885261Y-34563047D01*
X140390023Y-34905904D02*
X140390023Y-34105904D01*
X139932880Y-34905904D01*
X139932880Y-34105904D01*
X139551928Y-34905904D02*
X139551928Y-34105904D01*
X139361452Y-34105904D01*
X139247166Y-34144000D01*
X139170976Y-34220190D01*
X139132880Y-34296380D01*
X139094785Y-34448761D01*
X139094785Y-34563047D01*
X139132880Y-34715428D01*
X139170976Y-34791619D01*
X139247166Y-34867809D01*
X139361452Y-34905904D01*
X139551928Y-34905904D01*
X141304309Y-29025904D02*
X141037642Y-29825904D01*
X140770976Y-29025904D01*
X140047166Y-29749714D02*
X140085261Y-29787809D01*
X140199547Y-29825904D01*
X140275738Y-29825904D01*
X140390023Y-29787809D01*
X140466214Y-29711619D01*
X140504309Y-29635428D01*
X140542404Y-29483047D01*
X140542404Y-29368761D01*
X140504309Y-29216380D01*
X140466214Y-29140190D01*
X140390023Y-29064000D01*
X140275738Y-29025904D01*
X140199547Y-29025904D01*
X140085261Y-29064000D01*
X140047166Y-29102095D01*
X139247166Y-29749714D02*
X139285261Y-29787809D01*
X139399547Y-29825904D01*
X139475738Y-29825904D01*
X139590023Y-29787809D01*
X139666214Y-29711619D01*
X139704309Y-29635428D01*
X139742404Y-29483047D01*
X139742404Y-29368761D01*
X139704309Y-29216380D01*
X139666214Y-29140190D01*
X139590023Y-29064000D01*
X139475738Y-29025904D01*
X139399547Y-29025904D01*
X139285261Y-29064000D01*
X139247166Y-29102095D01*
X140732880Y-27285904D02*
X140999547Y-26904952D01*
X141190023Y-27285904D02*
X141190023Y-26485904D01*
X140885261Y-26485904D01*
X140809071Y-26524000D01*
X140770976Y-26562095D01*
X140732880Y-26638285D01*
X140732880Y-26752571D01*
X140770976Y-26828761D01*
X140809071Y-26866857D01*
X140885261Y-26904952D01*
X141190023Y-26904952D01*
X140466214Y-26485904D02*
X139932880Y-27285904D01*
X139932880Y-26485904D02*
X140466214Y-27285904D01*
X139628119Y-27285904D02*
X139628119Y-26485904D01*
X139437642Y-26485904D01*
X139323357Y-26524000D01*
X139247166Y-26600190D01*
X139209071Y-26676380D01*
X139170976Y-26828761D01*
X139170976Y-26943047D01*
X139209071Y-27095428D01*
X139247166Y-27171619D01*
X139323357Y-27247809D01*
X139437642Y-27285904D01*
X139628119Y-27285904D01*
X141304309Y-23945904D02*
X140847166Y-23945904D01*
X141075738Y-24745904D02*
X141075738Y-23945904D01*
X140656690Y-23945904D02*
X140123357Y-24745904D01*
X140123357Y-23945904D02*
X140656690Y-24745904D01*
X139818595Y-24745904D02*
X139818595Y-23945904D01*
X139628119Y-23945904D01*
X139513833Y-23984000D01*
X139437642Y-24060190D01*
X139399547Y-24136380D01*
X139361452Y-24288761D01*
X139361452Y-24403047D01*
X139399547Y-24555428D01*
X139437642Y-24631619D01*
X139513833Y-24707809D01*
X139628119Y-24745904D01*
X139818595Y-24745904D01*
X141190023Y-22205904D02*
X141190023Y-21405904D01*
X140999547Y-21405904D01*
X140885261Y-21444000D01*
X140809071Y-21520190D01*
X140770976Y-21596380D01*
X140732880Y-21748761D01*
X140732880Y-21863047D01*
X140770976Y-22015428D01*
X140809071Y-22091619D01*
X140885261Y-22167809D01*
X140999547Y-22205904D01*
X141190023Y-22205904D01*
X140504309Y-21405904D02*
X140047166Y-21405904D01*
X140275738Y-22205904D02*
X140275738Y-21405904D01*
X139323357Y-22205904D02*
X139590023Y-21824952D01*
X139780500Y-22205904D02*
X139780500Y-21405904D01*
X139475738Y-21405904D01*
X139399547Y-21444000D01*
X139361452Y-21482095D01*
X139323357Y-21558285D01*
X139323357Y-21672571D01*
X139361452Y-21748761D01*
X139399547Y-21786857D01*
X139475738Y-21824952D01*
X139780500Y-21824952D01*
X135906880Y-25097714D02*
X135944976Y-25135809D01*
X136059261Y-25173904D01*
X136135452Y-25173904D01*
X136249738Y-25135809D01*
X136325928Y-25059619D01*
X136364023Y-24983428D01*
X136402119Y-24831047D01*
X136402119Y-24716761D01*
X136364023Y-24564380D01*
X136325928Y-24488190D01*
X136249738Y-24412000D01*
X136135452Y-24373904D01*
X136059261Y-24373904D01*
X135944976Y-24412000D01*
X135906880Y-24450095D01*
X135106880Y-25097714D02*
X135144976Y-25135809D01*
X135259261Y-25173904D01*
X135335452Y-25173904D01*
X135449738Y-25135809D01*
X135525928Y-25059619D01*
X135564023Y-24983428D01*
X135602119Y-24831047D01*
X135602119Y-24716761D01*
X135564023Y-24564380D01*
X135525928Y-24488190D01*
X135449738Y-24412000D01*
X135335452Y-24373904D01*
X135259261Y-24373904D01*
X135144976Y-24412000D01*
X135106880Y-24450095D01*
X133887833Y-24754857D02*
X133773547Y-24792952D01*
X133735452Y-24831047D01*
X133697357Y-24907238D01*
X133697357Y-25021523D01*
X133735452Y-25097714D01*
X133773547Y-25135809D01*
X133849738Y-25173904D01*
X134154500Y-25173904D01*
X134154500Y-24373904D01*
X133887833Y-24373904D01*
X133811642Y-24412000D01*
X133773547Y-24450095D01*
X133735452Y-24526285D01*
X133735452Y-24602476D01*
X133773547Y-24678666D01*
X133811642Y-24716761D01*
X133887833Y-24754857D01*
X134154500Y-24754857D01*
X133202119Y-24792952D02*
X133202119Y-25173904D01*
X133468785Y-24373904D02*
X133202119Y-24792952D01*
X132935452Y-24373904D01*
X132668785Y-24869142D02*
X132059261Y-24869142D01*
X131678309Y-25173904D02*
X131678309Y-24373904D01*
X131221166Y-25173904D01*
X131221166Y-24373904D01*
X130383071Y-25097714D02*
X130421166Y-25135809D01*
X130535452Y-25173904D01*
X130611642Y-25173904D01*
X130725928Y-25135809D01*
X130802119Y-25059619D01*
X130840214Y-24983428D01*
X130878309Y-24831047D01*
X130878309Y-24716761D01*
X130840214Y-24564380D01*
X130802119Y-24488190D01*
X130725928Y-24412000D01*
X130611642Y-24373904D01*
X130535452Y-24373904D01*
X130421166Y-24412000D01*
X130383071Y-24450095D01*
X130040214Y-24869142D02*
X129430690Y-24869142D01*
X129087833Y-25135809D02*
X128973547Y-25173904D01*
X128783071Y-25173904D01*
X128706880Y-25135809D01*
X128668785Y-25097714D01*
X128630690Y-25021523D01*
X128630690Y-24945333D01*
X128668785Y-24869142D01*
X128706880Y-24831047D01*
X128783071Y-24792952D01*
X128935452Y-24754857D01*
X129011642Y-24716761D01*
X129049738Y-24678666D01*
X129087833Y-24602476D01*
X129087833Y-24526285D01*
X129049738Y-24450095D01*
X129011642Y-24412000D01*
X128935452Y-24373904D01*
X128744976Y-24373904D01*
X128630690Y-24412000D01*
X128325928Y-24945333D02*
X127944976Y-24945333D01*
X128402119Y-25173904D02*
X128135452Y-24373904D01*
X127868785Y-25173904D01*
X126649738Y-24640571D02*
X126649738Y-25173904D01*
X126840214Y-24335809D02*
X127030690Y-24907238D01*
X126535452Y-24907238D01*
X126230690Y-25097714D02*
X126192595Y-25135809D01*
X126230690Y-25173904D01*
X126268785Y-25135809D01*
X126230690Y-25097714D01*
X126230690Y-25173904D01*
X125697357Y-24373904D02*
X125621166Y-24373904D01*
X125544976Y-24412000D01*
X125506880Y-24450095D01*
X125468785Y-24526285D01*
X125430690Y-24678666D01*
X125430690Y-24869142D01*
X125468785Y-25021523D01*
X125506880Y-25097714D01*
X125544976Y-25135809D01*
X125621166Y-25173904D01*
X125697357Y-25173904D01*
X125773547Y-25135809D01*
X125811642Y-25097714D01*
X125849738Y-25021523D01*
X125887833Y-24869142D01*
X125887833Y-24678666D01*
X125849738Y-24526285D01*
X125811642Y-24450095D01*
X125773547Y-24412000D01*
X125697357Y-24373904D01*
X136364023Y-26523904D02*
X136364023Y-25723904D01*
X136364023Y-26028666D02*
X136287833Y-25990571D01*
X136135452Y-25990571D01*
X136059261Y-26028666D01*
X136021166Y-26066761D01*
X135983071Y-26142952D01*
X135983071Y-26371523D01*
X136021166Y-26447714D01*
X136059261Y-26485809D01*
X136135452Y-26523904D01*
X136287833Y-26523904D01*
X136364023Y-26485809D01*
X135716404Y-25990571D02*
X135525928Y-26523904D01*
X135335452Y-25990571D02*
X135525928Y-26523904D01*
X135602119Y-26714380D01*
X135640214Y-26752476D01*
X135716404Y-26790571D01*
X133964023Y-26447714D02*
X134002119Y-26485809D01*
X134116404Y-26523904D01*
X134192595Y-26523904D01*
X134306880Y-26485809D01*
X134383071Y-26409619D01*
X134421166Y-26333428D01*
X134459261Y-26181047D01*
X134459261Y-26066761D01*
X134421166Y-25914380D01*
X134383071Y-25838190D01*
X134306880Y-25762000D01*
X134192595Y-25723904D01*
X134116404Y-25723904D01*
X134002119Y-25762000D01*
X133964023Y-25800095D01*
X133621166Y-26523904D02*
X133621166Y-25723904D01*
X133278309Y-26523904D02*
X133278309Y-26104857D01*
X133316404Y-26028666D01*
X133392595Y-25990571D01*
X133506880Y-25990571D01*
X133583071Y-26028666D01*
X133621166Y-26066761D01*
X132897357Y-26523904D02*
X132897357Y-25990571D01*
X132897357Y-26142952D02*
X132859261Y-26066761D01*
X132821166Y-26028666D01*
X132744976Y-25990571D01*
X132668785Y-25990571D01*
X132402119Y-26523904D02*
X132402119Y-25990571D01*
X132402119Y-25723904D02*
X132440214Y-25762000D01*
X132402119Y-25800095D01*
X132364023Y-25762000D01*
X132402119Y-25723904D01*
X132402119Y-25800095D01*
X132059261Y-26485809D02*
X131983071Y-26523904D01*
X131830690Y-26523904D01*
X131754500Y-26485809D01*
X131716404Y-26409619D01*
X131716404Y-26371523D01*
X131754500Y-26295333D01*
X131830690Y-26257238D01*
X131944976Y-26257238D01*
X132021166Y-26219142D01*
X132059261Y-26142952D01*
X132059261Y-26104857D01*
X132021166Y-26028666D01*
X131944976Y-25990571D01*
X131830690Y-25990571D01*
X131754500Y-26028666D01*
X131487833Y-25990571D02*
X131183071Y-25990571D01*
X131373547Y-25723904D02*
X131373547Y-26409619D01*
X131335452Y-26485809D01*
X131259261Y-26523904D01*
X131183071Y-26523904D01*
X130802119Y-26523904D02*
X130878309Y-26485809D01*
X130916404Y-26447714D01*
X130954499Y-26371523D01*
X130954499Y-26142952D01*
X130916404Y-26066761D01*
X130878309Y-26028666D01*
X130802119Y-25990571D01*
X130687833Y-25990571D01*
X130611642Y-26028666D01*
X130573547Y-26066761D01*
X130535452Y-26142952D01*
X130535452Y-26371523D01*
X130573547Y-26447714D01*
X130611642Y-26485809D01*
X130687833Y-26523904D01*
X130802119Y-26523904D01*
X130192595Y-25990571D02*
X130192595Y-26790571D01*
X130192595Y-26028666D02*
X130116404Y-25990571D01*
X129964023Y-25990571D01*
X129887833Y-26028666D01*
X129849738Y-26066761D01*
X129811642Y-26142952D01*
X129811642Y-26371523D01*
X129849738Y-26447714D01*
X129887833Y-26485809D01*
X129964023Y-26523904D01*
X130116404Y-26523904D01*
X130192595Y-26485809D01*
X129468785Y-26523904D02*
X129468785Y-25723904D01*
X129125928Y-26523904D02*
X129125928Y-26104857D01*
X129164023Y-26028666D01*
X129240214Y-25990571D01*
X129354500Y-25990571D01*
X129430690Y-26028666D01*
X129468785Y-26066761D01*
X128211642Y-25723904D02*
X128021166Y-26523904D01*
X127868785Y-25952476D01*
X127716404Y-26523904D01*
X127525928Y-25723904D01*
X127221166Y-26523904D02*
X127221166Y-25990571D01*
X127221166Y-25723904D02*
X127259261Y-25762000D01*
X127221166Y-25800095D01*
X127183071Y-25762000D01*
X127221166Y-25723904D01*
X127221166Y-25800095D01*
X126535452Y-26485809D02*
X126611642Y-26523904D01*
X126764023Y-26523904D01*
X126840214Y-26485809D01*
X126878309Y-26409619D01*
X126878309Y-26104857D01*
X126840214Y-26028666D01*
X126764023Y-25990571D01*
X126611642Y-25990571D01*
X126535452Y-26028666D01*
X126497357Y-26104857D01*
X126497357Y-26181047D01*
X126878309Y-26257238D01*
X125811642Y-26485809D02*
X125887833Y-26523904D01*
X126040214Y-26523904D01*
X126116404Y-26485809D01*
X126154500Y-26447714D01*
X126192595Y-26371523D01*
X126192595Y-26142952D01*
X126154500Y-26066761D01*
X126116404Y-26028666D01*
X126040214Y-25990571D01*
X125887833Y-25990571D01*
X125811642Y-26028666D01*
X125468785Y-26523904D02*
X125468785Y-25723904D01*
X125125928Y-26523904D02*
X125125928Y-26104857D01*
X125164023Y-26028666D01*
X125240214Y-25990571D01*
X125354500Y-25990571D01*
X125430690Y-26028666D01*
X125468785Y-26066761D01*
X124440214Y-26485809D02*
X124516404Y-26523904D01*
X124668785Y-26523904D01*
X124744976Y-26485809D01*
X124783071Y-26409619D01*
X124783071Y-26104857D01*
X124744976Y-26028666D01*
X124668785Y-25990571D01*
X124516404Y-25990571D01*
X124440214Y-26028666D01*
X124402119Y-26104857D01*
X124402119Y-26181047D01*
X124783071Y-26257238D01*
X124059261Y-26523904D02*
X124059261Y-25990571D01*
X124059261Y-26142952D02*
X124021166Y-26066761D01*
X123983071Y-26028666D01*
X123906880Y-25990571D01*
X123830690Y-25990571D01*
X123678309Y-25990571D02*
X123373547Y-25990571D01*
X123564023Y-25723904D02*
X123564023Y-26409619D01*
X123525928Y-26485809D01*
X123449738Y-26523904D01*
X123373547Y-26523904D01*
X136021166Y-27340571D02*
X136021166Y-27988190D01*
X136059261Y-28064380D01*
X136097357Y-28102476D01*
X136173547Y-28140571D01*
X136287833Y-28140571D01*
X136364023Y-28102476D01*
X136021166Y-27835809D02*
X136097357Y-27873904D01*
X136249738Y-27873904D01*
X136325928Y-27835809D01*
X136364023Y-27797714D01*
X136402119Y-27721523D01*
X136402119Y-27492952D01*
X136364023Y-27416761D01*
X136325928Y-27378666D01*
X136249738Y-27340571D01*
X136097357Y-27340571D01*
X136021166Y-27378666D01*
X135640214Y-27873904D02*
X135640214Y-27340571D01*
X135640214Y-27073904D02*
X135678309Y-27112000D01*
X135640214Y-27150095D01*
X135602119Y-27112000D01*
X135640214Y-27073904D01*
X135640214Y-27150095D01*
X135373547Y-27340571D02*
X135068785Y-27340571D01*
X135259261Y-27073904D02*
X135259261Y-27759619D01*
X135221166Y-27835809D01*
X135144976Y-27873904D01*
X135068785Y-27873904D01*
X134802119Y-27873904D02*
X134802119Y-27073904D01*
X134459261Y-27873904D02*
X134459261Y-27454857D01*
X134497357Y-27378666D01*
X134573547Y-27340571D01*
X134687833Y-27340571D01*
X134764023Y-27378666D01*
X134802119Y-27416761D01*
X133735452Y-27340571D02*
X133735452Y-27873904D01*
X134078309Y-27340571D02*
X134078309Y-27759619D01*
X134040214Y-27835809D01*
X133964023Y-27873904D01*
X133849738Y-27873904D01*
X133773547Y-27835809D01*
X133735452Y-27797714D01*
X133354500Y-27873904D02*
X133354500Y-27073904D01*
X133354500Y-27378666D02*
X133278309Y-27340571D01*
X133125928Y-27340571D01*
X133049738Y-27378666D01*
X133011642Y-27416761D01*
X132973547Y-27492952D01*
X132973547Y-27721523D01*
X133011642Y-27797714D01*
X133049738Y-27835809D01*
X133125928Y-27873904D01*
X133278309Y-27873904D01*
X133354500Y-27835809D01*
X132630690Y-27797714D02*
X132592595Y-27835809D01*
X132630690Y-27873904D01*
X132668785Y-27835809D01*
X132630690Y-27797714D01*
X132630690Y-27873904D01*
X131906880Y-27835809D02*
X131983071Y-27873904D01*
X132135452Y-27873904D01*
X132211642Y-27835809D01*
X132249738Y-27797714D01*
X132287833Y-27721523D01*
X132287833Y-27492952D01*
X132249738Y-27416761D01*
X132211642Y-27378666D01*
X132135452Y-27340571D01*
X131983071Y-27340571D01*
X131906880Y-27378666D01*
X131449738Y-27873904D02*
X131525928Y-27835809D01*
X131564023Y-27797714D01*
X131602119Y-27721523D01*
X131602119Y-27492952D01*
X131564023Y-27416761D01*
X131525928Y-27378666D01*
X131449738Y-27340571D01*
X131335452Y-27340571D01*
X131259261Y-27378666D01*
X131221166Y-27416761D01*
X131183071Y-27492952D01*
X131183071Y-27721523D01*
X131221166Y-27797714D01*
X131259261Y-27835809D01*
X131335452Y-27873904D01*
X131449738Y-27873904D01*
X130840214Y-27873904D02*
X130840214Y-27340571D01*
X130840214Y-27416761D02*
X130802119Y-27378666D01*
X130725928Y-27340571D01*
X130611642Y-27340571D01*
X130535452Y-27378666D01*
X130497357Y-27454857D01*
X130497357Y-27873904D01*
X130497357Y-27454857D02*
X130459261Y-27378666D01*
X130383071Y-27340571D01*
X130268785Y-27340571D01*
X130192595Y-27378666D01*
X130154500Y-27454857D01*
X130154500Y-27873904D01*
X129202119Y-27035809D02*
X129887833Y-28064380D01*
X128935452Y-27340571D02*
X128935452Y-28140571D01*
X128935452Y-27378666D02*
X128859261Y-27340571D01*
X128706880Y-27340571D01*
X128630690Y-27378666D01*
X128592595Y-27416761D01*
X128554500Y-27492952D01*
X128554500Y-27721523D01*
X128592595Y-27797714D01*
X128630690Y-27835809D01*
X128706880Y-27873904D01*
X128859261Y-27873904D01*
X128935452Y-27835809D01*
X128249738Y-27835809D02*
X128173547Y-27873904D01*
X128021166Y-27873904D01*
X127944976Y-27835809D01*
X127906880Y-27759619D01*
X127906880Y-27721523D01*
X127944976Y-27645333D01*
X128021166Y-27607238D01*
X128135452Y-27607238D01*
X128211642Y-27569142D01*
X128249738Y-27492952D01*
X128249738Y-27454857D01*
X128211642Y-27378666D01*
X128135452Y-27340571D01*
X128021166Y-27340571D01*
X127944976Y-27378666D01*
X127564023Y-27873904D02*
X127564023Y-27340571D01*
X127564023Y-27073904D02*
X127602119Y-27112000D01*
X127564023Y-27150095D01*
X127525928Y-27112000D01*
X127564023Y-27073904D01*
X127564023Y-27150095D01*
X127183071Y-27569142D02*
X126573547Y-27569142D01*
X125849738Y-27340571D02*
X125849738Y-27873904D01*
X126040214Y-27035809D02*
X126230690Y-27607238D01*
X125735452Y-27607238D01*
X125506880Y-27340571D02*
X125354500Y-27873904D01*
X125202119Y-27492952D01*
X125049738Y-27873904D01*
X124897357Y-27340571D01*
X124249738Y-27873904D02*
X124249738Y-27454857D01*
X124287833Y-27378666D01*
X124364023Y-27340571D01*
X124516404Y-27340571D01*
X124592595Y-27378666D01*
X124249738Y-27835809D02*
X124325928Y-27873904D01*
X124516404Y-27873904D01*
X124592595Y-27835809D01*
X124630690Y-27759619D01*
X124630690Y-27683428D01*
X124592595Y-27607238D01*
X124516404Y-27569142D01*
X124325928Y-27569142D01*
X124249738Y-27531047D01*
X123868785Y-27873904D02*
X123868785Y-27340571D01*
X123868785Y-27492952D02*
X123830690Y-27416761D01*
X123792595Y-27378666D01*
X123716404Y-27340571D01*
X123640214Y-27340571D01*
X123030690Y-27873904D02*
X123030690Y-27073904D01*
X123030690Y-27835809D02*
X123106880Y-27873904D01*
X123259261Y-27873904D01*
X123335452Y-27835809D01*
X123373547Y-27797714D01*
X123411642Y-27721523D01*
X123411642Y-27492952D01*
X123373547Y-27416761D01*
X123335452Y-27378666D01*
X123259261Y-27340571D01*
X123106880Y-27340571D01*
X123030690Y-27378666D01*
D12*
X136490285Y-21504285D02*
X136090285Y-21504285D01*
X135918857Y-22132857D02*
X136490285Y-22132857D01*
X136490285Y-20932857D01*
X135918857Y-20932857D01*
X135461714Y-22075714D02*
X135290285Y-22132857D01*
X135004571Y-22132857D01*
X134890285Y-22075714D01*
X134833142Y-22018571D01*
X134776000Y-21904285D01*
X134776000Y-21790000D01*
X134833142Y-21675714D01*
X134890285Y-21618571D01*
X135004571Y-21561428D01*
X135233142Y-21504285D01*
X135347428Y-21447142D01*
X135404571Y-21390000D01*
X135461714Y-21275714D01*
X135461714Y-21161428D01*
X135404571Y-21047142D01*
X135347428Y-20990000D01*
X135233142Y-20932857D01*
X134947428Y-20932857D01*
X134776000Y-20990000D01*
X134261714Y-22132857D02*
X134261714Y-20932857D01*
X133804571Y-20932857D01*
X133690285Y-20990000D01*
X133633142Y-21047142D01*
X133576000Y-21161428D01*
X133576000Y-21332857D01*
X133633142Y-21447142D01*
X133690285Y-21504285D01*
X133804571Y-21561428D01*
X134261714Y-21561428D01*
X132890285Y-21447142D02*
X133004571Y-21390000D01*
X133061714Y-21332857D01*
X133118857Y-21218571D01*
X133118857Y-21161428D01*
X133061714Y-21047142D01*
X133004571Y-20990000D01*
X132890285Y-20932857D01*
X132661714Y-20932857D01*
X132547428Y-20990000D01*
X132490285Y-21047142D01*
X132433142Y-21161428D01*
X132433142Y-21218571D01*
X132490285Y-21332857D01*
X132547428Y-21390000D01*
X132661714Y-21447142D01*
X132890285Y-21447142D01*
X133004571Y-21504285D01*
X133061714Y-21561428D01*
X133118857Y-21675714D01*
X133118857Y-21904285D01*
X133061714Y-22018571D01*
X133004571Y-22075714D01*
X132890285Y-22132857D01*
X132661714Y-22132857D01*
X132547428Y-22075714D01*
X132490285Y-22018571D01*
X132433142Y-21904285D01*
X132433142Y-21675714D01*
X132490285Y-21561428D01*
X132547428Y-21504285D01*
X132661714Y-21447142D01*
X131976000Y-21047142D02*
X131918857Y-20990000D01*
X131804571Y-20932857D01*
X131518857Y-20932857D01*
X131404571Y-20990000D01*
X131347428Y-21047142D01*
X131290285Y-21161428D01*
X131290285Y-21275714D01*
X131347428Y-21447142D01*
X132033142Y-22132857D01*
X131290285Y-22132857D01*
X130261714Y-20932857D02*
X130490285Y-20932857D01*
X130604571Y-20990000D01*
X130661714Y-21047142D01*
X130776000Y-21218571D01*
X130833142Y-21447142D01*
X130833142Y-21904285D01*
X130776000Y-22018571D01*
X130718857Y-22075714D01*
X130604571Y-22132857D01*
X130376000Y-22132857D01*
X130261714Y-22075714D01*
X130204571Y-22018571D01*
X130147428Y-21904285D01*
X130147428Y-21618571D01*
X130204571Y-21504285D01*
X130261714Y-21447142D01*
X130376000Y-21390000D01*
X130604571Y-21390000D01*
X130718857Y-21447142D01*
X130776000Y-21504285D01*
X130833142Y-21618571D01*
X129118857Y-20932857D02*
X129347428Y-20932857D01*
X129461714Y-20990000D01*
X129518857Y-21047142D01*
X129633142Y-21218571D01*
X129690285Y-21447142D01*
X129690285Y-21904285D01*
X129633142Y-22018571D01*
X129576000Y-22075714D01*
X129461714Y-22132857D01*
X129233142Y-22132857D01*
X129118857Y-22075714D01*
X129061714Y-22018571D01*
X129004571Y-21904285D01*
X129004571Y-21618571D01*
X129061714Y-21504285D01*
X129118857Y-21447142D01*
X129233142Y-21390000D01*
X129461714Y-21390000D01*
X129576000Y-21447142D01*
X129633142Y-21504285D01*
X129690285Y-21618571D01*
X127176000Y-21504285D02*
X127004571Y-21561428D01*
X126947428Y-21618571D01*
X126890285Y-21732857D01*
X126890285Y-21904285D01*
X126947428Y-22018571D01*
X127004571Y-22075714D01*
X127118857Y-22132857D01*
X127576000Y-22132857D01*
X127576000Y-20932857D01*
X127176000Y-20932857D01*
X127061714Y-20990000D01*
X127004571Y-21047142D01*
X126947428Y-21161428D01*
X126947428Y-21275714D01*
X127004571Y-21390000D01*
X127061714Y-21447142D01*
X127176000Y-21504285D01*
X127576000Y-21504285D01*
X126376000Y-22132857D02*
X126376000Y-21332857D01*
X126376000Y-21561428D02*
X126318857Y-21447142D01*
X126261714Y-21390000D01*
X126147428Y-21332857D01*
X126033142Y-21332857D01*
X125176000Y-22075714D02*
X125290285Y-22132857D01*
X125518857Y-22132857D01*
X125633142Y-22075714D01*
X125690285Y-21961428D01*
X125690285Y-21504285D01*
X125633142Y-21390000D01*
X125518857Y-21332857D01*
X125290285Y-21332857D01*
X125176000Y-21390000D01*
X125118857Y-21504285D01*
X125118857Y-21618571D01*
X125690285Y-21732857D01*
X124090285Y-22132857D02*
X124090285Y-21504285D01*
X124147428Y-21390000D01*
X124261714Y-21332857D01*
X124490285Y-21332857D01*
X124604571Y-21390000D01*
X124090285Y-22075714D02*
X124204571Y-22132857D01*
X124490285Y-22132857D01*
X124604571Y-22075714D01*
X124661714Y-21961428D01*
X124661714Y-21847142D01*
X124604571Y-21732857D01*
X124490285Y-21675714D01*
X124204571Y-21675714D01*
X124090285Y-21618571D01*
X123518857Y-22132857D02*
X123518857Y-20932857D01*
X123404571Y-21675714D02*
X123061714Y-22132857D01*
X123061714Y-21332857D02*
X123518857Y-21790000D01*
X122376000Y-22132857D02*
X122490285Y-22075714D01*
X122547428Y-22018571D01*
X122604571Y-21904285D01*
X122604571Y-21561428D01*
X122547428Y-21447142D01*
X122490285Y-21390000D01*
X122376000Y-21332857D01*
X122204571Y-21332857D01*
X122090285Y-21390000D01*
X122033142Y-21447142D01*
X121976000Y-21561428D01*
X121976000Y-21904285D01*
X122033142Y-22018571D01*
X122090285Y-22075714D01*
X122204571Y-22132857D01*
X122376000Y-22132857D01*
X120947428Y-21332857D02*
X120947428Y-22132857D01*
X121461714Y-21332857D02*
X121461714Y-21961428D01*
X121404571Y-22075714D01*
X121290285Y-22132857D01*
X121118857Y-22132857D01*
X121004571Y-22075714D01*
X120947428Y-22018571D01*
X120547428Y-21332857D02*
X120090285Y-21332857D01*
X120376000Y-20932857D02*
X120376000Y-21961428D01*
X120318857Y-22075714D01*
X120204571Y-22132857D01*
X120090285Y-22132857D01*
X118890285Y-21332857D02*
X118604571Y-22132857D01*
X118318857Y-21332857D01*
X117233142Y-22132857D02*
X117918857Y-22132857D01*
X117576000Y-22132857D02*
X117576000Y-20932857D01*
X117690285Y-21104285D01*
X117804571Y-21218571D01*
X117918857Y-21275714D01*
X116718857Y-22018571D02*
X116661714Y-22075714D01*
X116718857Y-22132857D01*
X116776000Y-22075714D01*
X116718857Y-22018571D01*
X116718857Y-22132857D01*
X115918857Y-20932857D02*
X115804571Y-20932857D01*
X115690285Y-20990000D01*
X115633142Y-21047142D01*
X115576000Y-21161428D01*
X115518857Y-21390000D01*
X115518857Y-21675714D01*
X115576000Y-21904285D01*
X115633142Y-22018571D01*
X115690285Y-22075714D01*
X115804571Y-22132857D01*
X115918857Y-22132857D01*
X116033142Y-22075714D01*
X116090285Y-22018571D01*
X116147428Y-21904285D01*
X116204571Y-21675714D01*
X116204571Y-21390000D01*
X116147428Y-21161428D01*
X116090285Y-21047142D01*
X116033142Y-20990000D01*
X115918857Y-20932857D01*
D10*
X123436748Y-45414000D02*
X123959252Y-45414000D01*
X123436748Y-43994000D02*
X123959252Y-43994000D01*
X130300252Y-50494000D02*
X129777748Y-50494000D01*
X130300252Y-49074000D02*
X129777748Y-49074000D01*
X130300252Y-33834000D02*
X129777748Y-33834000D01*
X130300252Y-35254000D02*
X129777748Y-35254000D01*
X130309252Y-40842000D02*
X129786748Y-40842000D01*
X130309252Y-39422000D02*
X129786748Y-39422000D01*
X125170000Y-50426252D02*
X125170000Y-49903748D01*
X123750000Y-50426252D02*
X123750000Y-49903748D01*
X118670000Y-50417252D02*
X118670000Y-49894748D01*
X120090000Y-50417252D02*
X120090000Y-49894748D01*
X123950252Y-33834000D02*
X123427748Y-33834000D01*
X123950252Y-35254000D02*
X123427748Y-35254000D01*
D11*
X116352833Y-37192000D02*
X116429023Y-37153904D01*
X116543309Y-37153904D01*
X116657595Y-37192000D01*
X116733785Y-37268190D01*
X116771880Y-37344380D01*
X116809976Y-37496761D01*
X116809976Y-37611047D01*
X116771880Y-37763428D01*
X116733785Y-37839619D01*
X116657595Y-37915809D01*
X116543309Y-37953904D01*
X116467119Y-37953904D01*
X116352833Y-37915809D01*
X116314738Y-37877714D01*
X116314738Y-37611047D01*
X116467119Y-37611047D01*
X115971880Y-37953904D02*
X115971880Y-37153904D01*
X115667119Y-37153904D01*
X115590928Y-37192000D01*
X115552833Y-37230095D01*
X115514738Y-37306285D01*
X115514738Y-37420571D01*
X115552833Y-37496761D01*
X115590928Y-37534857D01*
X115667119Y-37572952D01*
X115971880Y-37572952D01*
X115171880Y-37953904D02*
X115171880Y-37153904D01*
X114638547Y-37153904D02*
X114486166Y-37153904D01*
X114409976Y-37192000D01*
X114333785Y-37268190D01*
X114295690Y-37420571D01*
X114295690Y-37687238D01*
X114333785Y-37839619D01*
X114409976Y-37915809D01*
X114486166Y-37953904D01*
X114638547Y-37953904D01*
X114714738Y-37915809D01*
X114790928Y-37839619D01*
X114829023Y-37687238D01*
X114829023Y-37420571D01*
X114790928Y-37268190D01*
X114714738Y-37192000D01*
X114638547Y-37153904D01*
X113533785Y-37953904D02*
X113990928Y-37953904D01*
X113762357Y-37953904D02*
X113762357Y-37153904D01*
X113838547Y-37268190D01*
X113914738Y-37344380D01*
X113990928Y-37382476D01*
X112848071Y-37153904D02*
X113000452Y-37153904D01*
X113076642Y-37192000D01*
X113114738Y-37230095D01*
X113190928Y-37344380D01*
X113229023Y-37496761D01*
X113229023Y-37801523D01*
X113190928Y-37877714D01*
X113152833Y-37915809D01*
X113076642Y-37953904D01*
X112924261Y-37953904D01*
X112848071Y-37915809D01*
X112809976Y-37877714D01*
X112771880Y-37801523D01*
X112771880Y-37611047D01*
X112809976Y-37534857D01*
X112848071Y-37496761D01*
X112924261Y-37458666D01*
X113076642Y-37458666D01*
X113152833Y-37496761D01*
X113190928Y-37534857D01*
X113229023Y-37611047D01*
X114752833Y-35185333D02*
X114371880Y-35185333D01*
X114829023Y-35413904D02*
X114562357Y-34613904D01*
X114295690Y-35413904D01*
X114029023Y-35413904D02*
X114029023Y-34613904D01*
X113838547Y-34613904D01*
X113724261Y-34652000D01*
X113648071Y-34728190D01*
X113609976Y-34804380D01*
X113571880Y-34956761D01*
X113571880Y-35071047D01*
X113609976Y-35223428D01*
X113648071Y-35299619D01*
X113724261Y-35375809D01*
X113838547Y-35413904D01*
X114029023Y-35413904D01*
X112771880Y-35337714D02*
X112809976Y-35375809D01*
X112924261Y-35413904D01*
X113000452Y-35413904D01*
X113114738Y-35375809D01*
X113190928Y-35299619D01*
X113229023Y-35223428D01*
X113267119Y-35071047D01*
X113267119Y-34956761D01*
X113229023Y-34804380D01*
X113190928Y-34728190D01*
X113114738Y-34652000D01*
X113000452Y-34613904D01*
X112924261Y-34613904D01*
X112809976Y-34652000D01*
X112771880Y-34690095D01*
X123862910Y-43559872D02*
X124196244Y-43083682D01*
X124434339Y-43559872D02*
X124434339Y-42559872D01*
X124053386Y-42559872D01*
X123958148Y-42607492D01*
X123910529Y-42655111D01*
X123862910Y-42750349D01*
X123862910Y-42893206D01*
X123910529Y-42988444D01*
X123958148Y-43036063D01*
X124053386Y-43083682D01*
X124434339Y-43083682D01*
X123481958Y-42655111D02*
X123434339Y-42607492D01*
X123339101Y-42559872D01*
X123101005Y-42559872D01*
X123005767Y-42607492D01*
X122958148Y-42655111D01*
X122910529Y-42750349D01*
X122910529Y-42845587D01*
X122958148Y-42988444D01*
X123529577Y-43559872D01*
X122910529Y-43559872D01*
X124174190Y-46843904D02*
X124631333Y-46843904D01*
X124402761Y-46843904D02*
X124402761Y-46043904D01*
X124478952Y-46158190D01*
X124555142Y-46234380D01*
X124631333Y-46272476D01*
X123678952Y-46043904D02*
X123602761Y-46043904D01*
X123526571Y-46082000D01*
X123488476Y-46120095D01*
X123450380Y-46196285D01*
X123412285Y-46348666D01*
X123412285Y-46539142D01*
X123450380Y-46691523D01*
X123488476Y-46767714D01*
X123526571Y-46805809D01*
X123602761Y-46843904D01*
X123678952Y-46843904D01*
X123755142Y-46805809D01*
X123793238Y-46767714D01*
X123831333Y-46691523D01*
X123869428Y-46539142D01*
X123869428Y-46348666D01*
X123831333Y-46196285D01*
X123793238Y-46120095D01*
X123755142Y-46082000D01*
X123678952Y-46043904D01*
X123069428Y-46843904D02*
X123069428Y-46043904D01*
X122993238Y-46539142D02*
X122764666Y-46843904D01*
X122764666Y-46310571D02*
X123069428Y-46615333D01*
X130205666Y-48586380D02*
X130539000Y-48110190D01*
X130777095Y-48586380D02*
X130777095Y-47586380D01*
X130396142Y-47586380D01*
X130300904Y-47634000D01*
X130253285Y-47681619D01*
X130205666Y-47776857D01*
X130205666Y-47919714D01*
X130253285Y-48014952D01*
X130300904Y-48062571D01*
X130396142Y-48110190D01*
X130777095Y-48110190D01*
X129872333Y-47586380D02*
X129253285Y-47586380D01*
X129586619Y-47967333D01*
X129443761Y-47967333D01*
X129348523Y-48014952D01*
X129300904Y-48062571D01*
X129253285Y-48157809D01*
X129253285Y-48395904D01*
X129300904Y-48491142D01*
X129348523Y-48538761D01*
X129443761Y-48586380D01*
X129729476Y-48586380D01*
X129824714Y-48538761D01*
X129872333Y-48491142D01*
X130515190Y-51795904D02*
X130972333Y-51795904D01*
X130743761Y-51795904D02*
X130743761Y-50995904D01*
X130819952Y-51110190D01*
X130896142Y-51186380D01*
X130972333Y-51224476D01*
X130019952Y-50995904D02*
X129943761Y-50995904D01*
X129867571Y-51034000D01*
X129829476Y-51072095D01*
X129791380Y-51148285D01*
X129753285Y-51300666D01*
X129753285Y-51491142D01*
X129791380Y-51643523D01*
X129829476Y-51719714D01*
X129867571Y-51757809D01*
X129943761Y-51795904D01*
X130019952Y-51795904D01*
X130096142Y-51757809D01*
X130134238Y-51719714D01*
X130172333Y-51643523D01*
X130210428Y-51491142D01*
X130210428Y-51300666D01*
X130172333Y-51148285D01*
X130134238Y-51072095D01*
X130096142Y-51034000D01*
X130019952Y-50995904D01*
X129410428Y-51795904D02*
X129410428Y-50995904D01*
X129334238Y-51491142D02*
X129105666Y-51795904D01*
X129105666Y-51262571D02*
X129410428Y-51567333D01*
X130205666Y-33346380D02*
X130539000Y-32870190D01*
X130777095Y-33346380D02*
X130777095Y-32346380D01*
X130396142Y-32346380D01*
X130300904Y-32394000D01*
X130253285Y-32441619D01*
X130205666Y-32536857D01*
X130205666Y-32679714D01*
X130253285Y-32774952D01*
X130300904Y-32822571D01*
X130396142Y-32870190D01*
X130777095Y-32870190D01*
X129348523Y-32679714D02*
X129348523Y-33346380D01*
X129586619Y-32298761D02*
X129824714Y-33013047D01*
X129205666Y-33013047D01*
X130515190Y-36555904D02*
X130972333Y-36555904D01*
X130743761Y-36555904D02*
X130743761Y-35755904D01*
X130819952Y-35870190D01*
X130896142Y-35946380D01*
X130972333Y-35984476D01*
X130019952Y-35755904D02*
X129943761Y-35755904D01*
X129867571Y-35794000D01*
X129829476Y-35832095D01*
X129791380Y-35908285D01*
X129753285Y-36060666D01*
X129753285Y-36251142D01*
X129791380Y-36403523D01*
X129829476Y-36479714D01*
X129867571Y-36517809D01*
X129943761Y-36555904D01*
X130019952Y-36555904D01*
X130096142Y-36517809D01*
X130134238Y-36479714D01*
X130172333Y-36403523D01*
X130210428Y-36251142D01*
X130210428Y-36060666D01*
X130172333Y-35908285D01*
X130134238Y-35832095D01*
X130096142Y-35794000D01*
X130019952Y-35755904D01*
X129410428Y-36555904D02*
X129410428Y-35755904D01*
X129334238Y-36251142D02*
X129105666Y-36555904D01*
X129105666Y-36022571D02*
X129410428Y-36327333D01*
X130214666Y-38934380D02*
X130548000Y-38458190D01*
X130786095Y-38934380D02*
X130786095Y-37934380D01*
X130405142Y-37934380D01*
X130309904Y-37982000D01*
X130262285Y-38029619D01*
X130214666Y-38124857D01*
X130214666Y-38267714D01*
X130262285Y-38362952D01*
X130309904Y-38410571D01*
X130405142Y-38458190D01*
X130786095Y-38458190D01*
X129309904Y-37934380D02*
X129786095Y-37934380D01*
X129833714Y-38410571D01*
X129786095Y-38362952D01*
X129690857Y-38315333D01*
X129452761Y-38315333D01*
X129357523Y-38362952D01*
X129309904Y-38410571D01*
X129262285Y-38505809D01*
X129262285Y-38743904D01*
X129309904Y-38839142D01*
X129357523Y-38886761D01*
X129452761Y-38934380D01*
X129690857Y-38934380D01*
X129786095Y-38886761D01*
X129833714Y-38839142D01*
X130524190Y-42143904D02*
X130981333Y-42143904D01*
X130752761Y-42143904D02*
X130752761Y-41343904D01*
X130828952Y-41458190D01*
X130905142Y-41534380D01*
X130981333Y-41572476D01*
X130028952Y-41343904D02*
X129952761Y-41343904D01*
X129876571Y-41382000D01*
X129838476Y-41420095D01*
X129800380Y-41496285D01*
X129762285Y-41648666D01*
X129762285Y-41839142D01*
X129800380Y-41991523D01*
X129838476Y-42067714D01*
X129876571Y-42105809D01*
X129952761Y-42143904D01*
X130028952Y-42143904D01*
X130105142Y-42105809D01*
X130143238Y-42067714D01*
X130181333Y-41991523D01*
X130219428Y-41839142D01*
X130219428Y-41648666D01*
X130181333Y-41496285D01*
X130143238Y-41420095D01*
X130105142Y-41382000D01*
X130028952Y-41343904D01*
X129419428Y-42143904D02*
X129419428Y-41343904D01*
X129343238Y-41839142D02*
X129114666Y-42143904D01*
X129114666Y-41610571D02*
X129419428Y-41915333D01*
X123166142Y-49998333D02*
X123213761Y-49950714D01*
X123261380Y-49807857D01*
X123261380Y-49712619D01*
X123213761Y-49569761D01*
X123118523Y-49474523D01*
X123023285Y-49426904D01*
X122832809Y-49379285D01*
X122689952Y-49379285D01*
X122499476Y-49426904D01*
X122404238Y-49474523D01*
X122309000Y-49569761D01*
X122261380Y-49712619D01*
X122261380Y-49807857D01*
X122309000Y-49950714D01*
X122356619Y-49998333D01*
X123261380Y-50950714D02*
X123261380Y-50379285D01*
X123261380Y-50665000D02*
X122261380Y-50665000D01*
X122404238Y-50569761D01*
X122499476Y-50474523D01*
X122547095Y-50379285D01*
X126345904Y-49250714D02*
X126345904Y-48793571D01*
X126345904Y-49022142D02*
X125545904Y-49022142D01*
X125660190Y-48945952D01*
X125736380Y-48869761D01*
X125774476Y-48793571D01*
X125545904Y-49745952D02*
X125545904Y-49822142D01*
X125584000Y-49898333D01*
X125622095Y-49936428D01*
X125698285Y-49974523D01*
X125850666Y-50012619D01*
X126041142Y-50012619D01*
X126193523Y-49974523D01*
X126269714Y-49936428D01*
X126307809Y-49898333D01*
X126345904Y-49822142D01*
X126345904Y-49745952D01*
X126307809Y-49669761D01*
X126269714Y-49631666D01*
X126193523Y-49593571D01*
X126041142Y-49555476D01*
X125850666Y-49555476D01*
X125698285Y-49593571D01*
X125622095Y-49631666D01*
X125584000Y-49669761D01*
X125545904Y-49745952D01*
X125812571Y-50355476D02*
X126612571Y-50355476D01*
X126231619Y-50736428D02*
X126307809Y-50774523D01*
X126345904Y-50850714D01*
X126231619Y-50355476D02*
X126307809Y-50393571D01*
X126345904Y-50469761D01*
X126345904Y-50622142D01*
X126307809Y-50698333D01*
X126231619Y-50736428D01*
X125812571Y-50736428D01*
X125926857Y-51460238D02*
X125926857Y-51193571D01*
X126345904Y-51193571D02*
X125545904Y-51193571D01*
X125545904Y-51574523D01*
X118086142Y-49998333D02*
X118133761Y-49950714D01*
X118181380Y-49807857D01*
X118181380Y-49712619D01*
X118133761Y-49569761D01*
X118038523Y-49474523D01*
X117943285Y-49426904D01*
X117752809Y-49379285D01*
X117609952Y-49379285D01*
X117419476Y-49426904D01*
X117324238Y-49474523D01*
X117229000Y-49569761D01*
X117181380Y-49712619D01*
X117181380Y-49807857D01*
X117229000Y-49950714D01*
X117276619Y-49998333D01*
X117276619Y-50379285D02*
X117229000Y-50426904D01*
X117181380Y-50522142D01*
X117181380Y-50760238D01*
X117229000Y-50855476D01*
X117276619Y-50903095D01*
X117371857Y-50950714D01*
X117467095Y-50950714D01*
X117609952Y-50903095D01*
X118181380Y-50331666D01*
X118181380Y-50950714D01*
X121265904Y-48926904D02*
X121265904Y-48469761D01*
X121265904Y-48698333D02*
X120465904Y-48698333D01*
X120580190Y-48622142D01*
X120656380Y-48545952D01*
X120694476Y-48469761D01*
X120465904Y-49422142D02*
X120465904Y-49498333D01*
X120504000Y-49574523D01*
X120542095Y-49612619D01*
X120618285Y-49650714D01*
X120770666Y-49688809D01*
X120961142Y-49688809D01*
X121113523Y-49650714D01*
X121189714Y-49612619D01*
X121227809Y-49574523D01*
X121265904Y-49498333D01*
X121265904Y-49422142D01*
X121227809Y-49345952D01*
X121189714Y-49307857D01*
X121113523Y-49269761D01*
X120961142Y-49231666D01*
X120770666Y-49231666D01*
X120618285Y-49269761D01*
X120542095Y-49307857D01*
X120504000Y-49345952D01*
X120465904Y-49422142D01*
X120465904Y-50184047D02*
X120465904Y-50260238D01*
X120504000Y-50336428D01*
X120542095Y-50374523D01*
X120618285Y-50412619D01*
X120770666Y-50450714D01*
X120961142Y-50450714D01*
X121113523Y-50412619D01*
X121189714Y-50374523D01*
X121227809Y-50336428D01*
X121265904Y-50260238D01*
X121265904Y-50184047D01*
X121227809Y-50107857D01*
X121189714Y-50069761D01*
X121113523Y-50031666D01*
X120961142Y-49993571D01*
X120770666Y-49993571D01*
X120618285Y-50031666D01*
X120542095Y-50069761D01*
X120504000Y-50107857D01*
X120465904Y-50184047D01*
X120732571Y-50793571D02*
X121265904Y-50793571D01*
X120808761Y-50793571D02*
X120770666Y-50831666D01*
X120732571Y-50907857D01*
X120732571Y-51022142D01*
X120770666Y-51098333D01*
X120846857Y-51136428D01*
X121265904Y-51136428D01*
X120846857Y-51784047D02*
X120846857Y-51517380D01*
X121265904Y-51517380D02*
X120465904Y-51517380D01*
X120465904Y-51898333D01*
X123855666Y-33346380D02*
X124189000Y-32870190D01*
X124427095Y-33346380D02*
X124427095Y-32346380D01*
X124046142Y-32346380D01*
X123950904Y-32394000D01*
X123903285Y-32441619D01*
X123855666Y-32536857D01*
X123855666Y-32679714D01*
X123903285Y-32774952D01*
X123950904Y-32822571D01*
X124046142Y-32870190D01*
X124427095Y-32870190D01*
X122903285Y-33346380D02*
X123474714Y-33346380D01*
X123189000Y-33346380D02*
X123189000Y-32346380D01*
X123284238Y-32489238D01*
X123379476Y-32584476D01*
X123474714Y-32632095D01*
M02*
