G04 #@! TF.GenerationSoftware,KiCad,Pcbnew,5.1.5*
G04 #@! TF.CreationDate,2020-01-13T20:05:45+01:00*
G04 #@! TF.ProjectId,ESP8266_Uni,45535038-3236-4365-9f55-6e692e6b6963,rev?*
G04 #@! TF.SameCoordinates,Original*
G04 #@! TF.FileFunction,Soldermask,Top*
G04 #@! TF.FilePolarity,Negative*
%FSLAX46Y46*%
G04 Gerber Fmt 4.6, Leading zero omitted, Abs format (unit mm)*
G04 Created by KiCad (PCBNEW 5.1.5) date 2020-01-13 20:05:45*
%MOMM*%
%LPD*%
G04 APERTURE LIST*
%ADD10C,0.100000*%
G04 APERTURE END LIST*
D10*
G36*
X126280627Y-56391037D02*
G01*
X126450466Y-56442557D01*
X126606991Y-56526222D01*
X126642729Y-56555552D01*
X126744186Y-56638814D01*
X126813943Y-56723815D01*
X126856778Y-56776009D01*
X126940443Y-56932534D01*
X126991963Y-57102374D01*
X127005000Y-57234743D01*
X127005000Y-57573258D01*
X126991963Y-57705627D01*
X126940443Y-57875466D01*
X126856778Y-58031991D01*
X126827448Y-58067729D01*
X126744186Y-58169186D01*
X126606989Y-58281779D01*
X126450467Y-58365442D01*
X126450465Y-58365443D01*
X126280626Y-58416963D01*
X126104000Y-58434359D01*
X125927373Y-58416963D01*
X125757534Y-58365443D01*
X125601009Y-58281778D01*
X125558750Y-58247097D01*
X125463814Y-58169186D01*
X125351221Y-58031989D01*
X125267558Y-57875467D01*
X125265322Y-57868097D01*
X125216037Y-57705626D01*
X125203000Y-57573257D01*
X125203000Y-57234742D01*
X125216037Y-57102373D01*
X125267557Y-56932534D01*
X125351222Y-56776009D01*
X125463815Y-56638815D01*
X125601010Y-56526222D01*
X125757535Y-56442557D01*
X125927374Y-56391037D01*
X126104000Y-56373641D01*
X126280627Y-56391037D01*
G37*
G36*
X123780627Y-56391037D02*
G01*
X123950466Y-56442557D01*
X124106991Y-56526222D01*
X124142729Y-56555552D01*
X124244186Y-56638814D01*
X124313943Y-56723815D01*
X124356778Y-56776009D01*
X124440443Y-56932534D01*
X124491963Y-57102374D01*
X124505000Y-57234743D01*
X124505000Y-57573258D01*
X124491963Y-57705627D01*
X124440443Y-57875466D01*
X124356778Y-58031991D01*
X124327448Y-58067729D01*
X124244186Y-58169186D01*
X124106989Y-58281779D01*
X123950467Y-58365442D01*
X123950465Y-58365443D01*
X123780626Y-58416963D01*
X123604000Y-58434359D01*
X123427373Y-58416963D01*
X123257534Y-58365443D01*
X123101009Y-58281778D01*
X123058750Y-58247097D01*
X122963814Y-58169186D01*
X122851221Y-58031989D01*
X122767558Y-57875467D01*
X122765322Y-57868097D01*
X122716037Y-57705626D01*
X122703000Y-57573257D01*
X122703000Y-57234742D01*
X122716037Y-57102373D01*
X122767557Y-56932534D01*
X122851222Y-56776009D01*
X122963815Y-56638815D01*
X123101010Y-56526222D01*
X123257535Y-56442557D01*
X123427374Y-56391037D01*
X123604000Y-56373641D01*
X123780627Y-56391037D01*
G37*
G36*
X121280627Y-56391037D02*
G01*
X121450466Y-56442557D01*
X121606991Y-56526222D01*
X121642729Y-56555552D01*
X121744186Y-56638814D01*
X121813943Y-56723815D01*
X121856778Y-56776009D01*
X121940443Y-56932534D01*
X121991963Y-57102374D01*
X122005000Y-57234743D01*
X122005000Y-57573258D01*
X121991963Y-57705627D01*
X121940443Y-57875466D01*
X121856778Y-58031991D01*
X121827448Y-58067729D01*
X121744186Y-58169186D01*
X121606989Y-58281779D01*
X121450467Y-58365442D01*
X121450465Y-58365443D01*
X121280626Y-58416963D01*
X121104000Y-58434359D01*
X120927373Y-58416963D01*
X120757534Y-58365443D01*
X120601009Y-58281778D01*
X120558750Y-58247097D01*
X120463814Y-58169186D01*
X120351221Y-58031989D01*
X120267558Y-57875467D01*
X120265322Y-57868097D01*
X120216037Y-57705626D01*
X120203000Y-57573257D01*
X120203000Y-57234742D01*
X120216037Y-57102373D01*
X120267557Y-56932534D01*
X120351222Y-56776009D01*
X120463815Y-56638815D01*
X120601010Y-56526222D01*
X120757535Y-56442557D01*
X120927374Y-56391037D01*
X121104000Y-56373641D01*
X121280627Y-56391037D01*
G37*
G36*
X128780627Y-56391037D02*
G01*
X128950466Y-56442557D01*
X129106991Y-56526222D01*
X129142729Y-56555552D01*
X129244186Y-56638814D01*
X129313943Y-56723815D01*
X129356778Y-56776009D01*
X129440443Y-56932534D01*
X129491963Y-57102374D01*
X129505000Y-57234743D01*
X129505000Y-57573258D01*
X129491963Y-57705627D01*
X129440443Y-57875466D01*
X129356778Y-58031991D01*
X129327448Y-58067729D01*
X129244186Y-58169186D01*
X129106989Y-58281779D01*
X128950467Y-58365442D01*
X128950465Y-58365443D01*
X128780626Y-58416963D01*
X128604000Y-58434359D01*
X128427373Y-58416963D01*
X128257534Y-58365443D01*
X128101009Y-58281778D01*
X128058750Y-58247097D01*
X127963814Y-58169186D01*
X127851221Y-58031989D01*
X127767558Y-57875467D01*
X127765322Y-57868097D01*
X127716037Y-57705626D01*
X127703000Y-57573257D01*
X127703000Y-57234742D01*
X127716037Y-57102373D01*
X127767557Y-56932534D01*
X127851222Y-56776009D01*
X127963815Y-56638815D01*
X128101010Y-56526222D01*
X128257535Y-56442557D01*
X128427374Y-56391037D01*
X128604000Y-56373641D01*
X128780627Y-56391037D01*
G37*
G36*
X131280627Y-56391037D02*
G01*
X131450466Y-56442557D01*
X131606991Y-56526222D01*
X131642729Y-56555552D01*
X131744186Y-56638814D01*
X131813943Y-56723815D01*
X131856778Y-56776009D01*
X131940443Y-56932534D01*
X131991963Y-57102374D01*
X132005000Y-57234743D01*
X132005000Y-57573258D01*
X131991963Y-57705627D01*
X131940443Y-57875466D01*
X131856778Y-58031991D01*
X131827448Y-58067729D01*
X131744186Y-58169186D01*
X131606989Y-58281779D01*
X131450467Y-58365442D01*
X131450465Y-58365443D01*
X131280626Y-58416963D01*
X131104000Y-58434359D01*
X130927373Y-58416963D01*
X130757534Y-58365443D01*
X130601009Y-58281778D01*
X130558750Y-58247097D01*
X130463814Y-58169186D01*
X130351221Y-58031989D01*
X130267558Y-57875467D01*
X130265322Y-57868097D01*
X130216037Y-57705626D01*
X130203000Y-57573257D01*
X130203000Y-57234742D01*
X130216037Y-57102373D01*
X130267557Y-56932534D01*
X130351222Y-56776009D01*
X130463815Y-56638815D01*
X130601010Y-56526222D01*
X130757535Y-56442557D01*
X130927374Y-56391037D01*
X131104000Y-56373641D01*
X131280627Y-56391037D01*
G37*
G36*
X134362600Y-56381989D02*
G01*
X134395652Y-56392015D01*
X134426103Y-56408292D01*
X134452799Y-56430201D01*
X134474708Y-56456897D01*
X134490985Y-56487348D01*
X134501011Y-56520400D01*
X134505000Y-56560903D01*
X134505000Y-58247097D01*
X134501011Y-58287600D01*
X134490985Y-58320652D01*
X134474708Y-58351103D01*
X134452799Y-58377799D01*
X134426103Y-58399708D01*
X134395652Y-58415985D01*
X134362600Y-58426011D01*
X134322097Y-58430000D01*
X132885903Y-58430000D01*
X132845400Y-58426011D01*
X132812348Y-58415985D01*
X132781897Y-58399708D01*
X132755201Y-58377799D01*
X132733292Y-58351103D01*
X132717015Y-58320652D01*
X132706989Y-58287600D01*
X132703000Y-58247097D01*
X132703000Y-56560903D01*
X132706989Y-56520400D01*
X132717015Y-56487348D01*
X132733292Y-56456897D01*
X132755201Y-56430201D01*
X132781897Y-56408292D01*
X132812348Y-56392015D01*
X132845400Y-56381989D01*
X132885903Y-56378000D01*
X134322097Y-56378000D01*
X134362600Y-56381989D01*
G37*
G36*
X143008442Y-56469518D02*
G01*
X143074627Y-56476037D01*
X143244466Y-56527557D01*
X143244468Y-56527558D01*
X143322728Y-56569389D01*
X143400991Y-56611222D01*
X143434612Y-56638814D01*
X143538186Y-56723814D01*
X143621448Y-56825271D01*
X143650778Y-56861009D01*
X143734443Y-57017534D01*
X143785963Y-57187373D01*
X143803359Y-57364000D01*
X143785963Y-57540627D01*
X143734443Y-57710466D01*
X143650778Y-57866991D01*
X143621448Y-57902729D01*
X143538186Y-58004186D01*
X143436729Y-58087448D01*
X143400991Y-58116778D01*
X143244466Y-58200443D01*
X143074627Y-58251963D01*
X143008442Y-58258482D01*
X142942260Y-58265000D01*
X142553740Y-58265000D01*
X142487558Y-58258482D01*
X142421373Y-58251963D01*
X142251534Y-58200443D01*
X142095009Y-58116778D01*
X142059271Y-58087448D01*
X141957814Y-58004186D01*
X141874552Y-57902729D01*
X141845222Y-57866991D01*
X141761557Y-57710466D01*
X141710037Y-57540627D01*
X141692641Y-57364000D01*
X141710037Y-57187373D01*
X141761557Y-57017534D01*
X141845222Y-56861009D01*
X141874552Y-56825271D01*
X141957814Y-56723814D01*
X142061388Y-56638814D01*
X142095009Y-56611222D01*
X142173272Y-56569389D01*
X142251532Y-56527558D01*
X142251534Y-56527557D01*
X142421373Y-56476037D01*
X142487558Y-56469518D01*
X142553740Y-56463000D01*
X142942260Y-56463000D01*
X143008442Y-56469518D01*
G37*
G36*
X112135600Y-56252989D02*
G01*
X112168652Y-56263015D01*
X112199103Y-56279292D01*
X112225799Y-56301201D01*
X112247708Y-56327897D01*
X112263985Y-56358348D01*
X112274011Y-56391400D01*
X112278000Y-56431903D01*
X112278000Y-57868097D01*
X112274011Y-57908600D01*
X112263985Y-57941652D01*
X112247708Y-57972103D01*
X112225799Y-57998799D01*
X112199103Y-58020708D01*
X112168652Y-58036985D01*
X112135600Y-58047011D01*
X112095097Y-58051000D01*
X110408903Y-58051000D01*
X110368400Y-58047011D01*
X110335348Y-58036985D01*
X110304897Y-58020708D01*
X110278201Y-57998799D01*
X110256292Y-57972103D01*
X110240015Y-57941652D01*
X110229989Y-57908600D01*
X110226000Y-57868097D01*
X110226000Y-56431903D01*
X110229989Y-56391400D01*
X110240015Y-56358348D01*
X110256292Y-56327897D01*
X110278201Y-56301201D01*
X110304897Y-56279292D01*
X110335348Y-56263015D01*
X110368400Y-56252989D01*
X110408903Y-56249000D01*
X112095097Y-56249000D01*
X112135600Y-56252989D01*
G37*
G36*
X143656600Y-53966989D02*
G01*
X143689652Y-53977015D01*
X143720103Y-53993292D01*
X143746799Y-54015201D01*
X143768708Y-54041897D01*
X143784985Y-54072348D01*
X143795011Y-54105400D01*
X143799000Y-54145903D01*
X143799000Y-55582097D01*
X143795011Y-55622600D01*
X143784985Y-55655652D01*
X143768708Y-55686103D01*
X143746799Y-55712799D01*
X143720103Y-55734708D01*
X143689652Y-55750985D01*
X143656600Y-55761011D01*
X143616097Y-55765000D01*
X141879903Y-55765000D01*
X141839400Y-55761011D01*
X141806348Y-55750985D01*
X141775897Y-55734708D01*
X141749201Y-55712799D01*
X141727292Y-55686103D01*
X141711015Y-55655652D01*
X141700989Y-55622600D01*
X141697000Y-55582097D01*
X141697000Y-54145903D01*
X141700989Y-54105400D01*
X141711015Y-54072348D01*
X141727292Y-54041897D01*
X141749201Y-54015201D01*
X141775897Y-53993292D01*
X141806348Y-53977015D01*
X141839400Y-53966989D01*
X141879903Y-53963000D01*
X143616097Y-53963000D01*
X143656600Y-53966989D01*
G37*
G36*
X111487442Y-53755518D02*
G01*
X111553627Y-53762037D01*
X111723466Y-53813557D01*
X111879991Y-53897222D01*
X111915729Y-53926552D01*
X112017186Y-54009814D01*
X112095630Y-54105400D01*
X112129778Y-54147009D01*
X112213443Y-54303534D01*
X112264963Y-54473373D01*
X112282359Y-54650000D01*
X112264963Y-54826627D01*
X112213443Y-54996466D01*
X112129778Y-55152991D01*
X112100448Y-55188729D01*
X112017186Y-55290186D01*
X111915729Y-55373448D01*
X111879991Y-55402778D01*
X111723466Y-55486443D01*
X111553627Y-55537963D01*
X111487443Y-55544481D01*
X111421260Y-55551000D01*
X111082740Y-55551000D01*
X111016557Y-55544481D01*
X110950373Y-55537963D01*
X110780534Y-55486443D01*
X110624009Y-55402778D01*
X110588271Y-55373448D01*
X110486814Y-55290186D01*
X110403552Y-55188729D01*
X110374222Y-55152991D01*
X110290557Y-54996466D01*
X110239037Y-54826627D01*
X110221641Y-54650000D01*
X110239037Y-54473373D01*
X110290557Y-54303534D01*
X110374222Y-54147009D01*
X110408370Y-54105400D01*
X110486814Y-54009814D01*
X110588271Y-53926552D01*
X110624009Y-53897222D01*
X110780534Y-53813557D01*
X110950373Y-53762037D01*
X111016558Y-53755518D01*
X111082740Y-53749000D01*
X111421260Y-53749000D01*
X111487442Y-53755518D01*
G37*
G36*
X111487443Y-51255519D02*
G01*
X111553627Y-51262037D01*
X111723466Y-51313557D01*
X111879991Y-51397222D01*
X111915729Y-51426552D01*
X112017186Y-51509814D01*
X112100448Y-51611271D01*
X112129778Y-51647009D01*
X112213443Y-51803534D01*
X112264963Y-51973373D01*
X112282359Y-52150000D01*
X112264963Y-52326627D01*
X112213443Y-52496466D01*
X112129778Y-52652991D01*
X112100448Y-52688729D01*
X112017186Y-52790186D01*
X111915729Y-52873448D01*
X111879991Y-52902778D01*
X111723466Y-52986443D01*
X111553627Y-53037963D01*
X111487442Y-53044482D01*
X111421260Y-53051000D01*
X111082740Y-53051000D01*
X111016558Y-53044482D01*
X110950373Y-53037963D01*
X110780534Y-52986443D01*
X110624009Y-52902778D01*
X110588271Y-52873448D01*
X110486814Y-52790186D01*
X110403552Y-52688729D01*
X110374222Y-52652991D01*
X110290557Y-52496466D01*
X110239037Y-52326627D01*
X110221641Y-52150000D01*
X110239037Y-51973373D01*
X110290557Y-51803534D01*
X110374222Y-51647009D01*
X110403552Y-51611271D01*
X110486814Y-51509814D01*
X110588271Y-51426552D01*
X110624009Y-51397222D01*
X110780534Y-51313557D01*
X110950373Y-51262037D01*
X111016558Y-51255518D01*
X111082740Y-51249000D01*
X111421260Y-51249000D01*
X111487443Y-51255519D01*
G37*
G36*
X122479000Y-52053000D02*
G01*
X121277000Y-52053000D01*
X121277000Y-49451000D01*
X122479000Y-49451000D01*
X122479000Y-52053000D01*
G37*
G36*
X126479000Y-52053000D02*
G01*
X125277000Y-52053000D01*
X125277000Y-49451000D01*
X126479000Y-49451000D01*
X126479000Y-52053000D01*
G37*
G36*
X128479000Y-52053000D02*
G01*
X127277000Y-52053000D01*
X127277000Y-49451000D01*
X128479000Y-49451000D01*
X128479000Y-52053000D01*
G37*
G36*
X132479000Y-52053000D02*
G01*
X131277000Y-52053000D01*
X131277000Y-49451000D01*
X132479000Y-49451000D01*
X132479000Y-52053000D01*
G37*
G36*
X130479000Y-52053000D02*
G01*
X129277000Y-52053000D01*
X129277000Y-49451000D01*
X130479000Y-49451000D01*
X130479000Y-52053000D01*
G37*
G36*
X124479000Y-52053000D02*
G01*
X123277000Y-52053000D01*
X123277000Y-49451000D01*
X124479000Y-49451000D01*
X124479000Y-52053000D01*
G37*
G36*
X135889000Y-49653000D02*
G01*
X133287000Y-49653000D01*
X133287000Y-48451000D01*
X135889000Y-48451000D01*
X135889000Y-49653000D01*
G37*
G36*
X120489000Y-49653000D02*
G01*
X117887000Y-49653000D01*
X117887000Y-48451000D01*
X120489000Y-48451000D01*
X120489000Y-49653000D01*
G37*
G36*
X142983442Y-46737518D02*
G01*
X143049627Y-46744037D01*
X143219466Y-46795557D01*
X143375991Y-46879222D01*
X143411729Y-46908552D01*
X143513186Y-46991814D01*
X143596448Y-47093271D01*
X143625778Y-47129009D01*
X143709443Y-47285534D01*
X143760963Y-47455373D01*
X143778359Y-47632000D01*
X143760963Y-47808627D01*
X143709443Y-47978466D01*
X143625778Y-48134991D01*
X143596448Y-48170729D01*
X143513186Y-48272186D01*
X143411729Y-48355448D01*
X143375991Y-48384778D01*
X143219466Y-48468443D01*
X143049627Y-48519963D01*
X142983442Y-48526482D01*
X142917260Y-48533000D01*
X142578740Y-48533000D01*
X142512558Y-48526482D01*
X142446373Y-48519963D01*
X142276534Y-48468443D01*
X142120009Y-48384778D01*
X142084271Y-48355448D01*
X141982814Y-48272186D01*
X141899552Y-48170729D01*
X141870222Y-48134991D01*
X141786557Y-47978466D01*
X141735037Y-47808627D01*
X141717641Y-47632000D01*
X141735037Y-47455373D01*
X141786557Y-47285534D01*
X141870222Y-47129009D01*
X141899552Y-47093271D01*
X141982814Y-46991814D01*
X142084271Y-46908552D01*
X142120009Y-46879222D01*
X142276534Y-46795557D01*
X142446373Y-46744037D01*
X142512558Y-46737518D01*
X142578740Y-46731000D01*
X142917260Y-46731000D01*
X142983442Y-46737518D01*
G37*
G36*
X135889000Y-47653000D02*
G01*
X133287000Y-47653000D01*
X133287000Y-46451000D01*
X135889000Y-46451000D01*
X135889000Y-47653000D01*
G37*
G36*
X120489000Y-47653000D02*
G01*
X117887000Y-47653000D01*
X117887000Y-46451000D01*
X120489000Y-46451000D01*
X120489000Y-47653000D01*
G37*
G36*
X112135600Y-44314989D02*
G01*
X112168652Y-44325015D01*
X112199103Y-44341292D01*
X112225799Y-44363201D01*
X112247708Y-44389897D01*
X112263985Y-44420348D01*
X112274011Y-44453400D01*
X112278000Y-44493903D01*
X112278000Y-45930097D01*
X112274011Y-45970600D01*
X112263985Y-46003652D01*
X112247708Y-46034103D01*
X112225799Y-46060799D01*
X112199103Y-46082708D01*
X112168652Y-46098985D01*
X112135600Y-46109011D01*
X112095097Y-46113000D01*
X110408903Y-46113000D01*
X110368400Y-46109011D01*
X110335348Y-46098985D01*
X110304897Y-46082708D01*
X110278201Y-46060799D01*
X110256292Y-46034103D01*
X110240015Y-46003652D01*
X110229989Y-45970600D01*
X110226000Y-45930097D01*
X110226000Y-44493903D01*
X110229989Y-44453400D01*
X110240015Y-44420348D01*
X110256292Y-44389897D01*
X110278201Y-44363201D01*
X110304897Y-44341292D01*
X110335348Y-44325015D01*
X110368400Y-44314989D01*
X110408903Y-44311000D01*
X112095097Y-44311000D01*
X112135600Y-44314989D01*
G37*
G36*
X142983442Y-44237518D02*
G01*
X143049627Y-44244037D01*
X143219466Y-44295557D01*
X143219468Y-44295558D01*
X143257884Y-44316092D01*
X143375991Y-44379222D01*
X143388998Y-44389897D01*
X143513186Y-44491814D01*
X143596448Y-44593271D01*
X143625778Y-44629009D01*
X143709443Y-44785534D01*
X143760963Y-44955373D01*
X143778359Y-45132000D01*
X143760963Y-45308627D01*
X143709443Y-45478466D01*
X143625778Y-45634991D01*
X143610998Y-45653000D01*
X143513186Y-45772186D01*
X143420805Y-45848000D01*
X143375991Y-45884778D01*
X143219466Y-45968443D01*
X143049627Y-46019963D01*
X142983442Y-46026482D01*
X142917260Y-46033000D01*
X142578740Y-46033000D01*
X142512557Y-46026481D01*
X142446373Y-46019963D01*
X142276534Y-45968443D01*
X142120009Y-45884778D01*
X142075195Y-45848000D01*
X141982814Y-45772186D01*
X141885002Y-45653000D01*
X141870222Y-45634991D01*
X141786557Y-45478466D01*
X141735037Y-45308627D01*
X141717641Y-45132000D01*
X141735037Y-44955373D01*
X141786557Y-44785534D01*
X141870222Y-44629009D01*
X141899552Y-44593271D01*
X141982814Y-44491814D01*
X142107002Y-44389897D01*
X142120009Y-44379222D01*
X142238116Y-44316092D01*
X142276532Y-44295558D01*
X142276534Y-44295557D01*
X142446373Y-44244037D01*
X142512557Y-44237519D01*
X142578740Y-44231000D01*
X142917260Y-44231000D01*
X142983442Y-44237518D01*
G37*
G36*
X135889000Y-45653000D02*
G01*
X133287000Y-45653000D01*
X133287000Y-44451000D01*
X135889000Y-44451000D01*
X135889000Y-45653000D01*
G37*
G36*
X120489000Y-45653000D02*
G01*
X117887000Y-45653000D01*
X117887000Y-44451000D01*
X120489000Y-44451000D01*
X120489000Y-45653000D01*
G37*
G36*
X135889000Y-43653000D02*
G01*
X133287000Y-43653000D01*
X133287000Y-42451000D01*
X135889000Y-42451000D01*
X135889000Y-43653000D01*
G37*
G36*
X120489000Y-43653000D02*
G01*
X117887000Y-43653000D01*
X117887000Y-42451000D01*
X120489000Y-42451000D01*
X120489000Y-43653000D01*
G37*
G36*
X111487443Y-41817519D02*
G01*
X111553627Y-41824037D01*
X111723466Y-41875557D01*
X111879991Y-41959222D01*
X111915729Y-41988552D01*
X112017186Y-42071814D01*
X112100448Y-42173271D01*
X112129778Y-42209009D01*
X112213443Y-42365534D01*
X112264963Y-42535373D01*
X112282359Y-42712000D01*
X112264963Y-42888627D01*
X112213443Y-43058466D01*
X112129778Y-43214991D01*
X112100448Y-43250729D01*
X112017186Y-43352186D01*
X111915729Y-43435448D01*
X111879991Y-43464778D01*
X111723466Y-43548443D01*
X111553627Y-43599963D01*
X111487442Y-43606482D01*
X111421260Y-43613000D01*
X111082740Y-43613000D01*
X111016558Y-43606482D01*
X110950373Y-43599963D01*
X110780534Y-43548443D01*
X110624009Y-43464778D01*
X110588271Y-43435448D01*
X110486814Y-43352186D01*
X110403552Y-43250729D01*
X110374222Y-43214991D01*
X110290557Y-43058466D01*
X110239037Y-42888627D01*
X110221641Y-42712000D01*
X110239037Y-42535373D01*
X110290557Y-42365534D01*
X110374222Y-42209009D01*
X110403552Y-42173271D01*
X110486814Y-42071814D01*
X110588271Y-41988552D01*
X110624009Y-41959222D01*
X110780534Y-41875557D01*
X110950373Y-41824037D01*
X111016557Y-41817519D01*
X111082740Y-41811000D01*
X111421260Y-41811000D01*
X111487443Y-41817519D01*
G37*
G36*
X142983442Y-41737518D02*
G01*
X143049627Y-41744037D01*
X143219466Y-41795557D01*
X143375991Y-41879222D01*
X143411729Y-41908552D01*
X143513186Y-41991814D01*
X143578839Y-42071814D01*
X143625778Y-42129009D01*
X143709443Y-42285534D01*
X143760963Y-42455373D01*
X143778359Y-42632000D01*
X143760963Y-42808627D01*
X143709443Y-42978466D01*
X143625778Y-43134991D01*
X143596448Y-43170729D01*
X143513186Y-43272186D01*
X143415705Y-43352185D01*
X143375991Y-43384778D01*
X143219466Y-43468443D01*
X143049627Y-43519963D01*
X142983443Y-43526481D01*
X142917260Y-43533000D01*
X142578740Y-43533000D01*
X142512557Y-43526481D01*
X142446373Y-43519963D01*
X142276534Y-43468443D01*
X142120009Y-43384778D01*
X142080295Y-43352185D01*
X141982814Y-43272186D01*
X141899552Y-43170729D01*
X141870222Y-43134991D01*
X141786557Y-42978466D01*
X141735037Y-42808627D01*
X141717641Y-42632000D01*
X141735037Y-42455373D01*
X141786557Y-42285534D01*
X141870222Y-42129009D01*
X141917161Y-42071814D01*
X141982814Y-41991814D01*
X142084271Y-41908552D01*
X142120009Y-41879222D01*
X142276534Y-41795557D01*
X142446373Y-41744037D01*
X142512558Y-41737518D01*
X142578740Y-41731000D01*
X142917260Y-41731000D01*
X142983442Y-41737518D01*
G37*
G36*
X135889000Y-41653000D02*
G01*
X133287000Y-41653000D01*
X133287000Y-40451000D01*
X135889000Y-40451000D01*
X135889000Y-41653000D01*
G37*
G36*
X120489000Y-41653000D02*
G01*
X117887000Y-41653000D01*
X117887000Y-40451000D01*
X120489000Y-40451000D01*
X120489000Y-41653000D01*
G37*
G36*
X111487443Y-39317519D02*
G01*
X111553627Y-39324037D01*
X111723466Y-39375557D01*
X111879991Y-39459222D01*
X111915729Y-39488552D01*
X112017186Y-39571814D01*
X112100448Y-39673271D01*
X112129778Y-39709009D01*
X112213443Y-39865534D01*
X112264963Y-40035373D01*
X112282359Y-40212000D01*
X112264963Y-40388627D01*
X112213443Y-40558466D01*
X112129778Y-40714991D01*
X112100448Y-40750729D01*
X112017186Y-40852186D01*
X111940370Y-40915226D01*
X111879991Y-40964778D01*
X111801728Y-41006611D01*
X111759821Y-41029011D01*
X111723466Y-41048443D01*
X111553627Y-41099963D01*
X111487442Y-41106482D01*
X111421260Y-41113000D01*
X111082740Y-41113000D01*
X111016558Y-41106482D01*
X110950373Y-41099963D01*
X110780534Y-41048443D01*
X110744180Y-41029011D01*
X110702272Y-41006611D01*
X110624009Y-40964778D01*
X110563630Y-40915226D01*
X110486814Y-40852186D01*
X110403552Y-40750729D01*
X110374222Y-40714991D01*
X110290557Y-40558466D01*
X110239037Y-40388627D01*
X110221641Y-40212000D01*
X110239037Y-40035373D01*
X110290557Y-39865534D01*
X110374222Y-39709009D01*
X110403552Y-39673271D01*
X110486814Y-39571814D01*
X110588271Y-39488552D01*
X110624009Y-39459222D01*
X110780534Y-39375557D01*
X110950373Y-39324037D01*
X111016557Y-39317519D01*
X111082740Y-39311000D01*
X111421260Y-39311000D01*
X111487443Y-39317519D01*
G37*
G36*
X143631600Y-39234989D02*
G01*
X143664652Y-39245015D01*
X143695103Y-39261292D01*
X143721799Y-39283201D01*
X143743708Y-39309897D01*
X143759985Y-39340348D01*
X143770011Y-39373400D01*
X143774000Y-39413903D01*
X143774000Y-40850097D01*
X143770011Y-40890600D01*
X143759985Y-40923652D01*
X143743708Y-40954103D01*
X143721799Y-40980799D01*
X143695103Y-41002708D01*
X143664652Y-41018985D01*
X143631600Y-41029011D01*
X143591097Y-41033000D01*
X141904903Y-41033000D01*
X141864400Y-41029011D01*
X141831348Y-41018985D01*
X141800897Y-41002708D01*
X141774201Y-40980799D01*
X141752292Y-40954103D01*
X141736015Y-40923652D01*
X141725989Y-40890600D01*
X141722000Y-40850097D01*
X141722000Y-39413903D01*
X141725989Y-39373400D01*
X141736015Y-39340348D01*
X141752292Y-39309897D01*
X141774201Y-39283201D01*
X141800897Y-39261292D01*
X141831348Y-39245015D01*
X141864400Y-39234989D01*
X141904903Y-39231000D01*
X143591097Y-39231000D01*
X143631600Y-39234989D01*
G37*
G36*
X120489000Y-39653000D02*
G01*
X117887000Y-39653000D01*
X117887000Y-38451000D01*
X120489000Y-38451000D01*
X120489000Y-39653000D01*
G37*
G36*
X135889000Y-39653000D02*
G01*
X133287000Y-39653000D01*
X133287000Y-38451000D01*
X135889000Y-38451000D01*
X135889000Y-39653000D01*
G37*
G36*
X111558564Y-36581389D02*
G01*
X111749833Y-36660615D01*
X111749835Y-36660616D01*
X111921973Y-36775635D01*
X112068365Y-36922027D01*
X112183385Y-37094167D01*
X112262611Y-37285436D01*
X112303000Y-37488484D01*
X112303000Y-37695516D01*
X112262611Y-37898564D01*
X112183385Y-38089833D01*
X112183384Y-38089835D01*
X112068365Y-38261973D01*
X111921973Y-38408365D01*
X111749835Y-38523384D01*
X111749834Y-38523385D01*
X111749833Y-38523385D01*
X111558564Y-38602611D01*
X111355516Y-38643000D01*
X111148484Y-38643000D01*
X110945436Y-38602611D01*
X110754167Y-38523385D01*
X110754166Y-38523385D01*
X110754165Y-38523384D01*
X110582027Y-38408365D01*
X110435635Y-38261973D01*
X110320616Y-38089835D01*
X110320615Y-38089833D01*
X110241389Y-37898564D01*
X110201000Y-37695516D01*
X110201000Y-37488484D01*
X110241389Y-37285436D01*
X110320615Y-37094167D01*
X110435635Y-36922027D01*
X110582027Y-36775635D01*
X110754165Y-36660616D01*
X110754167Y-36660615D01*
X110945436Y-36581389D01*
X111148484Y-36541000D01*
X111355516Y-36541000D01*
X111558564Y-36581389D01*
G37*
G36*
X120489000Y-37653000D02*
G01*
X117887000Y-37653000D01*
X117887000Y-36451000D01*
X120489000Y-36451000D01*
X120489000Y-37653000D01*
G37*
G36*
X135889000Y-37653000D02*
G01*
X133287000Y-37653000D01*
X133287000Y-36451000D01*
X135889000Y-36451000D01*
X135889000Y-37653000D01*
G37*
G36*
X111558564Y-34041389D02*
G01*
X111749833Y-34120615D01*
X111749835Y-34120616D01*
X111921973Y-34235635D01*
X112068365Y-34382027D01*
X112183385Y-34554167D01*
X112262611Y-34745436D01*
X112303000Y-34948484D01*
X112303000Y-35155516D01*
X112262611Y-35358564D01*
X112226808Y-35445000D01*
X112183384Y-35549835D01*
X112068365Y-35721973D01*
X111921973Y-35868365D01*
X111749835Y-35983384D01*
X111749834Y-35983385D01*
X111749833Y-35983385D01*
X111558564Y-36062611D01*
X111355516Y-36103000D01*
X111148484Y-36103000D01*
X110945436Y-36062611D01*
X110754167Y-35983385D01*
X110754166Y-35983385D01*
X110754165Y-35983384D01*
X110582027Y-35868365D01*
X110435635Y-35721973D01*
X110320616Y-35549835D01*
X110277192Y-35445000D01*
X110241389Y-35358564D01*
X110201000Y-35155516D01*
X110201000Y-34948484D01*
X110241389Y-34745436D01*
X110320615Y-34554167D01*
X110435635Y-34382027D01*
X110582027Y-34235635D01*
X110754165Y-34120616D01*
X110754167Y-34120615D01*
X110945436Y-34041389D01*
X111148484Y-34001000D01*
X111355516Y-34001000D01*
X111558564Y-34041389D01*
G37*
G36*
X135889000Y-35653000D02*
G01*
X133287000Y-35653000D01*
X133287000Y-34451000D01*
X135889000Y-34451000D01*
X135889000Y-35653000D01*
G37*
G36*
X120489000Y-35653000D02*
G01*
X117887000Y-35653000D01*
X117887000Y-34451000D01*
X120489000Y-34451000D01*
X120489000Y-35653000D01*
G37*
G36*
X142861512Y-33647927D02*
G01*
X143010812Y-33677624D01*
X143174784Y-33745544D01*
X143322354Y-33844147D01*
X143447853Y-33969646D01*
X143546456Y-34117216D01*
X143614376Y-34281188D01*
X143649000Y-34455259D01*
X143649000Y-34632741D01*
X143614376Y-34806812D01*
X143546456Y-34970784D01*
X143447853Y-35118354D01*
X143322354Y-35243853D01*
X143174784Y-35342456D01*
X143010812Y-35410376D01*
X142861512Y-35440073D01*
X142836742Y-35445000D01*
X142659258Y-35445000D01*
X142634488Y-35440073D01*
X142485188Y-35410376D01*
X142321216Y-35342456D01*
X142173646Y-35243853D01*
X142048147Y-35118354D01*
X141949544Y-34970784D01*
X141881624Y-34806812D01*
X141847000Y-34632741D01*
X141847000Y-34455259D01*
X141881624Y-34281188D01*
X141949544Y-34117216D01*
X142048147Y-33969646D01*
X142173646Y-33844147D01*
X142321216Y-33745544D01*
X142485188Y-33677624D01*
X142634488Y-33647927D01*
X142659258Y-33643000D01*
X142836742Y-33643000D01*
X142861512Y-33647927D01*
G37*
G36*
X112135600Y-31614989D02*
G01*
X112168652Y-31625015D01*
X112199103Y-31641292D01*
X112225799Y-31663201D01*
X112247708Y-31689897D01*
X112263985Y-31720348D01*
X112274011Y-31753400D01*
X112278000Y-31793903D01*
X112278000Y-33230097D01*
X112274011Y-33270600D01*
X112263985Y-33303652D01*
X112247708Y-33334103D01*
X112225799Y-33360799D01*
X112199103Y-33382708D01*
X112168652Y-33398985D01*
X112135600Y-33409011D01*
X112095097Y-33413000D01*
X110408903Y-33413000D01*
X110368400Y-33409011D01*
X110335348Y-33398985D01*
X110304897Y-33382708D01*
X110278201Y-33360799D01*
X110256292Y-33334103D01*
X110240015Y-33303652D01*
X110229989Y-33270600D01*
X110226000Y-33230097D01*
X110226000Y-31793903D01*
X110229989Y-31753400D01*
X110240015Y-31720348D01*
X110256292Y-31689897D01*
X110278201Y-31663201D01*
X110304897Y-31641292D01*
X110335348Y-31625015D01*
X110368400Y-31614989D01*
X110408903Y-31611000D01*
X112095097Y-31611000D01*
X112135600Y-31614989D01*
G37*
G36*
X142861512Y-31107927D02*
G01*
X143010812Y-31137624D01*
X143174784Y-31205544D01*
X143322354Y-31304147D01*
X143447853Y-31429646D01*
X143546456Y-31577216D01*
X143614376Y-31741188D01*
X143649000Y-31915259D01*
X143649000Y-32092741D01*
X143614376Y-32266812D01*
X143546456Y-32430784D01*
X143447853Y-32578354D01*
X143322354Y-32703853D01*
X143174784Y-32802456D01*
X143010812Y-32870376D01*
X142861512Y-32900073D01*
X142836742Y-32905000D01*
X142659258Y-32905000D01*
X142634488Y-32900073D01*
X142485188Y-32870376D01*
X142321216Y-32802456D01*
X142173646Y-32703853D01*
X142048147Y-32578354D01*
X141949544Y-32430784D01*
X141881624Y-32266812D01*
X141847000Y-32092741D01*
X141847000Y-31915259D01*
X141881624Y-31741188D01*
X141949544Y-31577216D01*
X142048147Y-31429646D01*
X142173646Y-31304147D01*
X142321216Y-31205544D01*
X142485188Y-31137624D01*
X142634488Y-31107927D01*
X142659258Y-31103000D01*
X142836742Y-31103000D01*
X142861512Y-31107927D01*
G37*
G36*
X111487443Y-29117519D02*
G01*
X111553627Y-29124037D01*
X111723466Y-29175557D01*
X111879991Y-29259222D01*
X111915729Y-29288552D01*
X112017186Y-29371814D01*
X112100448Y-29473271D01*
X112129778Y-29509009D01*
X112213443Y-29665534D01*
X112264963Y-29835373D01*
X112282359Y-30012000D01*
X112264963Y-30188627D01*
X112213902Y-30356952D01*
X112213442Y-30358468D01*
X112171611Y-30436728D01*
X112129778Y-30514991D01*
X112100448Y-30550729D01*
X112017186Y-30652186D01*
X111915729Y-30735448D01*
X111879991Y-30764778D01*
X111723466Y-30848443D01*
X111553627Y-30899963D01*
X111487443Y-30906481D01*
X111421260Y-30913000D01*
X111082740Y-30913000D01*
X111016557Y-30906481D01*
X110950373Y-30899963D01*
X110780534Y-30848443D01*
X110624009Y-30764778D01*
X110588271Y-30735448D01*
X110486814Y-30652186D01*
X110403552Y-30550729D01*
X110374222Y-30514991D01*
X110332389Y-30436728D01*
X110290558Y-30358468D01*
X110290098Y-30356952D01*
X110239037Y-30188627D01*
X110221641Y-30012000D01*
X110239037Y-29835373D01*
X110290557Y-29665534D01*
X110374222Y-29509009D01*
X110403552Y-29473271D01*
X110486814Y-29371814D01*
X110588271Y-29288552D01*
X110624009Y-29259222D01*
X110780534Y-29175557D01*
X110950373Y-29124037D01*
X111016557Y-29117519D01*
X111082740Y-29111000D01*
X111421260Y-29111000D01*
X111487443Y-29117519D01*
G37*
G36*
X143336578Y-28571048D02*
G01*
X143409249Y-28593093D01*
X143476225Y-28628892D01*
X143534930Y-28677070D01*
X143583108Y-28735775D01*
X143618907Y-28802751D01*
X143640952Y-28875422D01*
X143649000Y-28957140D01*
X143649000Y-29970860D01*
X143640952Y-30052578D01*
X143618907Y-30125249D01*
X143583108Y-30192225D01*
X143534930Y-30250930D01*
X143476225Y-30299108D01*
X143409249Y-30334907D01*
X143336578Y-30356952D01*
X143254860Y-30365000D01*
X142241140Y-30365000D01*
X142159422Y-30356952D01*
X142086751Y-30334907D01*
X142019775Y-30299108D01*
X141961070Y-30250930D01*
X141912892Y-30192225D01*
X141877093Y-30125249D01*
X141855048Y-30052578D01*
X141847000Y-29970860D01*
X141847000Y-28957140D01*
X141855048Y-28875422D01*
X141877093Y-28802751D01*
X141912892Y-28735775D01*
X141961070Y-28677070D01*
X142019775Y-28628892D01*
X142086751Y-28593093D01*
X142159422Y-28571048D01*
X142241140Y-28563000D01*
X143254860Y-28563000D01*
X143336578Y-28571048D01*
G37*
G36*
X111487443Y-26617519D02*
G01*
X111553627Y-26624037D01*
X111723466Y-26675557D01*
X111879991Y-26759222D01*
X111915729Y-26788552D01*
X112017186Y-26871814D01*
X112100448Y-26973271D01*
X112129778Y-27009009D01*
X112213443Y-27165534D01*
X112264963Y-27335373D01*
X112282359Y-27512000D01*
X112264963Y-27688627D01*
X112213443Y-27858466D01*
X112129778Y-28014991D01*
X112100448Y-28050729D01*
X112017186Y-28152186D01*
X111915729Y-28235448D01*
X111879991Y-28264778D01*
X111723466Y-28348443D01*
X111553627Y-28399963D01*
X111487443Y-28406481D01*
X111421260Y-28413000D01*
X111082740Y-28413000D01*
X111016557Y-28406481D01*
X110950373Y-28399963D01*
X110780534Y-28348443D01*
X110624009Y-28264778D01*
X110588271Y-28235448D01*
X110486814Y-28152186D01*
X110403552Y-28050729D01*
X110374222Y-28014991D01*
X110290557Y-27858466D01*
X110239037Y-27688627D01*
X110221641Y-27512000D01*
X110239037Y-27335373D01*
X110290557Y-27165534D01*
X110374222Y-27009009D01*
X110403552Y-26973271D01*
X110486814Y-26871814D01*
X110588271Y-26788552D01*
X110624009Y-26759222D01*
X110780534Y-26675557D01*
X110950373Y-26624037D01*
X111016557Y-26617519D01*
X111082740Y-26611000D01*
X111421260Y-26611000D01*
X111487443Y-26617519D01*
G37*
G36*
X142861512Y-26027927D02*
G01*
X143010812Y-26057624D01*
X143174784Y-26125544D01*
X143322354Y-26224147D01*
X143447853Y-26349646D01*
X143546456Y-26497216D01*
X143614376Y-26661188D01*
X143649000Y-26835259D01*
X143649000Y-27012741D01*
X143614376Y-27186812D01*
X143546456Y-27350784D01*
X143447853Y-27498354D01*
X143322354Y-27623853D01*
X143174784Y-27722456D01*
X143010812Y-27790376D01*
X142861512Y-27820073D01*
X142836742Y-27825000D01*
X142659258Y-27825000D01*
X142634488Y-27820073D01*
X142485188Y-27790376D01*
X142321216Y-27722456D01*
X142173646Y-27623853D01*
X142048147Y-27498354D01*
X141949544Y-27350784D01*
X141881624Y-27186812D01*
X141847000Y-27012741D01*
X141847000Y-26835259D01*
X141881624Y-26661188D01*
X141949544Y-26497216D01*
X142048147Y-26349646D01*
X142173646Y-26224147D01*
X142321216Y-26125544D01*
X142485188Y-26057624D01*
X142634488Y-26027927D01*
X142659258Y-26023000D01*
X142836742Y-26023000D01*
X142861512Y-26027927D01*
G37*
G36*
X142861512Y-23487927D02*
G01*
X143010812Y-23517624D01*
X143174784Y-23585544D01*
X143322354Y-23684147D01*
X143447853Y-23809646D01*
X143546456Y-23957216D01*
X143614376Y-24121188D01*
X143649000Y-24295259D01*
X143649000Y-24472741D01*
X143614376Y-24646812D01*
X143546456Y-24810784D01*
X143447853Y-24958354D01*
X143322354Y-25083853D01*
X143174784Y-25182456D01*
X143010812Y-25250376D01*
X142861512Y-25280073D01*
X142836742Y-25285000D01*
X142659258Y-25285000D01*
X142634488Y-25280073D01*
X142485188Y-25250376D01*
X142321216Y-25182456D01*
X142173646Y-25083853D01*
X142048147Y-24958354D01*
X141949544Y-24810784D01*
X141881624Y-24646812D01*
X141847000Y-24472741D01*
X141847000Y-24295259D01*
X141881624Y-24121188D01*
X141949544Y-23957216D01*
X142048147Y-23809646D01*
X142173646Y-23684147D01*
X142321216Y-23585544D01*
X142485188Y-23517624D01*
X142634488Y-23487927D01*
X142659258Y-23483000D01*
X142836742Y-23483000D01*
X142861512Y-23487927D01*
G37*
G36*
X111377487Y-20846996D02*
G01*
X111609260Y-20943000D01*
X111614255Y-20945069D01*
X111764627Y-21045544D01*
X111827339Y-21087447D01*
X112008553Y-21268661D01*
X112150932Y-21481747D01*
X112249004Y-21718513D01*
X112299000Y-21969861D01*
X112299000Y-22226139D01*
X112249004Y-22477487D01*
X112221514Y-22543853D01*
X112150931Y-22714255D01*
X112008553Y-22927339D01*
X111827339Y-23108553D01*
X111614255Y-23250931D01*
X111614254Y-23250932D01*
X111614253Y-23250932D01*
X111377487Y-23349004D01*
X111126139Y-23399000D01*
X110869861Y-23399000D01*
X110618513Y-23349004D01*
X110381747Y-23250932D01*
X110381746Y-23250932D01*
X110381745Y-23250931D01*
X110168661Y-23108553D01*
X109987447Y-22927339D01*
X109845069Y-22714255D01*
X109774486Y-22543853D01*
X109746996Y-22477487D01*
X109697000Y-22226139D01*
X109697000Y-21969861D01*
X109746996Y-21718513D01*
X109845068Y-21481747D01*
X109987447Y-21268661D01*
X110168661Y-21087447D01*
X110231373Y-21045544D01*
X110381745Y-20945069D01*
X110386740Y-20943000D01*
X110618513Y-20846996D01*
X110869861Y-20797000D01*
X111126139Y-20797000D01*
X111377487Y-20846996D01*
G37*
G36*
X126635000Y-22949000D02*
G01*
X124353000Y-22949000D01*
X124353000Y-21247000D01*
X126635000Y-21247000D01*
X126635000Y-22949000D01*
G37*
G36*
X117455000Y-22949000D02*
G01*
X115173000Y-22949000D01*
X115173000Y-21247000D01*
X117455000Y-21247000D01*
X117455000Y-22949000D01*
G37*
G36*
X130409000Y-22949000D02*
G01*
X128127000Y-22949000D01*
X128127000Y-21247000D01*
X130409000Y-21247000D01*
X130409000Y-22949000D01*
G37*
G36*
X139589000Y-22949000D02*
G01*
X137307000Y-22949000D01*
X137307000Y-21247000D01*
X139589000Y-21247000D01*
X139589000Y-22949000D01*
G37*
G36*
X142847138Y-20945068D02*
G01*
X143010812Y-20977624D01*
X143174784Y-21045544D01*
X143322354Y-21144147D01*
X143447853Y-21269646D01*
X143546456Y-21417216D01*
X143614376Y-21581188D01*
X143649000Y-21755259D01*
X143649000Y-21932741D01*
X143614376Y-22106812D01*
X143546456Y-22270784D01*
X143447853Y-22418354D01*
X143322354Y-22543853D01*
X143174784Y-22642456D01*
X143010812Y-22710376D01*
X142861512Y-22740073D01*
X142836742Y-22745000D01*
X142659258Y-22745000D01*
X142634488Y-22740073D01*
X142485188Y-22710376D01*
X142321216Y-22642456D01*
X142173646Y-22543853D01*
X142048147Y-22418354D01*
X141949544Y-22270784D01*
X141881624Y-22106812D01*
X141847000Y-21932741D01*
X141847000Y-21755259D01*
X141881624Y-21581188D01*
X141949544Y-21417216D01*
X142048147Y-21269646D01*
X142173646Y-21144147D01*
X142321216Y-21045544D01*
X142485188Y-20977624D01*
X142648862Y-20945068D01*
X142659258Y-20943000D01*
X142836742Y-20943000D01*
X142847138Y-20945068D01*
G37*
M02*
