G04 #@! TF.GenerationSoftware,KiCad,Pcbnew,5.1.5*
G04 #@! TF.CreationDate,2020-01-13T20:05:45+01:00*
G04 #@! TF.ProjectId,ESP8266_Uni,45535038-3236-4365-9f55-6e692e6b6963,rev?*
G04 #@! TF.SameCoordinates,Original*
G04 #@! TF.FileFunction,Copper,L1,Top*
G04 #@! TF.FilePolarity,Positive*
%FSLAX46Y46*%
G04 Gerber Fmt 4.6, Leading zero omitted, Abs format (unit mm)*
G04 Created by KiCad (PCBNEW 5.1.5) date 2020-01-13 20:05:45*
%MOMM*%
%LPD*%
G04 APERTURE LIST*
%ADD10C,2.000000*%
%ADD11R,2.500000X1.100000*%
%ADD12R,1.100000X2.500000*%
%ADD13C,0.100000*%
%ADD14O,1.700000X1.950000*%
%ADD15O,2.000000X1.700000*%
%ADD16O,1.950000X1.700000*%
%ADD17R,2.180000X1.600000*%
%ADD18C,1.700000*%
%ADD19O,1.700000X1.700000*%
%ADD20C,0.800000*%
%ADD21C,0.250000*%
G04 APERTURE END LIST*
D10*
X111252000Y-37592000D03*
X111252000Y-35052000D03*
D11*
X119188000Y-35052000D03*
X119188000Y-37052000D03*
X119188000Y-39052000D03*
X119188000Y-41052000D03*
X119188000Y-43052000D03*
X119188000Y-45052000D03*
X119188000Y-47052000D03*
X119188000Y-49052000D03*
X134588000Y-49052000D03*
X134588000Y-47052000D03*
X134588000Y-45052000D03*
X134588000Y-43052000D03*
X134588000Y-41052000D03*
X134588000Y-39052000D03*
X134588000Y-37052000D03*
X134588000Y-35052000D03*
D12*
X121878000Y-50752000D03*
X123878000Y-50752000D03*
X125878000Y-50752000D03*
X127878000Y-50752000D03*
X129878000Y-50752000D03*
X131878000Y-50752000D03*
G04 #@! TA.AperFunction,ComponentPad*
D13*
G36*
X134228504Y-56430204D02*
G01*
X134252773Y-56433804D01*
X134276571Y-56439765D01*
X134299671Y-56448030D01*
X134321849Y-56458520D01*
X134342893Y-56471133D01*
X134362598Y-56485747D01*
X134380777Y-56502223D01*
X134397253Y-56520402D01*
X134411867Y-56540107D01*
X134424480Y-56561151D01*
X134434970Y-56583329D01*
X134443235Y-56606429D01*
X134449196Y-56630227D01*
X134452796Y-56654496D01*
X134454000Y-56679000D01*
X134454000Y-58129000D01*
X134452796Y-58153504D01*
X134449196Y-58177773D01*
X134443235Y-58201571D01*
X134434970Y-58224671D01*
X134424480Y-58246849D01*
X134411867Y-58267893D01*
X134397253Y-58287598D01*
X134380777Y-58305777D01*
X134362598Y-58322253D01*
X134342893Y-58336867D01*
X134321849Y-58349480D01*
X134299671Y-58359970D01*
X134276571Y-58368235D01*
X134252773Y-58374196D01*
X134228504Y-58377796D01*
X134204000Y-58379000D01*
X133004000Y-58379000D01*
X132979496Y-58377796D01*
X132955227Y-58374196D01*
X132931429Y-58368235D01*
X132908329Y-58359970D01*
X132886151Y-58349480D01*
X132865107Y-58336867D01*
X132845402Y-58322253D01*
X132827223Y-58305777D01*
X132810747Y-58287598D01*
X132796133Y-58267893D01*
X132783520Y-58246849D01*
X132773030Y-58224671D01*
X132764765Y-58201571D01*
X132758804Y-58177773D01*
X132755204Y-58153504D01*
X132754000Y-58129000D01*
X132754000Y-56679000D01*
X132755204Y-56654496D01*
X132758804Y-56630227D01*
X132764765Y-56606429D01*
X132773030Y-56583329D01*
X132783520Y-56561151D01*
X132796133Y-56540107D01*
X132810747Y-56520402D01*
X132827223Y-56502223D01*
X132845402Y-56485747D01*
X132865107Y-56471133D01*
X132886151Y-56458520D01*
X132908329Y-56448030D01*
X132931429Y-56439765D01*
X132955227Y-56433804D01*
X132979496Y-56430204D01*
X133004000Y-56429000D01*
X134204000Y-56429000D01*
X134228504Y-56430204D01*
G37*
G04 #@! TD.AperFunction*
D14*
X131104000Y-57404000D03*
X128604000Y-57404000D03*
X126104000Y-57404000D03*
X123604000Y-57404000D03*
X121104000Y-57404000D03*
G04 #@! TA.AperFunction,ComponentPad*
D13*
G36*
X143522504Y-54015204D02*
G01*
X143546773Y-54018804D01*
X143570571Y-54024765D01*
X143593671Y-54033030D01*
X143615849Y-54043520D01*
X143636893Y-54056133D01*
X143656598Y-54070747D01*
X143674777Y-54087223D01*
X143691253Y-54105402D01*
X143705867Y-54125107D01*
X143718480Y-54146151D01*
X143728970Y-54168329D01*
X143737235Y-54191429D01*
X143743196Y-54215227D01*
X143746796Y-54239496D01*
X143748000Y-54264000D01*
X143748000Y-55464000D01*
X143746796Y-55488504D01*
X143743196Y-55512773D01*
X143737235Y-55536571D01*
X143728970Y-55559671D01*
X143718480Y-55581849D01*
X143705867Y-55602893D01*
X143691253Y-55622598D01*
X143674777Y-55640777D01*
X143656598Y-55657253D01*
X143636893Y-55671867D01*
X143615849Y-55684480D01*
X143593671Y-55694970D01*
X143570571Y-55703235D01*
X143546773Y-55709196D01*
X143522504Y-55712796D01*
X143498000Y-55714000D01*
X141998000Y-55714000D01*
X141973496Y-55712796D01*
X141949227Y-55709196D01*
X141925429Y-55703235D01*
X141902329Y-55694970D01*
X141880151Y-55684480D01*
X141859107Y-55671867D01*
X141839402Y-55657253D01*
X141821223Y-55640777D01*
X141804747Y-55622598D01*
X141790133Y-55602893D01*
X141777520Y-55581849D01*
X141767030Y-55559671D01*
X141758765Y-55536571D01*
X141752804Y-55512773D01*
X141749204Y-55488504D01*
X141748000Y-55464000D01*
X141748000Y-54264000D01*
X141749204Y-54239496D01*
X141752804Y-54215227D01*
X141758765Y-54191429D01*
X141767030Y-54168329D01*
X141777520Y-54146151D01*
X141790133Y-54125107D01*
X141804747Y-54105402D01*
X141821223Y-54087223D01*
X141839402Y-54070747D01*
X141859107Y-54056133D01*
X141880151Y-54043520D01*
X141902329Y-54033030D01*
X141925429Y-54024765D01*
X141949227Y-54018804D01*
X141973496Y-54015204D01*
X141998000Y-54014000D01*
X143498000Y-54014000D01*
X143522504Y-54015204D01*
G37*
G04 #@! TD.AperFunction*
D15*
X142748000Y-57364000D03*
G04 #@! TA.AperFunction,ComponentPad*
D13*
G36*
X143497504Y-39283204D02*
G01*
X143521773Y-39286804D01*
X143545571Y-39292765D01*
X143568671Y-39301030D01*
X143590849Y-39311520D01*
X143611893Y-39324133D01*
X143631598Y-39338747D01*
X143649777Y-39355223D01*
X143666253Y-39373402D01*
X143680867Y-39393107D01*
X143693480Y-39414151D01*
X143703970Y-39436329D01*
X143712235Y-39459429D01*
X143718196Y-39483227D01*
X143721796Y-39507496D01*
X143723000Y-39532000D01*
X143723000Y-40732000D01*
X143721796Y-40756504D01*
X143718196Y-40780773D01*
X143712235Y-40804571D01*
X143703970Y-40827671D01*
X143693480Y-40849849D01*
X143680867Y-40870893D01*
X143666253Y-40890598D01*
X143649777Y-40908777D01*
X143631598Y-40925253D01*
X143611893Y-40939867D01*
X143590849Y-40952480D01*
X143568671Y-40962970D01*
X143545571Y-40971235D01*
X143521773Y-40977196D01*
X143497504Y-40980796D01*
X143473000Y-40982000D01*
X142023000Y-40982000D01*
X141998496Y-40980796D01*
X141974227Y-40977196D01*
X141950429Y-40971235D01*
X141927329Y-40962970D01*
X141905151Y-40952480D01*
X141884107Y-40939867D01*
X141864402Y-40925253D01*
X141846223Y-40908777D01*
X141829747Y-40890598D01*
X141815133Y-40870893D01*
X141802520Y-40849849D01*
X141792030Y-40827671D01*
X141783765Y-40804571D01*
X141777804Y-40780773D01*
X141774204Y-40756504D01*
X141773000Y-40732000D01*
X141773000Y-39532000D01*
X141774204Y-39507496D01*
X141777804Y-39483227D01*
X141783765Y-39459429D01*
X141792030Y-39436329D01*
X141802520Y-39414151D01*
X141815133Y-39393107D01*
X141829747Y-39373402D01*
X141846223Y-39355223D01*
X141864402Y-39338747D01*
X141884107Y-39324133D01*
X141905151Y-39311520D01*
X141927329Y-39301030D01*
X141950429Y-39292765D01*
X141974227Y-39286804D01*
X141998496Y-39283204D01*
X142023000Y-39282000D01*
X143473000Y-39282000D01*
X143497504Y-39283204D01*
G37*
G04 #@! TD.AperFunction*
D16*
X142748000Y-42632000D03*
X142748000Y-45132000D03*
X142748000Y-47632000D03*
G04 #@! TA.AperFunction,ComponentPad*
D13*
G36*
X112001504Y-44363204D02*
G01*
X112025773Y-44366804D01*
X112049571Y-44372765D01*
X112072671Y-44381030D01*
X112094849Y-44391520D01*
X112115893Y-44404133D01*
X112135598Y-44418747D01*
X112153777Y-44435223D01*
X112170253Y-44453402D01*
X112184867Y-44473107D01*
X112197480Y-44494151D01*
X112207970Y-44516329D01*
X112216235Y-44539429D01*
X112222196Y-44563227D01*
X112225796Y-44587496D01*
X112227000Y-44612000D01*
X112227000Y-45812000D01*
X112225796Y-45836504D01*
X112222196Y-45860773D01*
X112216235Y-45884571D01*
X112207970Y-45907671D01*
X112197480Y-45929849D01*
X112184867Y-45950893D01*
X112170253Y-45970598D01*
X112153777Y-45988777D01*
X112135598Y-46005253D01*
X112115893Y-46019867D01*
X112094849Y-46032480D01*
X112072671Y-46042970D01*
X112049571Y-46051235D01*
X112025773Y-46057196D01*
X112001504Y-46060796D01*
X111977000Y-46062000D01*
X110527000Y-46062000D01*
X110502496Y-46060796D01*
X110478227Y-46057196D01*
X110454429Y-46051235D01*
X110431329Y-46042970D01*
X110409151Y-46032480D01*
X110388107Y-46019867D01*
X110368402Y-46005253D01*
X110350223Y-45988777D01*
X110333747Y-45970598D01*
X110319133Y-45950893D01*
X110306520Y-45929849D01*
X110296030Y-45907671D01*
X110287765Y-45884571D01*
X110281804Y-45860773D01*
X110278204Y-45836504D01*
X110277000Y-45812000D01*
X110277000Y-44612000D01*
X110278204Y-44587496D01*
X110281804Y-44563227D01*
X110287765Y-44539429D01*
X110296030Y-44516329D01*
X110306520Y-44494151D01*
X110319133Y-44473107D01*
X110333747Y-44453402D01*
X110350223Y-44435223D01*
X110368402Y-44418747D01*
X110388107Y-44404133D01*
X110409151Y-44391520D01*
X110431329Y-44381030D01*
X110454429Y-44372765D01*
X110478227Y-44366804D01*
X110502496Y-44363204D01*
X110527000Y-44362000D01*
X111977000Y-44362000D01*
X112001504Y-44363204D01*
G37*
G04 #@! TD.AperFunction*
D16*
X111252000Y-42712000D03*
X111252000Y-40212000D03*
X111252000Y-52150000D03*
X111252000Y-54650000D03*
G04 #@! TA.AperFunction,ComponentPad*
D13*
G36*
X112001504Y-56301204D02*
G01*
X112025773Y-56304804D01*
X112049571Y-56310765D01*
X112072671Y-56319030D01*
X112094849Y-56329520D01*
X112115893Y-56342133D01*
X112135598Y-56356747D01*
X112153777Y-56373223D01*
X112170253Y-56391402D01*
X112184867Y-56411107D01*
X112197480Y-56432151D01*
X112207970Y-56454329D01*
X112216235Y-56477429D01*
X112222196Y-56501227D01*
X112225796Y-56525496D01*
X112227000Y-56550000D01*
X112227000Y-57750000D01*
X112225796Y-57774504D01*
X112222196Y-57798773D01*
X112216235Y-57822571D01*
X112207970Y-57845671D01*
X112197480Y-57867849D01*
X112184867Y-57888893D01*
X112170253Y-57908598D01*
X112153777Y-57926777D01*
X112135598Y-57943253D01*
X112115893Y-57957867D01*
X112094849Y-57970480D01*
X112072671Y-57980970D01*
X112049571Y-57989235D01*
X112025773Y-57995196D01*
X112001504Y-57998796D01*
X111977000Y-58000000D01*
X110527000Y-58000000D01*
X110502496Y-57998796D01*
X110478227Y-57995196D01*
X110454429Y-57989235D01*
X110431329Y-57980970D01*
X110409151Y-57970480D01*
X110388107Y-57957867D01*
X110368402Y-57943253D01*
X110350223Y-57926777D01*
X110333747Y-57908598D01*
X110319133Y-57888893D01*
X110306520Y-57867849D01*
X110296030Y-57845671D01*
X110287765Y-57822571D01*
X110281804Y-57798773D01*
X110278204Y-57774504D01*
X110277000Y-57750000D01*
X110277000Y-56550000D01*
X110278204Y-56525496D01*
X110281804Y-56501227D01*
X110287765Y-56477429D01*
X110296030Y-56454329D01*
X110306520Y-56432151D01*
X110319133Y-56411107D01*
X110333747Y-56391402D01*
X110350223Y-56373223D01*
X110368402Y-56356747D01*
X110388107Y-56342133D01*
X110409151Y-56329520D01*
X110431329Y-56319030D01*
X110454429Y-56310765D01*
X110478227Y-56304804D01*
X110502496Y-56301204D01*
X110527000Y-56300000D01*
X111977000Y-56300000D01*
X112001504Y-56301204D01*
G37*
G04 #@! TD.AperFunction*
G04 #@! TA.AperFunction,ComponentPad*
G36*
X112001504Y-31663204D02*
G01*
X112025773Y-31666804D01*
X112049571Y-31672765D01*
X112072671Y-31681030D01*
X112094849Y-31691520D01*
X112115893Y-31704133D01*
X112135598Y-31718747D01*
X112153777Y-31735223D01*
X112170253Y-31753402D01*
X112184867Y-31773107D01*
X112197480Y-31794151D01*
X112207970Y-31816329D01*
X112216235Y-31839429D01*
X112222196Y-31863227D01*
X112225796Y-31887496D01*
X112227000Y-31912000D01*
X112227000Y-33112000D01*
X112225796Y-33136504D01*
X112222196Y-33160773D01*
X112216235Y-33184571D01*
X112207970Y-33207671D01*
X112197480Y-33229849D01*
X112184867Y-33250893D01*
X112170253Y-33270598D01*
X112153777Y-33288777D01*
X112135598Y-33305253D01*
X112115893Y-33319867D01*
X112094849Y-33332480D01*
X112072671Y-33342970D01*
X112049571Y-33351235D01*
X112025773Y-33357196D01*
X112001504Y-33360796D01*
X111977000Y-33362000D01*
X110527000Y-33362000D01*
X110502496Y-33360796D01*
X110478227Y-33357196D01*
X110454429Y-33351235D01*
X110431329Y-33342970D01*
X110409151Y-33332480D01*
X110388107Y-33319867D01*
X110368402Y-33305253D01*
X110350223Y-33288777D01*
X110333747Y-33270598D01*
X110319133Y-33250893D01*
X110306520Y-33229849D01*
X110296030Y-33207671D01*
X110287765Y-33184571D01*
X110281804Y-33160773D01*
X110278204Y-33136504D01*
X110277000Y-33112000D01*
X110277000Y-31912000D01*
X110278204Y-31887496D01*
X110281804Y-31863227D01*
X110287765Y-31839429D01*
X110296030Y-31816329D01*
X110306520Y-31794151D01*
X110319133Y-31773107D01*
X110333747Y-31753402D01*
X110350223Y-31735223D01*
X110368402Y-31718747D01*
X110388107Y-31704133D01*
X110409151Y-31691520D01*
X110431329Y-31681030D01*
X110454429Y-31672765D01*
X110478227Y-31666804D01*
X110502496Y-31663204D01*
X110527000Y-31662000D01*
X111977000Y-31662000D01*
X112001504Y-31663204D01*
G37*
G04 #@! TD.AperFunction*
D16*
X111252000Y-30012000D03*
X111252000Y-27512000D03*
D17*
X125494000Y-22098000D03*
X116314000Y-22098000D03*
D18*
X142748000Y-21844000D03*
D19*
X142748000Y-24384000D03*
X142748000Y-26924000D03*
G04 #@! TA.AperFunction,ComponentPad*
D13*
G36*
X143214657Y-28616046D02*
G01*
X143255913Y-28622166D01*
X143296371Y-28632300D01*
X143335640Y-28646351D01*
X143373344Y-28664183D01*
X143409117Y-28685625D01*
X143442617Y-28710471D01*
X143473520Y-28738480D01*
X143501529Y-28769383D01*
X143526375Y-28802883D01*
X143547817Y-28838656D01*
X143565649Y-28876360D01*
X143579700Y-28915629D01*
X143589834Y-28956087D01*
X143595954Y-28997343D01*
X143598000Y-29039000D01*
X143598000Y-29889000D01*
X143595954Y-29930657D01*
X143589834Y-29971913D01*
X143579700Y-30012371D01*
X143565649Y-30051640D01*
X143547817Y-30089344D01*
X143526375Y-30125117D01*
X143501529Y-30158617D01*
X143473520Y-30189520D01*
X143442617Y-30217529D01*
X143409117Y-30242375D01*
X143373344Y-30263817D01*
X143335640Y-30281649D01*
X143296371Y-30295700D01*
X143255913Y-30305834D01*
X143214657Y-30311954D01*
X143173000Y-30314000D01*
X142323000Y-30314000D01*
X142281343Y-30311954D01*
X142240087Y-30305834D01*
X142199629Y-30295700D01*
X142160360Y-30281649D01*
X142122656Y-30263817D01*
X142086883Y-30242375D01*
X142053383Y-30217529D01*
X142022480Y-30189520D01*
X141994471Y-30158617D01*
X141969625Y-30125117D01*
X141948183Y-30089344D01*
X141930351Y-30051640D01*
X141916300Y-30012371D01*
X141906166Y-29971913D01*
X141900046Y-29930657D01*
X141898000Y-29889000D01*
X141898000Y-29039000D01*
X141900046Y-28997343D01*
X141906166Y-28956087D01*
X141916300Y-28915629D01*
X141930351Y-28876360D01*
X141948183Y-28838656D01*
X141969625Y-28802883D01*
X141994471Y-28769383D01*
X142022480Y-28738480D01*
X142053383Y-28710471D01*
X142086883Y-28685625D01*
X142122656Y-28664183D01*
X142160360Y-28646351D01*
X142199629Y-28632300D01*
X142240087Y-28622166D01*
X142281343Y-28616046D01*
X142323000Y-28614000D01*
X143173000Y-28614000D01*
X143214657Y-28616046D01*
G37*
G04 #@! TD.AperFunction*
D19*
X142748000Y-32004000D03*
X142748000Y-34544000D03*
D17*
X129268000Y-22098000D03*
X138448000Y-22098000D03*
D20*
X122428000Y-39624000D03*
X124714000Y-44704000D03*
X119380000Y-49131000D03*
X122682000Y-34544000D03*
X134620000Y-49022000D03*
X129286000Y-22098000D03*
X125476000Y-22098000D03*
X131064000Y-34544000D03*
X134620000Y-47117000D03*
X118872000Y-43053000D03*
X118618000Y-37084000D03*
X118872000Y-41061614D03*
D21*
X129878000Y-50052000D02*
X129878000Y-51478000D01*
X121856000Y-39052000D02*
X119888000Y-39052000D01*
X122428000Y-39624000D02*
X121856000Y-39052000D01*
X111252000Y-56388000D02*
X111252000Y-57238000D01*
X141748000Y-54864000D02*
X142748000Y-54864000D01*
X135169000Y-54864000D02*
X141748000Y-54864000D01*
X133604000Y-56429000D02*
X135169000Y-54864000D01*
X133604000Y-57404000D02*
X133604000Y-56429000D01*
X142748000Y-54014000D02*
X144780000Y-51982000D01*
X142748000Y-54864000D02*
X142748000Y-54014000D01*
X143723000Y-40132000D02*
X142748000Y-40132000D01*
X144780000Y-41189000D02*
X143723000Y-40132000D01*
X144780000Y-51982000D02*
X144780000Y-41189000D01*
X140716000Y-39075000D02*
X140716000Y-31496000D01*
X142748000Y-40132000D02*
X141773000Y-40132000D01*
X140716000Y-31496000D02*
X142748000Y-29464000D01*
X141773000Y-40132000D02*
X140716000Y-39075000D01*
X111252000Y-57150000D02*
X109474000Y-57150000D01*
X109474000Y-57150000D02*
X108966000Y-56642000D01*
X108966000Y-46523000D02*
X110277000Y-45212000D01*
X108966000Y-56642000D02*
X108966000Y-46523000D01*
X110277000Y-45212000D02*
X111252000Y-45212000D01*
X120366000Y-49052000D02*
X124714000Y-44704000D01*
X119888000Y-49052000D02*
X120366000Y-49052000D01*
X111790000Y-57150000D02*
X111252000Y-57150000D01*
X119888000Y-49052000D02*
X111790000Y-57150000D01*
X133604000Y-58379000D02*
X133604000Y-57404000D01*
X132801000Y-59182000D02*
X133604000Y-58379000D01*
X111252000Y-57150000D02*
X113284000Y-59182000D01*
X113284000Y-59182000D02*
X132801000Y-59182000D01*
X109728000Y-32512000D02*
X108966000Y-33274000D01*
X108966000Y-43901000D02*
X110277000Y-45212000D01*
X108966000Y-33274000D02*
X108966000Y-43901000D01*
X109728000Y-32512000D02*
X111252000Y-32512000D01*
X122682000Y-36665519D02*
X122682000Y-34544000D01*
X133888000Y-43052000D02*
X129068481Y-43052000D01*
X129068481Y-43052000D02*
X122682000Y-36665519D01*
X129540000Y-32766000D02*
X138448000Y-23858000D01*
X123190000Y-32766000D02*
X129540000Y-32766000D01*
X138448000Y-23858000D02*
X138448000Y-22606000D01*
X122682000Y-34544000D02*
X122682000Y-33274000D01*
X122682000Y-33274000D02*
X123190000Y-32766000D01*
X137160000Y-35052000D02*
X133888000Y-35052000D01*
X138176000Y-34036000D02*
X137160000Y-35052000D01*
X142748000Y-24384000D02*
X140208000Y-24384000D01*
X138176000Y-26416000D02*
X138176000Y-34036000D01*
X140208000Y-24384000D02*
X138176000Y-26416000D01*
X138398000Y-37052000D02*
X133888000Y-37052000D01*
X139446000Y-28194000D02*
X139446000Y-36068000D01*
X140716000Y-26924000D02*
X139446000Y-28194000D01*
X142748000Y-26924000D02*
X140716000Y-26924000D01*
X139446000Y-36068000D02*
X138430000Y-37084000D01*
X138430000Y-37084000D02*
X138398000Y-37052000D01*
X142623000Y-45132000D02*
X142748000Y-45132000D01*
X136543000Y-39052000D02*
X142623000Y-45132000D01*
X133888000Y-39052000D02*
X136543000Y-39052000D01*
X133888000Y-39052000D02*
X133698000Y-38862000D01*
X133888000Y-41052000D02*
X136810000Y-41052000D01*
X136810000Y-41052000D02*
X137160000Y-41402000D01*
X141523000Y-47632000D02*
X142748000Y-47632000D01*
X137160000Y-43269000D02*
X141523000Y-47632000D01*
X137160000Y-41402000D02*
X137160000Y-43269000D01*
X131826000Y-35306000D02*
X131064000Y-34544000D01*
X131826000Y-39624000D02*
X131826000Y-35306000D01*
X133888000Y-41052000D02*
X133254000Y-41052000D01*
X133254000Y-41052000D02*
X131826000Y-39624000D01*
X136968000Y-47052000D02*
X133888000Y-47052000D01*
X137668000Y-47752000D02*
X136968000Y-47052000D01*
X121104000Y-56179000D02*
X122927000Y-54356000D01*
X121104000Y-57404000D02*
X121104000Y-56179000D01*
X134112000Y-54356000D02*
X137668000Y-50800000D01*
X122927000Y-54356000D02*
X134112000Y-54356000D01*
X137668000Y-50800000D02*
X137668000Y-47752000D01*
X116314000Y-22098000D02*
X115280000Y-22098000D01*
X116332000Y-22116000D02*
X116314000Y-22098000D01*
X116332000Y-25146000D02*
X116332000Y-22116000D01*
X119888000Y-35052000D02*
X119888000Y-28702000D01*
X119888000Y-28702000D02*
X116332000Y-25146000D01*
X117220000Y-43052000D02*
X115824000Y-41656000D01*
X112562000Y-30012000D02*
X112014000Y-30012000D01*
X115824000Y-41656000D02*
X115824000Y-33274000D01*
X119888000Y-43052000D02*
X117220000Y-43052000D01*
X115824000Y-33274000D02*
X112562000Y-30012000D01*
X117108000Y-45052000D02*
X119888000Y-45052000D01*
X114768000Y-42712000D02*
X111252000Y-42712000D01*
X117108000Y-45052000D02*
X114768000Y-42712000D01*
X114300000Y-48768000D02*
X116016000Y-47052000D01*
X111377000Y-53888000D02*
X111417000Y-53848000D01*
X116016000Y-47052000D02*
X119888000Y-47052000D01*
X111252000Y-53888000D02*
X111377000Y-53888000D01*
X114300000Y-52832000D02*
X114300000Y-48768000D01*
X112482000Y-54650000D02*
X111252000Y-54650000D01*
X114300000Y-52832000D02*
X112482000Y-54650000D01*
M02*
