M48
; DRILL file {KiCad 5.1.5} date Mo 13 Jan 2020 20:05:50 CET
; FORMAT={-:-/ absolute / inch / decimal}
; #@! TF.CreationDate,2020-01-13T20:05:50+01:00
; #@! TF.GenerationSoftware,Kicad,Pcbnew,5.1.5
; #@! TF.FileFunction,Plated,1,2,PTH
FMAT,2
INCH
T1C0.0157
T2C0.0374
T3C0.0394
%
G90
G05
T1
X4.67Y-1.46
X4.68Y-1.6166
X4.68Y-1.695
X4.7Y-1.9343
X4.82Y-1.56
X4.83Y-1.36
X4.91Y-1.76
X4.94Y-0.87
X5.09Y-0.87
X5.16Y-1.36
X5.3Y-1.855
X5.3Y-1.93
T2
X4.7679Y-2.26
X4.8663Y-2.26
X4.9647Y-2.26
X5.0631Y-2.26
X5.1616Y-2.26
X5.26Y-2.26
X5.62Y-1.58
X5.62Y-1.6784
X5.62Y-1.7769
X5.62Y-1.8753
X4.38Y-2.0531
X4.38Y-2.1516
X4.38Y-2.25
X4.38Y-1.0831
X4.38Y-1.1816
X4.38Y-1.28
X4.38Y-1.5831
X4.38Y-1.6816
X4.38Y-1.78
T3
X4.38Y-1.38
X5.62Y-0.86
X5.62Y-0.96
X5.62Y-1.06
X5.62Y-1.16
X5.62Y-1.26
X5.62Y-1.36
X4.38Y-1.48
X5.62Y-2.16
X5.62Y-2.2584
T0
M30
