G04 #@! TF.GenerationSoftware,KiCad,Pcbnew,5.1.5*
G04 #@! TF.CreationDate,2020-01-13T20:05:45+01:00*
G04 #@! TF.ProjectId,ESP8266_Uni,45535038-3236-4365-9f55-6e692e6b6963,rev?*
G04 #@! TF.SameCoordinates,Original*
G04 #@! TF.FileFunction,Copper,L2,Bot*
G04 #@! TF.FilePolarity,Positive*
%FSLAX46Y46*%
G04 Gerber Fmt 4.6, Leading zero omitted, Abs format (unit mm)*
G04 Created by KiCad (PCBNEW 5.1.5) date 2020-01-13 20:05:45*
%MOMM*%
%LPD*%
G04 APERTURE LIST*
%ADD10C,2.000000*%
%ADD11C,0.100000*%
%ADD12O,1.700000X1.950000*%
%ADD13O,2.000000X1.700000*%
%ADD14O,1.950000X1.700000*%
%ADD15C,1.700000*%
%ADD16O,1.700000X1.700000*%
%ADD17C,0.800000*%
%ADD18C,0.250000*%
%ADD19C,0.254000*%
G04 APERTURE END LIST*
D10*
X111252000Y-37592000D03*
X111252000Y-35052000D03*
G04 #@! TA.AperFunction,ComponentPad*
D11*
G36*
X134228504Y-56430204D02*
G01*
X134252773Y-56433804D01*
X134276571Y-56439765D01*
X134299671Y-56448030D01*
X134321849Y-56458520D01*
X134342893Y-56471133D01*
X134362598Y-56485747D01*
X134380777Y-56502223D01*
X134397253Y-56520402D01*
X134411867Y-56540107D01*
X134424480Y-56561151D01*
X134434970Y-56583329D01*
X134443235Y-56606429D01*
X134449196Y-56630227D01*
X134452796Y-56654496D01*
X134454000Y-56679000D01*
X134454000Y-58129000D01*
X134452796Y-58153504D01*
X134449196Y-58177773D01*
X134443235Y-58201571D01*
X134434970Y-58224671D01*
X134424480Y-58246849D01*
X134411867Y-58267893D01*
X134397253Y-58287598D01*
X134380777Y-58305777D01*
X134362598Y-58322253D01*
X134342893Y-58336867D01*
X134321849Y-58349480D01*
X134299671Y-58359970D01*
X134276571Y-58368235D01*
X134252773Y-58374196D01*
X134228504Y-58377796D01*
X134204000Y-58379000D01*
X133004000Y-58379000D01*
X132979496Y-58377796D01*
X132955227Y-58374196D01*
X132931429Y-58368235D01*
X132908329Y-58359970D01*
X132886151Y-58349480D01*
X132865107Y-58336867D01*
X132845402Y-58322253D01*
X132827223Y-58305777D01*
X132810747Y-58287598D01*
X132796133Y-58267893D01*
X132783520Y-58246849D01*
X132773030Y-58224671D01*
X132764765Y-58201571D01*
X132758804Y-58177773D01*
X132755204Y-58153504D01*
X132754000Y-58129000D01*
X132754000Y-56679000D01*
X132755204Y-56654496D01*
X132758804Y-56630227D01*
X132764765Y-56606429D01*
X132773030Y-56583329D01*
X132783520Y-56561151D01*
X132796133Y-56540107D01*
X132810747Y-56520402D01*
X132827223Y-56502223D01*
X132845402Y-56485747D01*
X132865107Y-56471133D01*
X132886151Y-56458520D01*
X132908329Y-56448030D01*
X132931429Y-56439765D01*
X132955227Y-56433804D01*
X132979496Y-56430204D01*
X133004000Y-56429000D01*
X134204000Y-56429000D01*
X134228504Y-56430204D01*
G37*
G04 #@! TD.AperFunction*
D12*
X131104000Y-57404000D03*
X128604000Y-57404000D03*
X126104000Y-57404000D03*
X123604000Y-57404000D03*
X121104000Y-57404000D03*
G04 #@! TA.AperFunction,ComponentPad*
D11*
G36*
X143522504Y-54015204D02*
G01*
X143546773Y-54018804D01*
X143570571Y-54024765D01*
X143593671Y-54033030D01*
X143615849Y-54043520D01*
X143636893Y-54056133D01*
X143656598Y-54070747D01*
X143674777Y-54087223D01*
X143691253Y-54105402D01*
X143705867Y-54125107D01*
X143718480Y-54146151D01*
X143728970Y-54168329D01*
X143737235Y-54191429D01*
X143743196Y-54215227D01*
X143746796Y-54239496D01*
X143748000Y-54264000D01*
X143748000Y-55464000D01*
X143746796Y-55488504D01*
X143743196Y-55512773D01*
X143737235Y-55536571D01*
X143728970Y-55559671D01*
X143718480Y-55581849D01*
X143705867Y-55602893D01*
X143691253Y-55622598D01*
X143674777Y-55640777D01*
X143656598Y-55657253D01*
X143636893Y-55671867D01*
X143615849Y-55684480D01*
X143593671Y-55694970D01*
X143570571Y-55703235D01*
X143546773Y-55709196D01*
X143522504Y-55712796D01*
X143498000Y-55714000D01*
X141998000Y-55714000D01*
X141973496Y-55712796D01*
X141949227Y-55709196D01*
X141925429Y-55703235D01*
X141902329Y-55694970D01*
X141880151Y-55684480D01*
X141859107Y-55671867D01*
X141839402Y-55657253D01*
X141821223Y-55640777D01*
X141804747Y-55622598D01*
X141790133Y-55602893D01*
X141777520Y-55581849D01*
X141767030Y-55559671D01*
X141758765Y-55536571D01*
X141752804Y-55512773D01*
X141749204Y-55488504D01*
X141748000Y-55464000D01*
X141748000Y-54264000D01*
X141749204Y-54239496D01*
X141752804Y-54215227D01*
X141758765Y-54191429D01*
X141767030Y-54168329D01*
X141777520Y-54146151D01*
X141790133Y-54125107D01*
X141804747Y-54105402D01*
X141821223Y-54087223D01*
X141839402Y-54070747D01*
X141859107Y-54056133D01*
X141880151Y-54043520D01*
X141902329Y-54033030D01*
X141925429Y-54024765D01*
X141949227Y-54018804D01*
X141973496Y-54015204D01*
X141998000Y-54014000D01*
X143498000Y-54014000D01*
X143522504Y-54015204D01*
G37*
G04 #@! TD.AperFunction*
D13*
X142748000Y-57364000D03*
G04 #@! TA.AperFunction,ComponentPad*
D11*
G36*
X143497504Y-39283204D02*
G01*
X143521773Y-39286804D01*
X143545571Y-39292765D01*
X143568671Y-39301030D01*
X143590849Y-39311520D01*
X143611893Y-39324133D01*
X143631598Y-39338747D01*
X143649777Y-39355223D01*
X143666253Y-39373402D01*
X143680867Y-39393107D01*
X143693480Y-39414151D01*
X143703970Y-39436329D01*
X143712235Y-39459429D01*
X143718196Y-39483227D01*
X143721796Y-39507496D01*
X143723000Y-39532000D01*
X143723000Y-40732000D01*
X143721796Y-40756504D01*
X143718196Y-40780773D01*
X143712235Y-40804571D01*
X143703970Y-40827671D01*
X143693480Y-40849849D01*
X143680867Y-40870893D01*
X143666253Y-40890598D01*
X143649777Y-40908777D01*
X143631598Y-40925253D01*
X143611893Y-40939867D01*
X143590849Y-40952480D01*
X143568671Y-40962970D01*
X143545571Y-40971235D01*
X143521773Y-40977196D01*
X143497504Y-40980796D01*
X143473000Y-40982000D01*
X142023000Y-40982000D01*
X141998496Y-40980796D01*
X141974227Y-40977196D01*
X141950429Y-40971235D01*
X141927329Y-40962970D01*
X141905151Y-40952480D01*
X141884107Y-40939867D01*
X141864402Y-40925253D01*
X141846223Y-40908777D01*
X141829747Y-40890598D01*
X141815133Y-40870893D01*
X141802520Y-40849849D01*
X141792030Y-40827671D01*
X141783765Y-40804571D01*
X141777804Y-40780773D01*
X141774204Y-40756504D01*
X141773000Y-40732000D01*
X141773000Y-39532000D01*
X141774204Y-39507496D01*
X141777804Y-39483227D01*
X141783765Y-39459429D01*
X141792030Y-39436329D01*
X141802520Y-39414151D01*
X141815133Y-39393107D01*
X141829747Y-39373402D01*
X141846223Y-39355223D01*
X141864402Y-39338747D01*
X141884107Y-39324133D01*
X141905151Y-39311520D01*
X141927329Y-39301030D01*
X141950429Y-39292765D01*
X141974227Y-39286804D01*
X141998496Y-39283204D01*
X142023000Y-39282000D01*
X143473000Y-39282000D01*
X143497504Y-39283204D01*
G37*
G04 #@! TD.AperFunction*
D14*
X142748000Y-42632000D03*
X142748000Y-45132000D03*
X142748000Y-47632000D03*
G04 #@! TA.AperFunction,ComponentPad*
D11*
G36*
X112001504Y-44363204D02*
G01*
X112025773Y-44366804D01*
X112049571Y-44372765D01*
X112072671Y-44381030D01*
X112094849Y-44391520D01*
X112115893Y-44404133D01*
X112135598Y-44418747D01*
X112153777Y-44435223D01*
X112170253Y-44453402D01*
X112184867Y-44473107D01*
X112197480Y-44494151D01*
X112207970Y-44516329D01*
X112216235Y-44539429D01*
X112222196Y-44563227D01*
X112225796Y-44587496D01*
X112227000Y-44612000D01*
X112227000Y-45812000D01*
X112225796Y-45836504D01*
X112222196Y-45860773D01*
X112216235Y-45884571D01*
X112207970Y-45907671D01*
X112197480Y-45929849D01*
X112184867Y-45950893D01*
X112170253Y-45970598D01*
X112153777Y-45988777D01*
X112135598Y-46005253D01*
X112115893Y-46019867D01*
X112094849Y-46032480D01*
X112072671Y-46042970D01*
X112049571Y-46051235D01*
X112025773Y-46057196D01*
X112001504Y-46060796D01*
X111977000Y-46062000D01*
X110527000Y-46062000D01*
X110502496Y-46060796D01*
X110478227Y-46057196D01*
X110454429Y-46051235D01*
X110431329Y-46042970D01*
X110409151Y-46032480D01*
X110388107Y-46019867D01*
X110368402Y-46005253D01*
X110350223Y-45988777D01*
X110333747Y-45970598D01*
X110319133Y-45950893D01*
X110306520Y-45929849D01*
X110296030Y-45907671D01*
X110287765Y-45884571D01*
X110281804Y-45860773D01*
X110278204Y-45836504D01*
X110277000Y-45812000D01*
X110277000Y-44612000D01*
X110278204Y-44587496D01*
X110281804Y-44563227D01*
X110287765Y-44539429D01*
X110296030Y-44516329D01*
X110306520Y-44494151D01*
X110319133Y-44473107D01*
X110333747Y-44453402D01*
X110350223Y-44435223D01*
X110368402Y-44418747D01*
X110388107Y-44404133D01*
X110409151Y-44391520D01*
X110431329Y-44381030D01*
X110454429Y-44372765D01*
X110478227Y-44366804D01*
X110502496Y-44363204D01*
X110527000Y-44362000D01*
X111977000Y-44362000D01*
X112001504Y-44363204D01*
G37*
G04 #@! TD.AperFunction*
D14*
X111252000Y-42712000D03*
X111252000Y-40212000D03*
X111252000Y-52150000D03*
X111252000Y-54650000D03*
G04 #@! TA.AperFunction,ComponentPad*
D11*
G36*
X112001504Y-56301204D02*
G01*
X112025773Y-56304804D01*
X112049571Y-56310765D01*
X112072671Y-56319030D01*
X112094849Y-56329520D01*
X112115893Y-56342133D01*
X112135598Y-56356747D01*
X112153777Y-56373223D01*
X112170253Y-56391402D01*
X112184867Y-56411107D01*
X112197480Y-56432151D01*
X112207970Y-56454329D01*
X112216235Y-56477429D01*
X112222196Y-56501227D01*
X112225796Y-56525496D01*
X112227000Y-56550000D01*
X112227000Y-57750000D01*
X112225796Y-57774504D01*
X112222196Y-57798773D01*
X112216235Y-57822571D01*
X112207970Y-57845671D01*
X112197480Y-57867849D01*
X112184867Y-57888893D01*
X112170253Y-57908598D01*
X112153777Y-57926777D01*
X112135598Y-57943253D01*
X112115893Y-57957867D01*
X112094849Y-57970480D01*
X112072671Y-57980970D01*
X112049571Y-57989235D01*
X112025773Y-57995196D01*
X112001504Y-57998796D01*
X111977000Y-58000000D01*
X110527000Y-58000000D01*
X110502496Y-57998796D01*
X110478227Y-57995196D01*
X110454429Y-57989235D01*
X110431329Y-57980970D01*
X110409151Y-57970480D01*
X110388107Y-57957867D01*
X110368402Y-57943253D01*
X110350223Y-57926777D01*
X110333747Y-57908598D01*
X110319133Y-57888893D01*
X110306520Y-57867849D01*
X110296030Y-57845671D01*
X110287765Y-57822571D01*
X110281804Y-57798773D01*
X110278204Y-57774504D01*
X110277000Y-57750000D01*
X110277000Y-56550000D01*
X110278204Y-56525496D01*
X110281804Y-56501227D01*
X110287765Y-56477429D01*
X110296030Y-56454329D01*
X110306520Y-56432151D01*
X110319133Y-56411107D01*
X110333747Y-56391402D01*
X110350223Y-56373223D01*
X110368402Y-56356747D01*
X110388107Y-56342133D01*
X110409151Y-56329520D01*
X110431329Y-56319030D01*
X110454429Y-56310765D01*
X110478227Y-56304804D01*
X110502496Y-56301204D01*
X110527000Y-56300000D01*
X111977000Y-56300000D01*
X112001504Y-56301204D01*
G37*
G04 #@! TD.AperFunction*
G04 #@! TA.AperFunction,ComponentPad*
G36*
X112001504Y-31663204D02*
G01*
X112025773Y-31666804D01*
X112049571Y-31672765D01*
X112072671Y-31681030D01*
X112094849Y-31691520D01*
X112115893Y-31704133D01*
X112135598Y-31718747D01*
X112153777Y-31735223D01*
X112170253Y-31753402D01*
X112184867Y-31773107D01*
X112197480Y-31794151D01*
X112207970Y-31816329D01*
X112216235Y-31839429D01*
X112222196Y-31863227D01*
X112225796Y-31887496D01*
X112227000Y-31912000D01*
X112227000Y-33112000D01*
X112225796Y-33136504D01*
X112222196Y-33160773D01*
X112216235Y-33184571D01*
X112207970Y-33207671D01*
X112197480Y-33229849D01*
X112184867Y-33250893D01*
X112170253Y-33270598D01*
X112153777Y-33288777D01*
X112135598Y-33305253D01*
X112115893Y-33319867D01*
X112094849Y-33332480D01*
X112072671Y-33342970D01*
X112049571Y-33351235D01*
X112025773Y-33357196D01*
X112001504Y-33360796D01*
X111977000Y-33362000D01*
X110527000Y-33362000D01*
X110502496Y-33360796D01*
X110478227Y-33357196D01*
X110454429Y-33351235D01*
X110431329Y-33342970D01*
X110409151Y-33332480D01*
X110388107Y-33319867D01*
X110368402Y-33305253D01*
X110350223Y-33288777D01*
X110333747Y-33270598D01*
X110319133Y-33250893D01*
X110306520Y-33229849D01*
X110296030Y-33207671D01*
X110287765Y-33184571D01*
X110281804Y-33160773D01*
X110278204Y-33136504D01*
X110277000Y-33112000D01*
X110277000Y-31912000D01*
X110278204Y-31887496D01*
X110281804Y-31863227D01*
X110287765Y-31839429D01*
X110296030Y-31816329D01*
X110306520Y-31794151D01*
X110319133Y-31773107D01*
X110333747Y-31753402D01*
X110350223Y-31735223D01*
X110368402Y-31718747D01*
X110388107Y-31704133D01*
X110409151Y-31691520D01*
X110431329Y-31681030D01*
X110454429Y-31672765D01*
X110478227Y-31666804D01*
X110502496Y-31663204D01*
X110527000Y-31662000D01*
X111977000Y-31662000D01*
X112001504Y-31663204D01*
G37*
G04 #@! TD.AperFunction*
D14*
X111252000Y-30012000D03*
X111252000Y-27512000D03*
G04 #@! TA.AperFunction,SMDPad,CuDef*
D11*
G36*
X123022505Y-44005204D02*
G01*
X123046773Y-44008804D01*
X123070572Y-44014765D01*
X123093671Y-44023030D01*
X123115850Y-44033520D01*
X123136893Y-44046132D01*
X123156599Y-44060747D01*
X123174777Y-44077223D01*
X123191253Y-44095401D01*
X123205868Y-44115107D01*
X123218480Y-44136150D01*
X123228970Y-44158329D01*
X123237235Y-44181428D01*
X123243196Y-44205227D01*
X123246796Y-44229495D01*
X123248000Y-44253999D01*
X123248000Y-45154001D01*
X123246796Y-45178505D01*
X123243196Y-45202773D01*
X123237235Y-45226572D01*
X123228970Y-45249671D01*
X123218480Y-45271850D01*
X123205868Y-45292893D01*
X123191253Y-45312599D01*
X123174777Y-45330777D01*
X123156599Y-45347253D01*
X123136893Y-45361868D01*
X123115850Y-45374480D01*
X123093671Y-45384970D01*
X123070572Y-45393235D01*
X123046773Y-45399196D01*
X123022505Y-45402796D01*
X122998001Y-45404000D01*
X122347999Y-45404000D01*
X122323495Y-45402796D01*
X122299227Y-45399196D01*
X122275428Y-45393235D01*
X122252329Y-45384970D01*
X122230150Y-45374480D01*
X122209107Y-45361868D01*
X122189401Y-45347253D01*
X122171223Y-45330777D01*
X122154747Y-45312599D01*
X122140132Y-45292893D01*
X122127520Y-45271850D01*
X122117030Y-45249671D01*
X122108765Y-45226572D01*
X122102804Y-45202773D01*
X122099204Y-45178505D01*
X122098000Y-45154001D01*
X122098000Y-44253999D01*
X122099204Y-44229495D01*
X122102804Y-44205227D01*
X122108765Y-44181428D01*
X122117030Y-44158329D01*
X122127520Y-44136150D01*
X122140132Y-44115107D01*
X122154747Y-44095401D01*
X122171223Y-44077223D01*
X122189401Y-44060747D01*
X122209107Y-44046132D01*
X122230150Y-44033520D01*
X122252329Y-44023030D01*
X122275428Y-44014765D01*
X122299227Y-44008804D01*
X122323495Y-44005204D01*
X122347999Y-44004000D01*
X122998001Y-44004000D01*
X123022505Y-44005204D01*
G37*
G04 #@! TD.AperFunction*
G04 #@! TA.AperFunction,SMDPad,CuDef*
G36*
X125072505Y-44005204D02*
G01*
X125096773Y-44008804D01*
X125120572Y-44014765D01*
X125143671Y-44023030D01*
X125165850Y-44033520D01*
X125186893Y-44046132D01*
X125206599Y-44060747D01*
X125224777Y-44077223D01*
X125241253Y-44095401D01*
X125255868Y-44115107D01*
X125268480Y-44136150D01*
X125278970Y-44158329D01*
X125287235Y-44181428D01*
X125293196Y-44205227D01*
X125296796Y-44229495D01*
X125298000Y-44253999D01*
X125298000Y-45154001D01*
X125296796Y-45178505D01*
X125293196Y-45202773D01*
X125287235Y-45226572D01*
X125278970Y-45249671D01*
X125268480Y-45271850D01*
X125255868Y-45292893D01*
X125241253Y-45312599D01*
X125224777Y-45330777D01*
X125206599Y-45347253D01*
X125186893Y-45361868D01*
X125165850Y-45374480D01*
X125143671Y-45384970D01*
X125120572Y-45393235D01*
X125096773Y-45399196D01*
X125072505Y-45402796D01*
X125048001Y-45404000D01*
X124397999Y-45404000D01*
X124373495Y-45402796D01*
X124349227Y-45399196D01*
X124325428Y-45393235D01*
X124302329Y-45384970D01*
X124280150Y-45374480D01*
X124259107Y-45361868D01*
X124239401Y-45347253D01*
X124221223Y-45330777D01*
X124204747Y-45312599D01*
X124190132Y-45292893D01*
X124177520Y-45271850D01*
X124167030Y-45249671D01*
X124158765Y-45226572D01*
X124152804Y-45202773D01*
X124149204Y-45178505D01*
X124148000Y-45154001D01*
X124148000Y-44253999D01*
X124149204Y-44229495D01*
X124152804Y-44205227D01*
X124158765Y-44181428D01*
X124167030Y-44158329D01*
X124177520Y-44136150D01*
X124190132Y-44115107D01*
X124204747Y-44095401D01*
X124221223Y-44077223D01*
X124239401Y-44060747D01*
X124259107Y-44046132D01*
X124280150Y-44033520D01*
X124302329Y-44023030D01*
X124325428Y-44014765D01*
X124349227Y-44008804D01*
X124373495Y-44005204D01*
X124397999Y-44004000D01*
X125048001Y-44004000D01*
X125072505Y-44005204D01*
G37*
G04 #@! TD.AperFunction*
G04 #@! TA.AperFunction,SMDPad,CuDef*
G36*
X129363505Y-49085204D02*
G01*
X129387773Y-49088804D01*
X129411572Y-49094765D01*
X129434671Y-49103030D01*
X129456850Y-49113520D01*
X129477893Y-49126132D01*
X129497599Y-49140747D01*
X129515777Y-49157223D01*
X129532253Y-49175401D01*
X129546868Y-49195107D01*
X129559480Y-49216150D01*
X129569970Y-49238329D01*
X129578235Y-49261428D01*
X129584196Y-49285227D01*
X129587796Y-49309495D01*
X129589000Y-49333999D01*
X129589000Y-50234001D01*
X129587796Y-50258505D01*
X129584196Y-50282773D01*
X129578235Y-50306572D01*
X129569970Y-50329671D01*
X129559480Y-50351850D01*
X129546868Y-50372893D01*
X129532253Y-50392599D01*
X129515777Y-50410777D01*
X129497599Y-50427253D01*
X129477893Y-50441868D01*
X129456850Y-50454480D01*
X129434671Y-50464970D01*
X129411572Y-50473235D01*
X129387773Y-50479196D01*
X129363505Y-50482796D01*
X129339001Y-50484000D01*
X128688999Y-50484000D01*
X128664495Y-50482796D01*
X128640227Y-50479196D01*
X128616428Y-50473235D01*
X128593329Y-50464970D01*
X128571150Y-50454480D01*
X128550107Y-50441868D01*
X128530401Y-50427253D01*
X128512223Y-50410777D01*
X128495747Y-50392599D01*
X128481132Y-50372893D01*
X128468520Y-50351850D01*
X128458030Y-50329671D01*
X128449765Y-50306572D01*
X128443804Y-50282773D01*
X128440204Y-50258505D01*
X128439000Y-50234001D01*
X128439000Y-49333999D01*
X128440204Y-49309495D01*
X128443804Y-49285227D01*
X128449765Y-49261428D01*
X128458030Y-49238329D01*
X128468520Y-49216150D01*
X128481132Y-49195107D01*
X128495747Y-49175401D01*
X128512223Y-49157223D01*
X128530401Y-49140747D01*
X128550107Y-49126132D01*
X128571150Y-49113520D01*
X128593329Y-49103030D01*
X128616428Y-49094765D01*
X128640227Y-49088804D01*
X128664495Y-49085204D01*
X128688999Y-49084000D01*
X129339001Y-49084000D01*
X129363505Y-49085204D01*
G37*
G04 #@! TD.AperFunction*
G04 #@! TA.AperFunction,SMDPad,CuDef*
G36*
X131413505Y-49085204D02*
G01*
X131437773Y-49088804D01*
X131461572Y-49094765D01*
X131484671Y-49103030D01*
X131506850Y-49113520D01*
X131527893Y-49126132D01*
X131547599Y-49140747D01*
X131565777Y-49157223D01*
X131582253Y-49175401D01*
X131596868Y-49195107D01*
X131609480Y-49216150D01*
X131619970Y-49238329D01*
X131628235Y-49261428D01*
X131634196Y-49285227D01*
X131637796Y-49309495D01*
X131639000Y-49333999D01*
X131639000Y-50234001D01*
X131637796Y-50258505D01*
X131634196Y-50282773D01*
X131628235Y-50306572D01*
X131619970Y-50329671D01*
X131609480Y-50351850D01*
X131596868Y-50372893D01*
X131582253Y-50392599D01*
X131565777Y-50410777D01*
X131547599Y-50427253D01*
X131527893Y-50441868D01*
X131506850Y-50454480D01*
X131484671Y-50464970D01*
X131461572Y-50473235D01*
X131437773Y-50479196D01*
X131413505Y-50482796D01*
X131389001Y-50484000D01*
X130738999Y-50484000D01*
X130714495Y-50482796D01*
X130690227Y-50479196D01*
X130666428Y-50473235D01*
X130643329Y-50464970D01*
X130621150Y-50454480D01*
X130600107Y-50441868D01*
X130580401Y-50427253D01*
X130562223Y-50410777D01*
X130545747Y-50392599D01*
X130531132Y-50372893D01*
X130518520Y-50351850D01*
X130508030Y-50329671D01*
X130499765Y-50306572D01*
X130493804Y-50282773D01*
X130490204Y-50258505D01*
X130489000Y-50234001D01*
X130489000Y-49333999D01*
X130490204Y-49309495D01*
X130493804Y-49285227D01*
X130499765Y-49261428D01*
X130508030Y-49238329D01*
X130518520Y-49216150D01*
X130531132Y-49195107D01*
X130545747Y-49175401D01*
X130562223Y-49157223D01*
X130580401Y-49140747D01*
X130600107Y-49126132D01*
X130621150Y-49113520D01*
X130643329Y-49103030D01*
X130666428Y-49094765D01*
X130690227Y-49088804D01*
X130714495Y-49085204D01*
X130738999Y-49084000D01*
X131389001Y-49084000D01*
X131413505Y-49085204D01*
G37*
G04 #@! TD.AperFunction*
G04 #@! TA.AperFunction,SMDPad,CuDef*
G36*
X131413505Y-33845204D02*
G01*
X131437773Y-33848804D01*
X131461572Y-33854765D01*
X131484671Y-33863030D01*
X131506850Y-33873520D01*
X131527893Y-33886132D01*
X131547599Y-33900747D01*
X131565777Y-33917223D01*
X131582253Y-33935401D01*
X131596868Y-33955107D01*
X131609480Y-33976150D01*
X131619970Y-33998329D01*
X131628235Y-34021428D01*
X131634196Y-34045227D01*
X131637796Y-34069495D01*
X131639000Y-34093999D01*
X131639000Y-34994001D01*
X131637796Y-35018505D01*
X131634196Y-35042773D01*
X131628235Y-35066572D01*
X131619970Y-35089671D01*
X131609480Y-35111850D01*
X131596868Y-35132893D01*
X131582253Y-35152599D01*
X131565777Y-35170777D01*
X131547599Y-35187253D01*
X131527893Y-35201868D01*
X131506850Y-35214480D01*
X131484671Y-35224970D01*
X131461572Y-35233235D01*
X131437773Y-35239196D01*
X131413505Y-35242796D01*
X131389001Y-35244000D01*
X130738999Y-35244000D01*
X130714495Y-35242796D01*
X130690227Y-35239196D01*
X130666428Y-35233235D01*
X130643329Y-35224970D01*
X130621150Y-35214480D01*
X130600107Y-35201868D01*
X130580401Y-35187253D01*
X130562223Y-35170777D01*
X130545747Y-35152599D01*
X130531132Y-35132893D01*
X130518520Y-35111850D01*
X130508030Y-35089671D01*
X130499765Y-35066572D01*
X130493804Y-35042773D01*
X130490204Y-35018505D01*
X130489000Y-34994001D01*
X130489000Y-34093999D01*
X130490204Y-34069495D01*
X130493804Y-34045227D01*
X130499765Y-34021428D01*
X130508030Y-33998329D01*
X130518520Y-33976150D01*
X130531132Y-33955107D01*
X130545747Y-33935401D01*
X130562223Y-33917223D01*
X130580401Y-33900747D01*
X130600107Y-33886132D01*
X130621150Y-33873520D01*
X130643329Y-33863030D01*
X130666428Y-33854765D01*
X130690227Y-33848804D01*
X130714495Y-33845204D01*
X130738999Y-33844000D01*
X131389001Y-33844000D01*
X131413505Y-33845204D01*
G37*
G04 #@! TD.AperFunction*
G04 #@! TA.AperFunction,SMDPad,CuDef*
G36*
X129363505Y-33845204D02*
G01*
X129387773Y-33848804D01*
X129411572Y-33854765D01*
X129434671Y-33863030D01*
X129456850Y-33873520D01*
X129477893Y-33886132D01*
X129497599Y-33900747D01*
X129515777Y-33917223D01*
X129532253Y-33935401D01*
X129546868Y-33955107D01*
X129559480Y-33976150D01*
X129569970Y-33998329D01*
X129578235Y-34021428D01*
X129584196Y-34045227D01*
X129587796Y-34069495D01*
X129589000Y-34093999D01*
X129589000Y-34994001D01*
X129587796Y-35018505D01*
X129584196Y-35042773D01*
X129578235Y-35066572D01*
X129569970Y-35089671D01*
X129559480Y-35111850D01*
X129546868Y-35132893D01*
X129532253Y-35152599D01*
X129515777Y-35170777D01*
X129497599Y-35187253D01*
X129477893Y-35201868D01*
X129456850Y-35214480D01*
X129434671Y-35224970D01*
X129411572Y-35233235D01*
X129387773Y-35239196D01*
X129363505Y-35242796D01*
X129339001Y-35244000D01*
X128688999Y-35244000D01*
X128664495Y-35242796D01*
X128640227Y-35239196D01*
X128616428Y-35233235D01*
X128593329Y-35224970D01*
X128571150Y-35214480D01*
X128550107Y-35201868D01*
X128530401Y-35187253D01*
X128512223Y-35170777D01*
X128495747Y-35152599D01*
X128481132Y-35132893D01*
X128468520Y-35111850D01*
X128458030Y-35089671D01*
X128449765Y-35066572D01*
X128443804Y-35042773D01*
X128440204Y-35018505D01*
X128439000Y-34994001D01*
X128439000Y-34093999D01*
X128440204Y-34069495D01*
X128443804Y-34045227D01*
X128449765Y-34021428D01*
X128458030Y-33998329D01*
X128468520Y-33976150D01*
X128481132Y-33955107D01*
X128495747Y-33935401D01*
X128512223Y-33917223D01*
X128530401Y-33900747D01*
X128550107Y-33886132D01*
X128571150Y-33873520D01*
X128593329Y-33863030D01*
X128616428Y-33854765D01*
X128640227Y-33848804D01*
X128664495Y-33845204D01*
X128688999Y-33844000D01*
X129339001Y-33844000D01*
X129363505Y-33845204D01*
G37*
G04 #@! TD.AperFunction*
G04 #@! TA.AperFunction,SMDPad,CuDef*
G36*
X129372505Y-39433204D02*
G01*
X129396773Y-39436804D01*
X129420572Y-39442765D01*
X129443671Y-39451030D01*
X129465850Y-39461520D01*
X129486893Y-39474132D01*
X129506599Y-39488747D01*
X129524777Y-39505223D01*
X129541253Y-39523401D01*
X129555868Y-39543107D01*
X129568480Y-39564150D01*
X129578970Y-39586329D01*
X129587235Y-39609428D01*
X129593196Y-39633227D01*
X129596796Y-39657495D01*
X129598000Y-39681999D01*
X129598000Y-40582001D01*
X129596796Y-40606505D01*
X129593196Y-40630773D01*
X129587235Y-40654572D01*
X129578970Y-40677671D01*
X129568480Y-40699850D01*
X129555868Y-40720893D01*
X129541253Y-40740599D01*
X129524777Y-40758777D01*
X129506599Y-40775253D01*
X129486893Y-40789868D01*
X129465850Y-40802480D01*
X129443671Y-40812970D01*
X129420572Y-40821235D01*
X129396773Y-40827196D01*
X129372505Y-40830796D01*
X129348001Y-40832000D01*
X128697999Y-40832000D01*
X128673495Y-40830796D01*
X128649227Y-40827196D01*
X128625428Y-40821235D01*
X128602329Y-40812970D01*
X128580150Y-40802480D01*
X128559107Y-40789868D01*
X128539401Y-40775253D01*
X128521223Y-40758777D01*
X128504747Y-40740599D01*
X128490132Y-40720893D01*
X128477520Y-40699850D01*
X128467030Y-40677671D01*
X128458765Y-40654572D01*
X128452804Y-40630773D01*
X128449204Y-40606505D01*
X128448000Y-40582001D01*
X128448000Y-39681999D01*
X128449204Y-39657495D01*
X128452804Y-39633227D01*
X128458765Y-39609428D01*
X128467030Y-39586329D01*
X128477520Y-39564150D01*
X128490132Y-39543107D01*
X128504747Y-39523401D01*
X128521223Y-39505223D01*
X128539401Y-39488747D01*
X128559107Y-39474132D01*
X128580150Y-39461520D01*
X128602329Y-39451030D01*
X128625428Y-39442765D01*
X128649227Y-39436804D01*
X128673495Y-39433204D01*
X128697999Y-39432000D01*
X129348001Y-39432000D01*
X129372505Y-39433204D01*
G37*
G04 #@! TD.AperFunction*
G04 #@! TA.AperFunction,SMDPad,CuDef*
G36*
X131422505Y-39433204D02*
G01*
X131446773Y-39436804D01*
X131470572Y-39442765D01*
X131493671Y-39451030D01*
X131515850Y-39461520D01*
X131536893Y-39474132D01*
X131556599Y-39488747D01*
X131574777Y-39505223D01*
X131591253Y-39523401D01*
X131605868Y-39543107D01*
X131618480Y-39564150D01*
X131628970Y-39586329D01*
X131637235Y-39609428D01*
X131643196Y-39633227D01*
X131646796Y-39657495D01*
X131648000Y-39681999D01*
X131648000Y-40582001D01*
X131646796Y-40606505D01*
X131643196Y-40630773D01*
X131637235Y-40654572D01*
X131628970Y-40677671D01*
X131618480Y-40699850D01*
X131605868Y-40720893D01*
X131591253Y-40740599D01*
X131574777Y-40758777D01*
X131556599Y-40775253D01*
X131536893Y-40789868D01*
X131515850Y-40802480D01*
X131493671Y-40812970D01*
X131470572Y-40821235D01*
X131446773Y-40827196D01*
X131422505Y-40830796D01*
X131398001Y-40832000D01*
X130747999Y-40832000D01*
X130723495Y-40830796D01*
X130699227Y-40827196D01*
X130675428Y-40821235D01*
X130652329Y-40812970D01*
X130630150Y-40802480D01*
X130609107Y-40789868D01*
X130589401Y-40775253D01*
X130571223Y-40758777D01*
X130554747Y-40740599D01*
X130540132Y-40720893D01*
X130527520Y-40699850D01*
X130517030Y-40677671D01*
X130508765Y-40654572D01*
X130502804Y-40630773D01*
X130499204Y-40606505D01*
X130498000Y-40582001D01*
X130498000Y-39681999D01*
X130499204Y-39657495D01*
X130502804Y-39633227D01*
X130508765Y-39609428D01*
X130517030Y-39586329D01*
X130527520Y-39564150D01*
X130540132Y-39543107D01*
X130554747Y-39523401D01*
X130571223Y-39505223D01*
X130589401Y-39488747D01*
X130609107Y-39474132D01*
X130630150Y-39461520D01*
X130652329Y-39451030D01*
X130675428Y-39442765D01*
X130699227Y-39436804D01*
X130723495Y-39433204D01*
X130747999Y-39432000D01*
X131398001Y-39432000D01*
X131422505Y-39433204D01*
G37*
G04 #@! TD.AperFunction*
D15*
X142748000Y-21844000D03*
D16*
X142748000Y-24384000D03*
X142748000Y-26924000D03*
G04 #@! TA.AperFunction,ComponentPad*
D11*
G36*
X143214657Y-28616046D02*
G01*
X143255913Y-28622166D01*
X143296371Y-28632300D01*
X143335640Y-28646351D01*
X143373344Y-28664183D01*
X143409117Y-28685625D01*
X143442617Y-28710471D01*
X143473520Y-28738480D01*
X143501529Y-28769383D01*
X143526375Y-28802883D01*
X143547817Y-28838656D01*
X143565649Y-28876360D01*
X143579700Y-28915629D01*
X143589834Y-28956087D01*
X143595954Y-28997343D01*
X143598000Y-29039000D01*
X143598000Y-29889000D01*
X143595954Y-29930657D01*
X143589834Y-29971913D01*
X143579700Y-30012371D01*
X143565649Y-30051640D01*
X143547817Y-30089344D01*
X143526375Y-30125117D01*
X143501529Y-30158617D01*
X143473520Y-30189520D01*
X143442617Y-30217529D01*
X143409117Y-30242375D01*
X143373344Y-30263817D01*
X143335640Y-30281649D01*
X143296371Y-30295700D01*
X143255913Y-30305834D01*
X143214657Y-30311954D01*
X143173000Y-30314000D01*
X142323000Y-30314000D01*
X142281343Y-30311954D01*
X142240087Y-30305834D01*
X142199629Y-30295700D01*
X142160360Y-30281649D01*
X142122656Y-30263817D01*
X142086883Y-30242375D01*
X142053383Y-30217529D01*
X142022480Y-30189520D01*
X141994471Y-30158617D01*
X141969625Y-30125117D01*
X141948183Y-30089344D01*
X141930351Y-30051640D01*
X141916300Y-30012371D01*
X141906166Y-29971913D01*
X141900046Y-29930657D01*
X141898000Y-29889000D01*
X141898000Y-29039000D01*
X141900046Y-28997343D01*
X141906166Y-28956087D01*
X141916300Y-28915629D01*
X141930351Y-28876360D01*
X141948183Y-28838656D01*
X141969625Y-28802883D01*
X141994471Y-28769383D01*
X142022480Y-28738480D01*
X142053383Y-28710471D01*
X142086883Y-28685625D01*
X142122656Y-28664183D01*
X142160360Y-28646351D01*
X142199629Y-28632300D01*
X142240087Y-28622166D01*
X142281343Y-28616046D01*
X142323000Y-28614000D01*
X143173000Y-28614000D01*
X143214657Y-28616046D01*
G37*
G04 #@! TD.AperFunction*
D16*
X142748000Y-32004000D03*
X142748000Y-34544000D03*
G04 #@! TA.AperFunction,SMDPad,CuDef*
D11*
G36*
X124934505Y-50616204D02*
G01*
X124958773Y-50619804D01*
X124982572Y-50625765D01*
X125005671Y-50634030D01*
X125027850Y-50644520D01*
X125048893Y-50657132D01*
X125068599Y-50671747D01*
X125086777Y-50688223D01*
X125103253Y-50706401D01*
X125117868Y-50726107D01*
X125130480Y-50747150D01*
X125140970Y-50769329D01*
X125149235Y-50792428D01*
X125155196Y-50816227D01*
X125158796Y-50840495D01*
X125160000Y-50864999D01*
X125160000Y-51515001D01*
X125158796Y-51539505D01*
X125155196Y-51563773D01*
X125149235Y-51587572D01*
X125140970Y-51610671D01*
X125130480Y-51632850D01*
X125117868Y-51653893D01*
X125103253Y-51673599D01*
X125086777Y-51691777D01*
X125068599Y-51708253D01*
X125048893Y-51722868D01*
X125027850Y-51735480D01*
X125005671Y-51745970D01*
X124982572Y-51754235D01*
X124958773Y-51760196D01*
X124934505Y-51763796D01*
X124910001Y-51765000D01*
X124009999Y-51765000D01*
X123985495Y-51763796D01*
X123961227Y-51760196D01*
X123937428Y-51754235D01*
X123914329Y-51745970D01*
X123892150Y-51735480D01*
X123871107Y-51722868D01*
X123851401Y-51708253D01*
X123833223Y-51691777D01*
X123816747Y-51673599D01*
X123802132Y-51653893D01*
X123789520Y-51632850D01*
X123779030Y-51610671D01*
X123770765Y-51587572D01*
X123764804Y-51563773D01*
X123761204Y-51539505D01*
X123760000Y-51515001D01*
X123760000Y-50864999D01*
X123761204Y-50840495D01*
X123764804Y-50816227D01*
X123770765Y-50792428D01*
X123779030Y-50769329D01*
X123789520Y-50747150D01*
X123802132Y-50726107D01*
X123816747Y-50706401D01*
X123833223Y-50688223D01*
X123851401Y-50671747D01*
X123871107Y-50657132D01*
X123892150Y-50644520D01*
X123914329Y-50634030D01*
X123937428Y-50625765D01*
X123961227Y-50619804D01*
X123985495Y-50616204D01*
X124009999Y-50615000D01*
X124910001Y-50615000D01*
X124934505Y-50616204D01*
G37*
G04 #@! TD.AperFunction*
G04 #@! TA.AperFunction,SMDPad,CuDef*
G36*
X124934505Y-48566204D02*
G01*
X124958773Y-48569804D01*
X124982572Y-48575765D01*
X125005671Y-48584030D01*
X125027850Y-48594520D01*
X125048893Y-48607132D01*
X125068599Y-48621747D01*
X125086777Y-48638223D01*
X125103253Y-48656401D01*
X125117868Y-48676107D01*
X125130480Y-48697150D01*
X125140970Y-48719329D01*
X125149235Y-48742428D01*
X125155196Y-48766227D01*
X125158796Y-48790495D01*
X125160000Y-48814999D01*
X125160000Y-49465001D01*
X125158796Y-49489505D01*
X125155196Y-49513773D01*
X125149235Y-49537572D01*
X125140970Y-49560671D01*
X125130480Y-49582850D01*
X125117868Y-49603893D01*
X125103253Y-49623599D01*
X125086777Y-49641777D01*
X125068599Y-49658253D01*
X125048893Y-49672868D01*
X125027850Y-49685480D01*
X125005671Y-49695970D01*
X124982572Y-49704235D01*
X124958773Y-49710196D01*
X124934505Y-49713796D01*
X124910001Y-49715000D01*
X124009999Y-49715000D01*
X123985495Y-49713796D01*
X123961227Y-49710196D01*
X123937428Y-49704235D01*
X123914329Y-49695970D01*
X123892150Y-49685480D01*
X123871107Y-49672868D01*
X123851401Y-49658253D01*
X123833223Y-49641777D01*
X123816747Y-49623599D01*
X123802132Y-49603893D01*
X123789520Y-49582850D01*
X123779030Y-49560671D01*
X123770765Y-49537572D01*
X123764804Y-49513773D01*
X123761204Y-49489505D01*
X123760000Y-49465001D01*
X123760000Y-48814999D01*
X123761204Y-48790495D01*
X123764804Y-48766227D01*
X123770765Y-48742428D01*
X123779030Y-48719329D01*
X123789520Y-48697150D01*
X123802132Y-48676107D01*
X123816747Y-48656401D01*
X123833223Y-48638223D01*
X123851401Y-48621747D01*
X123871107Y-48607132D01*
X123892150Y-48594520D01*
X123914329Y-48584030D01*
X123937428Y-48575765D01*
X123961227Y-48569804D01*
X123985495Y-48566204D01*
X124009999Y-48565000D01*
X124910001Y-48565000D01*
X124934505Y-48566204D01*
G37*
G04 #@! TD.AperFunction*
G04 #@! TA.AperFunction,SMDPad,CuDef*
G36*
X119854505Y-48557204D02*
G01*
X119878773Y-48560804D01*
X119902572Y-48566765D01*
X119925671Y-48575030D01*
X119947850Y-48585520D01*
X119968893Y-48598132D01*
X119988599Y-48612747D01*
X120006777Y-48629223D01*
X120023253Y-48647401D01*
X120037868Y-48667107D01*
X120050480Y-48688150D01*
X120060970Y-48710329D01*
X120069235Y-48733428D01*
X120075196Y-48757227D01*
X120078796Y-48781495D01*
X120080000Y-48805999D01*
X120080000Y-49456001D01*
X120078796Y-49480505D01*
X120075196Y-49504773D01*
X120069235Y-49528572D01*
X120060970Y-49551671D01*
X120050480Y-49573850D01*
X120037868Y-49594893D01*
X120023253Y-49614599D01*
X120006777Y-49632777D01*
X119988599Y-49649253D01*
X119968893Y-49663868D01*
X119947850Y-49676480D01*
X119925671Y-49686970D01*
X119902572Y-49695235D01*
X119878773Y-49701196D01*
X119854505Y-49704796D01*
X119830001Y-49706000D01*
X118929999Y-49706000D01*
X118905495Y-49704796D01*
X118881227Y-49701196D01*
X118857428Y-49695235D01*
X118834329Y-49686970D01*
X118812150Y-49676480D01*
X118791107Y-49663868D01*
X118771401Y-49649253D01*
X118753223Y-49632777D01*
X118736747Y-49614599D01*
X118722132Y-49594893D01*
X118709520Y-49573850D01*
X118699030Y-49551671D01*
X118690765Y-49528572D01*
X118684804Y-49504773D01*
X118681204Y-49480505D01*
X118680000Y-49456001D01*
X118680000Y-48805999D01*
X118681204Y-48781495D01*
X118684804Y-48757227D01*
X118690765Y-48733428D01*
X118699030Y-48710329D01*
X118709520Y-48688150D01*
X118722132Y-48667107D01*
X118736747Y-48647401D01*
X118753223Y-48629223D01*
X118771401Y-48612747D01*
X118791107Y-48598132D01*
X118812150Y-48585520D01*
X118834329Y-48575030D01*
X118857428Y-48566765D01*
X118881227Y-48560804D01*
X118905495Y-48557204D01*
X118929999Y-48556000D01*
X119830001Y-48556000D01*
X119854505Y-48557204D01*
G37*
G04 #@! TD.AperFunction*
G04 #@! TA.AperFunction,SMDPad,CuDef*
G36*
X119854505Y-50607204D02*
G01*
X119878773Y-50610804D01*
X119902572Y-50616765D01*
X119925671Y-50625030D01*
X119947850Y-50635520D01*
X119968893Y-50648132D01*
X119988599Y-50662747D01*
X120006777Y-50679223D01*
X120023253Y-50697401D01*
X120037868Y-50717107D01*
X120050480Y-50738150D01*
X120060970Y-50760329D01*
X120069235Y-50783428D01*
X120075196Y-50807227D01*
X120078796Y-50831495D01*
X120080000Y-50855999D01*
X120080000Y-51506001D01*
X120078796Y-51530505D01*
X120075196Y-51554773D01*
X120069235Y-51578572D01*
X120060970Y-51601671D01*
X120050480Y-51623850D01*
X120037868Y-51644893D01*
X120023253Y-51664599D01*
X120006777Y-51682777D01*
X119988599Y-51699253D01*
X119968893Y-51713868D01*
X119947850Y-51726480D01*
X119925671Y-51736970D01*
X119902572Y-51745235D01*
X119878773Y-51751196D01*
X119854505Y-51754796D01*
X119830001Y-51756000D01*
X118929999Y-51756000D01*
X118905495Y-51754796D01*
X118881227Y-51751196D01*
X118857428Y-51745235D01*
X118834329Y-51736970D01*
X118812150Y-51726480D01*
X118791107Y-51713868D01*
X118771401Y-51699253D01*
X118753223Y-51682777D01*
X118736747Y-51664599D01*
X118722132Y-51644893D01*
X118709520Y-51623850D01*
X118699030Y-51601671D01*
X118690765Y-51578572D01*
X118684804Y-51554773D01*
X118681204Y-51530505D01*
X118680000Y-51506001D01*
X118680000Y-50855999D01*
X118681204Y-50831495D01*
X118684804Y-50807227D01*
X118690765Y-50783428D01*
X118699030Y-50760329D01*
X118709520Y-50738150D01*
X118722132Y-50717107D01*
X118736747Y-50697401D01*
X118753223Y-50679223D01*
X118771401Y-50662747D01*
X118791107Y-50648132D01*
X118812150Y-50635520D01*
X118834329Y-50625030D01*
X118857428Y-50616765D01*
X118881227Y-50610804D01*
X118905495Y-50607204D01*
X118929999Y-50606000D01*
X119830001Y-50606000D01*
X119854505Y-50607204D01*
G37*
G04 #@! TD.AperFunction*
G04 #@! TA.AperFunction,SMDPad,CuDef*
G36*
X125063505Y-33845204D02*
G01*
X125087773Y-33848804D01*
X125111572Y-33854765D01*
X125134671Y-33863030D01*
X125156850Y-33873520D01*
X125177893Y-33886132D01*
X125197599Y-33900747D01*
X125215777Y-33917223D01*
X125232253Y-33935401D01*
X125246868Y-33955107D01*
X125259480Y-33976150D01*
X125269970Y-33998329D01*
X125278235Y-34021428D01*
X125284196Y-34045227D01*
X125287796Y-34069495D01*
X125289000Y-34093999D01*
X125289000Y-34994001D01*
X125287796Y-35018505D01*
X125284196Y-35042773D01*
X125278235Y-35066572D01*
X125269970Y-35089671D01*
X125259480Y-35111850D01*
X125246868Y-35132893D01*
X125232253Y-35152599D01*
X125215777Y-35170777D01*
X125197599Y-35187253D01*
X125177893Y-35201868D01*
X125156850Y-35214480D01*
X125134671Y-35224970D01*
X125111572Y-35233235D01*
X125087773Y-35239196D01*
X125063505Y-35242796D01*
X125039001Y-35244000D01*
X124388999Y-35244000D01*
X124364495Y-35242796D01*
X124340227Y-35239196D01*
X124316428Y-35233235D01*
X124293329Y-35224970D01*
X124271150Y-35214480D01*
X124250107Y-35201868D01*
X124230401Y-35187253D01*
X124212223Y-35170777D01*
X124195747Y-35152599D01*
X124181132Y-35132893D01*
X124168520Y-35111850D01*
X124158030Y-35089671D01*
X124149765Y-35066572D01*
X124143804Y-35042773D01*
X124140204Y-35018505D01*
X124139000Y-34994001D01*
X124139000Y-34093999D01*
X124140204Y-34069495D01*
X124143804Y-34045227D01*
X124149765Y-34021428D01*
X124158030Y-33998329D01*
X124168520Y-33976150D01*
X124181132Y-33955107D01*
X124195747Y-33935401D01*
X124212223Y-33917223D01*
X124230401Y-33900747D01*
X124250107Y-33886132D01*
X124271150Y-33873520D01*
X124293329Y-33863030D01*
X124316428Y-33854765D01*
X124340227Y-33848804D01*
X124364495Y-33845204D01*
X124388999Y-33844000D01*
X125039001Y-33844000D01*
X125063505Y-33845204D01*
G37*
G04 #@! TD.AperFunction*
G04 #@! TA.AperFunction,SMDPad,CuDef*
G36*
X123013505Y-33845204D02*
G01*
X123037773Y-33848804D01*
X123061572Y-33854765D01*
X123084671Y-33863030D01*
X123106850Y-33873520D01*
X123127893Y-33886132D01*
X123147599Y-33900747D01*
X123165777Y-33917223D01*
X123182253Y-33935401D01*
X123196868Y-33955107D01*
X123209480Y-33976150D01*
X123219970Y-33998329D01*
X123228235Y-34021428D01*
X123234196Y-34045227D01*
X123237796Y-34069495D01*
X123239000Y-34093999D01*
X123239000Y-34994001D01*
X123237796Y-35018505D01*
X123234196Y-35042773D01*
X123228235Y-35066572D01*
X123219970Y-35089671D01*
X123209480Y-35111850D01*
X123196868Y-35132893D01*
X123182253Y-35152599D01*
X123165777Y-35170777D01*
X123147599Y-35187253D01*
X123127893Y-35201868D01*
X123106850Y-35214480D01*
X123084671Y-35224970D01*
X123061572Y-35233235D01*
X123037773Y-35239196D01*
X123013505Y-35242796D01*
X122989001Y-35244000D01*
X122338999Y-35244000D01*
X122314495Y-35242796D01*
X122290227Y-35239196D01*
X122266428Y-35233235D01*
X122243329Y-35224970D01*
X122221150Y-35214480D01*
X122200107Y-35201868D01*
X122180401Y-35187253D01*
X122162223Y-35170777D01*
X122145747Y-35152599D01*
X122131132Y-35132893D01*
X122118520Y-35111850D01*
X122108030Y-35089671D01*
X122099765Y-35066572D01*
X122093804Y-35042773D01*
X122090204Y-35018505D01*
X122089000Y-34994001D01*
X122089000Y-34093999D01*
X122090204Y-34069495D01*
X122093804Y-34045227D01*
X122099765Y-34021428D01*
X122108030Y-33998329D01*
X122118520Y-33976150D01*
X122131132Y-33955107D01*
X122145747Y-33935401D01*
X122162223Y-33917223D01*
X122180401Y-33900747D01*
X122200107Y-33886132D01*
X122221150Y-33873520D01*
X122243329Y-33863030D01*
X122266428Y-33854765D01*
X122290227Y-33848804D01*
X122314495Y-33845204D01*
X122338999Y-33844000D01*
X122989001Y-33844000D01*
X123013505Y-33845204D01*
G37*
G04 #@! TD.AperFunction*
D17*
X122428000Y-39624000D03*
X124714000Y-44704000D03*
X119380000Y-49131000D03*
X122682000Y-34544000D03*
X134620000Y-49022000D03*
X129286000Y-22098000D03*
X125476000Y-22098000D03*
X131064000Y-34544000D03*
X134620000Y-47117000D03*
X118872000Y-43053000D03*
X118618000Y-37084000D03*
X118872000Y-41061614D03*
D18*
X122419000Y-44441000D02*
X122682000Y-44704000D01*
X122428000Y-39878000D02*
X122419000Y-44441000D01*
X129014000Y-44004000D02*
X129014000Y-39624000D01*
X129014000Y-44704000D02*
X129014000Y-44004000D01*
X129014000Y-39624000D02*
X129014000Y-34544000D01*
X124714000Y-44704000D02*
X129014000Y-44704000D01*
X124723000Y-48877000D02*
X124460000Y-49140000D01*
X124451000Y-49131000D02*
X124460000Y-49140000D01*
X119380000Y-49131000D02*
X119380000Y-49131000D01*
X129014000Y-34544000D02*
X128439000Y-34544000D01*
X127000000Y-34544000D02*
X129014000Y-34544000D01*
X127000000Y-34544000D02*
X124714000Y-34544000D01*
X127169000Y-34544000D02*
X127000000Y-34544000D01*
X124723000Y-48886000D02*
X124460000Y-49149000D01*
X124723000Y-44704000D02*
X124723000Y-48886000D01*
X119380000Y-49131000D02*
X124451000Y-49131000D01*
X140636000Y-45132000D02*
X142748000Y-45132000D01*
X141523000Y-45132000D02*
X142748000Y-45132000D01*
X135373000Y-45132000D02*
X141523000Y-45132000D01*
X131073000Y-40832000D02*
X135373000Y-45132000D01*
X131073000Y-40132000D02*
X131073000Y-40832000D01*
X131064000Y-49084000D02*
X131064000Y-49784000D01*
X133031000Y-47117000D02*
X131064000Y-49084000D01*
X134620000Y-47117000D02*
X133031000Y-47117000D01*
X128604000Y-57404000D02*
X128604000Y-54944000D01*
X115824000Y-44448000D02*
X117220000Y-43052000D01*
X128604000Y-54944000D02*
X128016000Y-54356000D01*
X128016000Y-54356000D02*
X116332000Y-54356000D01*
X116332000Y-54356000D02*
X115824000Y-53848000D01*
X115824000Y-53848000D02*
X115824000Y-44448000D01*
X117221000Y-43053000D02*
X118872000Y-43053000D01*
X117220000Y-43052000D02*
X117221000Y-43053000D01*
X114300000Y-43688000D02*
X113324000Y-42712000D01*
X113324000Y-42712000D02*
X111252000Y-42712000D01*
X126104000Y-56179000D02*
X125297000Y-55372000D01*
X126104000Y-57404000D02*
X126104000Y-56179000D01*
X125297000Y-55372000D02*
X115824000Y-55372000D01*
X114300000Y-53848000D02*
X114300000Y-43688000D01*
X115824000Y-55372000D02*
X114300000Y-53848000D01*
X123604000Y-58768000D02*
X123604000Y-57404000D01*
X123190000Y-59182000D02*
X123604000Y-58768000D01*
X117009000Y-59182000D02*
X123190000Y-59182000D01*
X111252000Y-54650000D02*
X112477000Y-54650000D01*
X112477000Y-54650000D02*
X117009000Y-59182000D01*
X116840000Y-37084000D02*
X114808000Y-35052000D01*
X114808000Y-35052000D02*
X111252000Y-35052000D01*
X118618000Y-37084000D02*
X116840000Y-37084000D01*
X113792000Y-37592000D02*
X111252000Y-37592000D01*
X118872000Y-41061614D02*
X117261614Y-41061614D01*
X117261614Y-41061614D02*
X113792000Y-37592000D01*
D19*
G36*
X145390000Y-60046000D02*
G01*
X108610000Y-60046000D01*
X108610000Y-51793110D01*
X109685524Y-51793110D01*
X109806845Y-52023000D01*
X111125000Y-52023000D01*
X111125000Y-50823835D01*
X111379000Y-50823835D01*
X111379000Y-52023000D01*
X112697155Y-52023000D01*
X112818476Y-51793110D01*
X112726352Y-51530142D01*
X112579496Y-51278807D01*
X112386429Y-51060951D01*
X112154570Y-50884947D01*
X111892830Y-50757558D01*
X111611267Y-50683680D01*
X111379000Y-50823835D01*
X111125000Y-50823835D01*
X110892733Y-50683680D01*
X110611170Y-50757558D01*
X110349430Y-50884947D01*
X110117571Y-51060951D01*
X109924504Y-51278807D01*
X109777648Y-51530142D01*
X109685524Y-51793110D01*
X108610000Y-51793110D01*
X108610000Y-34890967D01*
X109617000Y-34890967D01*
X109617000Y-35213033D01*
X109679832Y-35528912D01*
X109803082Y-35826463D01*
X109982013Y-36094252D01*
X110209748Y-36321987D01*
X110209767Y-36322000D01*
X110209748Y-36322013D01*
X109982013Y-36549748D01*
X109803082Y-36817537D01*
X109679832Y-37115088D01*
X109617000Y-37430967D01*
X109617000Y-37753033D01*
X109679832Y-38068912D01*
X109803082Y-38366463D01*
X109982013Y-38634252D01*
X110209748Y-38861987D01*
X110343564Y-38951400D01*
X110117571Y-39122951D01*
X109924504Y-39340807D01*
X109777648Y-39592142D01*
X109685524Y-39855110D01*
X109806845Y-40085000D01*
X111125000Y-40085000D01*
X111125000Y-40065000D01*
X111379000Y-40065000D01*
X111379000Y-40085000D01*
X112697155Y-40085000D01*
X112818476Y-39855110D01*
X112726352Y-39592142D01*
X112579496Y-39340807D01*
X112386429Y-39122951D01*
X112160436Y-38951400D01*
X112294252Y-38861987D01*
X112521987Y-38634252D01*
X112700918Y-38366463D01*
X112706909Y-38352000D01*
X113477199Y-38352000D01*
X116697815Y-41572617D01*
X116721613Y-41601615D01*
X116837338Y-41696588D01*
X116969367Y-41767160D01*
X117112628Y-41810617D01*
X117224281Y-41821614D01*
X117224290Y-41821614D01*
X117261613Y-41825290D01*
X117298936Y-41821614D01*
X118168289Y-41821614D01*
X118212226Y-41865551D01*
X118381744Y-41978819D01*
X118570102Y-42056840D01*
X118572450Y-42057307D01*
X118570102Y-42057774D01*
X118381744Y-42135795D01*
X118212226Y-42249063D01*
X118168289Y-42293000D01*
X117267475Y-42293000D01*
X117220000Y-42288324D01*
X117219999Y-42288324D01*
X117071013Y-42302998D01*
X116927753Y-42346454D01*
X116795723Y-42417026D01*
X116712083Y-42485668D01*
X116679999Y-42511999D01*
X116656201Y-42540997D01*
X115312998Y-43884201D01*
X115284000Y-43907999D01*
X115260202Y-43936997D01*
X115260201Y-43936998D01*
X115189026Y-44023724D01*
X115118454Y-44155754D01*
X115107157Y-44192998D01*
X115075838Y-44296247D01*
X115074998Y-44299015D01*
X115060324Y-44448000D01*
X115064001Y-44485332D01*
X115064000Y-53537199D01*
X115060000Y-53533199D01*
X115060000Y-43725322D01*
X115063676Y-43687999D01*
X115060000Y-43650676D01*
X115060000Y-43650667D01*
X115049003Y-43539014D01*
X115005546Y-43395753D01*
X114934974Y-43263724D01*
X114915769Y-43240323D01*
X114863799Y-43176996D01*
X114863795Y-43176992D01*
X114840001Y-43147999D01*
X114811008Y-43124205D01*
X113887803Y-42201002D01*
X113864001Y-42171999D01*
X113748276Y-42077026D01*
X113616247Y-42006454D01*
X113472986Y-41962997D01*
X113361333Y-41952000D01*
X113361322Y-41952000D01*
X113324000Y-41948324D01*
X113286678Y-41952000D01*
X112654595Y-41952000D01*
X112617706Y-41882986D01*
X112432134Y-41656866D01*
X112206014Y-41471294D01*
X112180278Y-41457538D01*
X112386429Y-41301049D01*
X112579496Y-41083193D01*
X112726352Y-40831858D01*
X112818476Y-40568890D01*
X112697155Y-40339000D01*
X111379000Y-40339000D01*
X111379000Y-40359000D01*
X111125000Y-40359000D01*
X111125000Y-40339000D01*
X109806845Y-40339000D01*
X109685524Y-40568890D01*
X109777648Y-40831858D01*
X109924504Y-41083193D01*
X110117571Y-41301049D01*
X110323722Y-41457538D01*
X110297986Y-41471294D01*
X110071866Y-41656866D01*
X109886294Y-41882986D01*
X109748401Y-42140966D01*
X109663487Y-42420889D01*
X109634815Y-42712000D01*
X109663487Y-43003111D01*
X109748401Y-43283034D01*
X109886294Y-43541014D01*
X110071866Y-43767134D01*
X110135337Y-43819223D01*
X110033614Y-43873595D01*
X109899038Y-43984038D01*
X109788595Y-44118614D01*
X109706528Y-44272150D01*
X109655992Y-44438746D01*
X109638928Y-44612000D01*
X109638928Y-45812000D01*
X109655992Y-45985254D01*
X109706528Y-46151850D01*
X109788595Y-46305386D01*
X109899038Y-46439962D01*
X110033614Y-46550405D01*
X110187150Y-46632472D01*
X110353746Y-46683008D01*
X110527000Y-46700072D01*
X111977000Y-46700072D01*
X112150254Y-46683008D01*
X112316850Y-46632472D01*
X112470386Y-46550405D01*
X112604962Y-46439962D01*
X112715405Y-46305386D01*
X112797472Y-46151850D01*
X112848008Y-45985254D01*
X112865072Y-45812000D01*
X112865072Y-44612000D01*
X112848008Y-44438746D01*
X112797472Y-44272150D01*
X112715405Y-44118614D01*
X112604962Y-43984038D01*
X112470386Y-43873595D01*
X112368663Y-43819223D01*
X112432134Y-43767134D01*
X112617706Y-43541014D01*
X112654595Y-43472000D01*
X113009199Y-43472000D01*
X113540001Y-44002803D01*
X113540000Y-53810678D01*
X113536324Y-53848000D01*
X113540000Y-53885322D01*
X113540000Y-53885332D01*
X113550997Y-53996985D01*
X113578060Y-54086201D01*
X113594454Y-54140246D01*
X113665026Y-54272276D01*
X113695186Y-54309026D01*
X113759999Y-54388001D01*
X113789002Y-54411803D01*
X115260205Y-55883008D01*
X115283999Y-55912001D01*
X115312992Y-55935795D01*
X115312996Y-55935799D01*
X115383685Y-55993811D01*
X115399724Y-56006974D01*
X115531753Y-56077546D01*
X115675014Y-56121003D01*
X115786667Y-56132000D01*
X115786676Y-56132000D01*
X115823999Y-56135676D01*
X115861322Y-56132000D01*
X120160805Y-56132000D01*
X120048866Y-56223866D01*
X119863294Y-56449986D01*
X119725401Y-56707966D01*
X119640487Y-56987889D01*
X119619000Y-57206050D01*
X119619000Y-57601949D01*
X119640487Y-57820110D01*
X119725401Y-58100033D01*
X119863294Y-58358013D01*
X119915807Y-58422000D01*
X117323802Y-58422000D01*
X113040804Y-54139003D01*
X113017001Y-54109999D01*
X112901276Y-54015026D01*
X112769247Y-53944454D01*
X112667146Y-53913483D01*
X112617706Y-53820986D01*
X112432134Y-53594866D01*
X112206014Y-53409294D01*
X112180278Y-53395538D01*
X112386429Y-53239049D01*
X112579496Y-53021193D01*
X112726352Y-52769858D01*
X112818476Y-52506890D01*
X112697155Y-52277000D01*
X111379000Y-52277000D01*
X111379000Y-52297000D01*
X111125000Y-52297000D01*
X111125000Y-52277000D01*
X109806845Y-52277000D01*
X109685524Y-52506890D01*
X109777648Y-52769858D01*
X109924504Y-53021193D01*
X110117571Y-53239049D01*
X110323722Y-53395538D01*
X110297986Y-53409294D01*
X110071866Y-53594866D01*
X109886294Y-53820986D01*
X109748401Y-54078966D01*
X109663487Y-54358889D01*
X109634815Y-54650000D01*
X109663487Y-54941111D01*
X109748401Y-55221034D01*
X109886294Y-55479014D01*
X110071866Y-55705134D01*
X110135337Y-55757223D01*
X110033614Y-55811595D01*
X109899038Y-55922038D01*
X109788595Y-56056614D01*
X109706528Y-56210150D01*
X109655992Y-56376746D01*
X109638928Y-56550000D01*
X109638928Y-57750000D01*
X109655992Y-57923254D01*
X109706528Y-58089850D01*
X109788595Y-58243386D01*
X109899038Y-58377962D01*
X110033614Y-58488405D01*
X110187150Y-58570472D01*
X110353746Y-58621008D01*
X110527000Y-58638072D01*
X111977000Y-58638072D01*
X112150254Y-58621008D01*
X112316850Y-58570472D01*
X112470386Y-58488405D01*
X112604962Y-58377962D01*
X112715405Y-58243386D01*
X112797472Y-58089850D01*
X112848008Y-57923254D01*
X112865072Y-57750000D01*
X112865072Y-56550000D01*
X112848008Y-56376746D01*
X112797472Y-56210150D01*
X112715405Y-56056614D01*
X112604962Y-55922038D01*
X112470386Y-55811595D01*
X112368663Y-55757223D01*
X112432134Y-55705134D01*
X112443493Y-55691294D01*
X116445201Y-59693003D01*
X116468999Y-59722001D01*
X116584724Y-59816974D01*
X116716753Y-59887546D01*
X116860014Y-59931003D01*
X116971667Y-59942000D01*
X116971677Y-59942000D01*
X117009000Y-59945676D01*
X117046323Y-59942000D01*
X123152678Y-59942000D01*
X123190000Y-59945676D01*
X123227322Y-59942000D01*
X123227333Y-59942000D01*
X123338986Y-59931003D01*
X123482247Y-59887546D01*
X123614276Y-59816974D01*
X123730001Y-59722001D01*
X123753803Y-59692998D01*
X124115003Y-59331799D01*
X124144001Y-59308001D01*
X124238974Y-59192276D01*
X124309546Y-59060247D01*
X124353003Y-58916986D01*
X124363869Y-58806664D01*
X124433013Y-58769706D01*
X124659134Y-58584134D01*
X124844706Y-58358014D01*
X124854000Y-58340626D01*
X124863294Y-58358013D01*
X125048866Y-58584134D01*
X125274986Y-58769706D01*
X125532966Y-58907599D01*
X125812889Y-58992513D01*
X126104000Y-59021185D01*
X126395110Y-58992513D01*
X126675033Y-58907599D01*
X126933013Y-58769706D01*
X127159134Y-58584134D01*
X127344706Y-58358014D01*
X127354000Y-58340626D01*
X127363294Y-58358013D01*
X127548866Y-58584134D01*
X127774986Y-58769706D01*
X128032966Y-58907599D01*
X128312889Y-58992513D01*
X128604000Y-59021185D01*
X128895110Y-58992513D01*
X129175033Y-58907599D01*
X129433013Y-58769706D01*
X129659134Y-58584134D01*
X129844706Y-58358014D01*
X129858462Y-58332278D01*
X130014951Y-58538429D01*
X130232807Y-58731496D01*
X130484142Y-58878352D01*
X130747110Y-58970476D01*
X130977000Y-58849155D01*
X130977000Y-57531000D01*
X130957000Y-57531000D01*
X130957000Y-57277000D01*
X130977000Y-57277000D01*
X130977000Y-55958845D01*
X131231000Y-55958845D01*
X131231000Y-57277000D01*
X131251000Y-57277000D01*
X131251000Y-57531000D01*
X131231000Y-57531000D01*
X131231000Y-58849155D01*
X131460890Y-58970476D01*
X131723858Y-58878352D01*
X131975193Y-58731496D01*
X132193049Y-58538429D01*
X132209286Y-58517039D01*
X132265595Y-58622386D01*
X132376038Y-58756962D01*
X132510614Y-58867405D01*
X132664150Y-58949472D01*
X132830746Y-59000008D01*
X133004000Y-59017072D01*
X134204000Y-59017072D01*
X134377254Y-59000008D01*
X134543850Y-58949472D01*
X134697386Y-58867405D01*
X134831962Y-58756962D01*
X134942405Y-58622386D01*
X135024472Y-58468850D01*
X135075008Y-58302254D01*
X135092072Y-58129000D01*
X135092072Y-57720890D01*
X141156524Y-57720890D01*
X141158446Y-57733261D01*
X141258146Y-58007009D01*
X141409336Y-58256046D01*
X141606205Y-58470802D01*
X141841188Y-58643025D01*
X142105255Y-58766096D01*
X142388258Y-58835285D01*
X142621000Y-58691232D01*
X142621000Y-57491000D01*
X142875000Y-57491000D01*
X142875000Y-58691232D01*
X143107742Y-58835285D01*
X143390745Y-58766096D01*
X143654812Y-58643025D01*
X143889795Y-58470802D01*
X144086664Y-58256046D01*
X144237854Y-58007009D01*
X144337554Y-57733261D01*
X144339476Y-57720890D01*
X144218155Y-57491000D01*
X142875000Y-57491000D01*
X142621000Y-57491000D01*
X141277845Y-57491000D01*
X141156524Y-57720890D01*
X135092072Y-57720890D01*
X135092072Y-56679000D01*
X135075008Y-56505746D01*
X135024472Y-56339150D01*
X134942405Y-56185614D01*
X134831962Y-56051038D01*
X134697386Y-55940595D01*
X134543850Y-55858528D01*
X134377254Y-55807992D01*
X134204000Y-55790928D01*
X133004000Y-55790928D01*
X132830746Y-55807992D01*
X132664150Y-55858528D01*
X132510614Y-55940595D01*
X132376038Y-56051038D01*
X132265595Y-56185614D01*
X132209286Y-56290961D01*
X132193049Y-56269571D01*
X131975193Y-56076504D01*
X131723858Y-55929648D01*
X131460890Y-55837524D01*
X131231000Y-55958845D01*
X130977000Y-55958845D01*
X130747110Y-55837524D01*
X130484142Y-55929648D01*
X130232807Y-56076504D01*
X130014951Y-56269571D01*
X129858462Y-56475722D01*
X129844706Y-56449986D01*
X129659134Y-56223866D01*
X129433014Y-56038294D01*
X129364000Y-56001405D01*
X129364000Y-54981333D01*
X129367677Y-54944000D01*
X129353003Y-54795014D01*
X129309546Y-54651753D01*
X129238974Y-54519724D01*
X129167799Y-54432997D01*
X129144001Y-54403999D01*
X129115002Y-54380200D01*
X128998802Y-54264000D01*
X141109928Y-54264000D01*
X141109928Y-55464000D01*
X141126992Y-55637254D01*
X141177528Y-55803850D01*
X141259595Y-55957386D01*
X141370038Y-56091962D01*
X141504614Y-56202405D01*
X141606593Y-56256914D01*
X141606205Y-56257198D01*
X141409336Y-56471954D01*
X141258146Y-56720991D01*
X141158446Y-56994739D01*
X141156524Y-57007110D01*
X141277845Y-57237000D01*
X142621000Y-57237000D01*
X142621000Y-57217000D01*
X142875000Y-57217000D01*
X142875000Y-57237000D01*
X144218155Y-57237000D01*
X144339476Y-57007110D01*
X144337554Y-56994739D01*
X144237854Y-56720991D01*
X144086664Y-56471954D01*
X143889795Y-56257198D01*
X143889407Y-56256914D01*
X143991386Y-56202405D01*
X144125962Y-56091962D01*
X144236405Y-55957386D01*
X144318472Y-55803850D01*
X144369008Y-55637254D01*
X144386072Y-55464000D01*
X144386072Y-54264000D01*
X144369008Y-54090746D01*
X144318472Y-53924150D01*
X144236405Y-53770614D01*
X144125962Y-53636038D01*
X143991386Y-53525595D01*
X143837850Y-53443528D01*
X143671254Y-53392992D01*
X143498000Y-53375928D01*
X141998000Y-53375928D01*
X141824746Y-53392992D01*
X141658150Y-53443528D01*
X141504614Y-53525595D01*
X141370038Y-53636038D01*
X141259595Y-53770614D01*
X141177528Y-53924150D01*
X141126992Y-54090746D01*
X141109928Y-54264000D01*
X128998802Y-54264000D01*
X128579803Y-53845002D01*
X128556001Y-53815999D01*
X128440276Y-53721026D01*
X128308247Y-53650454D01*
X128164986Y-53606997D01*
X128053333Y-53596000D01*
X128053322Y-53596000D01*
X128016000Y-53592324D01*
X127978678Y-53596000D01*
X116646802Y-53596000D01*
X116584000Y-53533199D01*
X116584000Y-51756000D01*
X118041928Y-51756000D01*
X118054188Y-51880482D01*
X118090498Y-52000180D01*
X118149463Y-52110494D01*
X118228815Y-52207185D01*
X118325506Y-52286537D01*
X118435820Y-52345502D01*
X118555518Y-52381812D01*
X118680000Y-52394072D01*
X119094250Y-52391000D01*
X119253000Y-52232250D01*
X119253000Y-51308000D01*
X119507000Y-51308000D01*
X119507000Y-52232250D01*
X119665750Y-52391000D01*
X120080000Y-52394072D01*
X120204482Y-52381812D01*
X120324180Y-52345502D01*
X120434494Y-52286537D01*
X120531185Y-52207185D01*
X120610537Y-52110494D01*
X120669502Y-52000180D01*
X120705812Y-51880482D01*
X120717185Y-51765000D01*
X123121928Y-51765000D01*
X123134188Y-51889482D01*
X123170498Y-52009180D01*
X123229463Y-52119494D01*
X123308815Y-52216185D01*
X123405506Y-52295537D01*
X123515820Y-52354502D01*
X123635518Y-52390812D01*
X123760000Y-52403072D01*
X124174250Y-52400000D01*
X124333000Y-52241250D01*
X124333000Y-51317000D01*
X124587000Y-51317000D01*
X124587000Y-52241250D01*
X124745750Y-52400000D01*
X125160000Y-52403072D01*
X125284482Y-52390812D01*
X125404180Y-52354502D01*
X125514494Y-52295537D01*
X125611185Y-52216185D01*
X125690537Y-52119494D01*
X125749502Y-52009180D01*
X125785812Y-51889482D01*
X125798072Y-51765000D01*
X125795000Y-51475750D01*
X125636250Y-51317000D01*
X124587000Y-51317000D01*
X124333000Y-51317000D01*
X123283750Y-51317000D01*
X123125000Y-51475750D01*
X123121928Y-51765000D01*
X120717185Y-51765000D01*
X120718072Y-51756000D01*
X120715000Y-51466750D01*
X120556250Y-51308000D01*
X119507000Y-51308000D01*
X119253000Y-51308000D01*
X118203750Y-51308000D01*
X118045000Y-51466750D01*
X118041928Y-51756000D01*
X116584000Y-51756000D01*
X116584000Y-48805999D01*
X118041928Y-48805999D01*
X118041928Y-49456001D01*
X118058992Y-49629255D01*
X118109528Y-49795851D01*
X118191595Y-49949387D01*
X118302038Y-50083962D01*
X118308594Y-50089342D01*
X118228815Y-50154815D01*
X118149463Y-50251506D01*
X118090498Y-50361820D01*
X118054188Y-50481518D01*
X118041928Y-50606000D01*
X118045000Y-50895250D01*
X118203750Y-51054000D01*
X119253000Y-51054000D01*
X119253000Y-51034000D01*
X119507000Y-51034000D01*
X119507000Y-51054000D01*
X120556250Y-51054000D01*
X120715000Y-50895250D01*
X120718072Y-50606000D01*
X120705812Y-50481518D01*
X120669502Y-50361820D01*
X120610537Y-50251506D01*
X120531185Y-50154815D01*
X120451406Y-50089342D01*
X120457962Y-50083962D01*
X120568405Y-49949387D01*
X120599614Y-49891000D01*
X123235576Y-49891000D01*
X123271595Y-49958387D01*
X123382038Y-50092962D01*
X123388594Y-50098342D01*
X123308815Y-50163815D01*
X123229463Y-50260506D01*
X123170498Y-50370820D01*
X123134188Y-50490518D01*
X123121928Y-50615000D01*
X123125000Y-50904250D01*
X123283750Y-51063000D01*
X124333000Y-51063000D01*
X124333000Y-51043000D01*
X124587000Y-51043000D01*
X124587000Y-51063000D01*
X125636250Y-51063000D01*
X125795000Y-50904250D01*
X125798072Y-50615000D01*
X125785812Y-50490518D01*
X125783835Y-50484000D01*
X127800928Y-50484000D01*
X127813188Y-50608482D01*
X127849498Y-50728180D01*
X127908463Y-50838494D01*
X127987815Y-50935185D01*
X128084506Y-51014537D01*
X128194820Y-51073502D01*
X128314518Y-51109812D01*
X128439000Y-51122072D01*
X128728250Y-51119000D01*
X128887000Y-50960250D01*
X128887000Y-49911000D01*
X127962750Y-49911000D01*
X127804000Y-50069750D01*
X127800928Y-50484000D01*
X125783835Y-50484000D01*
X125749502Y-50370820D01*
X125690537Y-50260506D01*
X125611185Y-50163815D01*
X125531406Y-50098342D01*
X125537962Y-50092962D01*
X125648405Y-49958387D01*
X125730472Y-49804851D01*
X125781008Y-49638255D01*
X125798072Y-49465001D01*
X125798072Y-49084000D01*
X127800928Y-49084000D01*
X127804000Y-49498250D01*
X127962750Y-49657000D01*
X128887000Y-49657000D01*
X128887000Y-48607750D01*
X129141000Y-48607750D01*
X129141000Y-49657000D01*
X129161000Y-49657000D01*
X129161000Y-49911000D01*
X129141000Y-49911000D01*
X129141000Y-50960250D01*
X129299750Y-51119000D01*
X129589000Y-51122072D01*
X129713482Y-51109812D01*
X129833180Y-51073502D01*
X129943494Y-51014537D01*
X130040185Y-50935185D01*
X130105658Y-50855406D01*
X130111038Y-50861962D01*
X130245613Y-50972405D01*
X130399149Y-51054472D01*
X130565745Y-51105008D01*
X130738999Y-51122072D01*
X131389001Y-51122072D01*
X131562255Y-51105008D01*
X131728851Y-51054472D01*
X131882387Y-50972405D01*
X132016962Y-50861962D01*
X132127405Y-50727387D01*
X132209472Y-50573851D01*
X132260008Y-50407255D01*
X132277072Y-50234001D01*
X132277072Y-49333999D01*
X132260008Y-49160745D01*
X132213936Y-49008865D01*
X133345802Y-47877000D01*
X133916289Y-47877000D01*
X133960226Y-47920937D01*
X134129744Y-48034205D01*
X134318102Y-48112226D01*
X134518061Y-48152000D01*
X134721939Y-48152000D01*
X134921898Y-48112226D01*
X135110256Y-48034205D01*
X135279774Y-47920937D01*
X135423937Y-47776774D01*
X135537205Y-47607256D01*
X135615226Y-47418898D01*
X135655000Y-47218939D01*
X135655000Y-47015061D01*
X135615226Y-46815102D01*
X135537205Y-46626744D01*
X135423937Y-46457226D01*
X135279774Y-46313063D01*
X135110256Y-46199795D01*
X134921898Y-46121774D01*
X134721939Y-46082000D01*
X134518061Y-46082000D01*
X134318102Y-46121774D01*
X134129744Y-46199795D01*
X133960226Y-46313063D01*
X133916289Y-46357000D01*
X133068322Y-46357000D01*
X133030999Y-46353324D01*
X132993676Y-46357000D01*
X132993667Y-46357000D01*
X132882014Y-46367997D01*
X132738753Y-46411454D01*
X132606723Y-46482026D01*
X132523404Y-46550405D01*
X132490999Y-46576999D01*
X132467201Y-46605997D01*
X130615064Y-48458134D01*
X130565745Y-48462992D01*
X130399149Y-48513528D01*
X130245613Y-48595595D01*
X130111038Y-48706038D01*
X130105658Y-48712594D01*
X130040185Y-48632815D01*
X129943494Y-48553463D01*
X129833180Y-48494498D01*
X129713482Y-48458188D01*
X129589000Y-48445928D01*
X129299750Y-48449000D01*
X129141000Y-48607750D01*
X128887000Y-48607750D01*
X128728250Y-48449000D01*
X128439000Y-48445928D01*
X128314518Y-48458188D01*
X128194820Y-48494498D01*
X128084506Y-48553463D01*
X127987815Y-48632815D01*
X127908463Y-48729506D01*
X127849498Y-48839820D01*
X127813188Y-48959518D01*
X127800928Y-49084000D01*
X125798072Y-49084000D01*
X125798072Y-48814999D01*
X125781008Y-48641745D01*
X125730472Y-48475149D01*
X125648405Y-48321613D01*
X125537962Y-48187038D01*
X125483000Y-48141932D01*
X125483000Y-45923614D01*
X125541387Y-45892405D01*
X125675962Y-45781962D01*
X125786405Y-45647387D01*
X125868472Y-45493851D01*
X125877527Y-45464000D01*
X128976667Y-45464000D01*
X129014000Y-45467677D01*
X129051333Y-45464000D01*
X129162986Y-45453003D01*
X129306247Y-45409546D01*
X129438276Y-45338974D01*
X129554001Y-45244001D01*
X129648974Y-45128276D01*
X129719546Y-44996247D01*
X129763003Y-44852986D01*
X129777677Y-44704000D01*
X129774000Y-44666667D01*
X129774000Y-41356424D01*
X129841387Y-41320405D01*
X129975962Y-41209962D01*
X130048000Y-41122184D01*
X130120038Y-41209962D01*
X130254613Y-41320405D01*
X130408149Y-41402472D01*
X130574745Y-41453008D01*
X130624065Y-41457866D01*
X134809201Y-45643003D01*
X134832999Y-45672001D01*
X134948724Y-45766974D01*
X135080753Y-45837546D01*
X135224014Y-45881003D01*
X135335667Y-45892000D01*
X135335676Y-45892000D01*
X135372999Y-45895676D01*
X135410322Y-45892000D01*
X141345405Y-45892000D01*
X141382294Y-45961014D01*
X141567866Y-46187134D01*
X141793986Y-46372706D01*
X141811374Y-46382000D01*
X141793986Y-46391294D01*
X141567866Y-46576866D01*
X141382294Y-46802986D01*
X141244401Y-47060966D01*
X141159487Y-47340889D01*
X141130815Y-47632000D01*
X141159487Y-47923111D01*
X141244401Y-48203034D01*
X141382294Y-48461014D01*
X141567866Y-48687134D01*
X141793986Y-48872706D01*
X142051966Y-49010599D01*
X142331889Y-49095513D01*
X142550050Y-49117000D01*
X142945950Y-49117000D01*
X143164111Y-49095513D01*
X143444034Y-49010599D01*
X143702014Y-48872706D01*
X143928134Y-48687134D01*
X144113706Y-48461014D01*
X144251599Y-48203034D01*
X144336513Y-47923111D01*
X144365185Y-47632000D01*
X144336513Y-47340889D01*
X144251599Y-47060966D01*
X144113706Y-46802986D01*
X143928134Y-46576866D01*
X143702014Y-46391294D01*
X143684626Y-46382000D01*
X143702014Y-46372706D01*
X143928134Y-46187134D01*
X144113706Y-45961014D01*
X144251599Y-45703034D01*
X144336513Y-45423111D01*
X144365185Y-45132000D01*
X144336513Y-44840889D01*
X144251599Y-44560966D01*
X144113706Y-44302986D01*
X143928134Y-44076866D01*
X143702014Y-43891294D01*
X143676278Y-43877538D01*
X143882429Y-43721049D01*
X144075496Y-43503193D01*
X144222352Y-43251858D01*
X144314476Y-42988890D01*
X144193155Y-42759000D01*
X142875000Y-42759000D01*
X142875000Y-42779000D01*
X142621000Y-42779000D01*
X142621000Y-42759000D01*
X141302845Y-42759000D01*
X141181524Y-42988890D01*
X141273648Y-43251858D01*
X141420504Y-43503193D01*
X141613571Y-43721049D01*
X141819722Y-43877538D01*
X141793986Y-43891294D01*
X141567866Y-44076866D01*
X141382294Y-44302986D01*
X141345405Y-44372000D01*
X135687802Y-44372000D01*
X132222936Y-40907135D01*
X132269008Y-40755255D01*
X132286072Y-40582001D01*
X132286072Y-39681999D01*
X132271299Y-39532000D01*
X141134928Y-39532000D01*
X141134928Y-40732000D01*
X141151992Y-40905254D01*
X141202528Y-41071850D01*
X141284595Y-41225386D01*
X141395038Y-41359962D01*
X141529614Y-41470405D01*
X141634961Y-41526714D01*
X141613571Y-41542951D01*
X141420504Y-41760807D01*
X141273648Y-42012142D01*
X141181524Y-42275110D01*
X141302845Y-42505000D01*
X142621000Y-42505000D01*
X142621000Y-42485000D01*
X142875000Y-42485000D01*
X142875000Y-42505000D01*
X144193155Y-42505000D01*
X144314476Y-42275110D01*
X144222352Y-42012142D01*
X144075496Y-41760807D01*
X143882429Y-41542951D01*
X143861039Y-41526714D01*
X143966386Y-41470405D01*
X144100962Y-41359962D01*
X144211405Y-41225386D01*
X144293472Y-41071850D01*
X144344008Y-40905254D01*
X144361072Y-40732000D01*
X144361072Y-39532000D01*
X144344008Y-39358746D01*
X144293472Y-39192150D01*
X144211405Y-39038614D01*
X144100962Y-38904038D01*
X143966386Y-38793595D01*
X143812850Y-38711528D01*
X143646254Y-38660992D01*
X143473000Y-38643928D01*
X142023000Y-38643928D01*
X141849746Y-38660992D01*
X141683150Y-38711528D01*
X141529614Y-38793595D01*
X141395038Y-38904038D01*
X141284595Y-39038614D01*
X141202528Y-39192150D01*
X141151992Y-39358746D01*
X141134928Y-39532000D01*
X132271299Y-39532000D01*
X132269008Y-39508745D01*
X132218472Y-39342149D01*
X132136405Y-39188613D01*
X132025962Y-39054038D01*
X131891387Y-38943595D01*
X131737851Y-38861528D01*
X131571255Y-38810992D01*
X131398001Y-38793928D01*
X130747999Y-38793928D01*
X130574745Y-38810992D01*
X130408149Y-38861528D01*
X130254613Y-38943595D01*
X130120038Y-39054038D01*
X130048000Y-39141816D01*
X129975962Y-39054038D01*
X129841387Y-38943595D01*
X129774000Y-38907576D01*
X129774000Y-35763614D01*
X129832387Y-35732405D01*
X129966962Y-35621962D01*
X130039000Y-35534184D01*
X130111038Y-35621962D01*
X130245613Y-35732405D01*
X130399149Y-35814472D01*
X130565745Y-35865008D01*
X130738999Y-35882072D01*
X131389001Y-35882072D01*
X131562255Y-35865008D01*
X131728851Y-35814472D01*
X131882387Y-35732405D01*
X132016962Y-35621962D01*
X132127405Y-35487387D01*
X132209472Y-35333851D01*
X132260008Y-35167255D01*
X132277072Y-34994001D01*
X132277072Y-34900890D01*
X141306524Y-34900890D01*
X141351175Y-35048099D01*
X141476359Y-35310920D01*
X141650412Y-35544269D01*
X141866645Y-35739178D01*
X142116748Y-35888157D01*
X142391109Y-35985481D01*
X142621000Y-35864814D01*
X142621000Y-34671000D01*
X142875000Y-34671000D01*
X142875000Y-35864814D01*
X143104891Y-35985481D01*
X143379252Y-35888157D01*
X143629355Y-35739178D01*
X143845588Y-35544269D01*
X144019641Y-35310920D01*
X144144825Y-35048099D01*
X144189476Y-34900890D01*
X144068155Y-34671000D01*
X142875000Y-34671000D01*
X142621000Y-34671000D01*
X141427845Y-34671000D01*
X141306524Y-34900890D01*
X132277072Y-34900890D01*
X132277072Y-34093999D01*
X132260008Y-33920745D01*
X132209472Y-33754149D01*
X132127405Y-33600613D01*
X132016962Y-33466038D01*
X131882387Y-33355595D01*
X131728851Y-33273528D01*
X131562255Y-33222992D01*
X131389001Y-33205928D01*
X130738999Y-33205928D01*
X130565745Y-33222992D01*
X130399149Y-33273528D01*
X130245613Y-33355595D01*
X130111038Y-33466038D01*
X130039000Y-33553816D01*
X129966962Y-33466038D01*
X129832387Y-33355595D01*
X129678851Y-33273528D01*
X129512255Y-33222992D01*
X129339001Y-33205928D01*
X128688999Y-33205928D01*
X128515745Y-33222992D01*
X128349149Y-33273528D01*
X128195613Y-33355595D01*
X128061038Y-33466038D01*
X127950595Y-33600613D01*
X127868528Y-33754149D01*
X127859473Y-33784000D01*
X125868527Y-33784000D01*
X125859472Y-33754149D01*
X125777405Y-33600613D01*
X125666962Y-33466038D01*
X125532387Y-33355595D01*
X125378851Y-33273528D01*
X125212255Y-33222992D01*
X125039001Y-33205928D01*
X124388999Y-33205928D01*
X124215745Y-33222992D01*
X124049149Y-33273528D01*
X123895613Y-33355595D01*
X123761038Y-33466038D01*
X123689000Y-33553816D01*
X123616962Y-33466038D01*
X123482387Y-33355595D01*
X123328851Y-33273528D01*
X123162255Y-33222992D01*
X122989001Y-33205928D01*
X122338999Y-33205928D01*
X122165745Y-33222992D01*
X121999149Y-33273528D01*
X121845613Y-33355595D01*
X121711038Y-33466038D01*
X121600595Y-33600613D01*
X121518528Y-33754149D01*
X121467992Y-33920745D01*
X121450928Y-34093999D01*
X121450928Y-34994001D01*
X121467992Y-35167255D01*
X121518528Y-35333851D01*
X121600595Y-35487387D01*
X121711038Y-35621962D01*
X121845613Y-35732405D01*
X121999149Y-35814472D01*
X122165745Y-35865008D01*
X122338999Y-35882072D01*
X122989001Y-35882072D01*
X123162255Y-35865008D01*
X123328851Y-35814472D01*
X123482387Y-35732405D01*
X123616962Y-35621962D01*
X123689000Y-35534184D01*
X123761038Y-35621962D01*
X123895613Y-35732405D01*
X124049149Y-35814472D01*
X124215745Y-35865008D01*
X124388999Y-35882072D01*
X125039001Y-35882072D01*
X125212255Y-35865008D01*
X125378851Y-35814472D01*
X125532387Y-35732405D01*
X125666962Y-35621962D01*
X125777405Y-35487387D01*
X125859472Y-35333851D01*
X125868527Y-35304000D01*
X127859473Y-35304000D01*
X127868528Y-35333851D01*
X127950595Y-35487387D01*
X128061038Y-35621962D01*
X128195613Y-35732405D01*
X128254001Y-35763614D01*
X128254000Y-38917197D01*
X128204613Y-38943595D01*
X128070038Y-39054038D01*
X127959595Y-39188613D01*
X127877528Y-39342149D01*
X127826992Y-39508745D01*
X127809928Y-39681999D01*
X127809928Y-40582001D01*
X127826992Y-40755255D01*
X127877528Y-40921851D01*
X127959595Y-41075387D01*
X128070038Y-41209962D01*
X128204613Y-41320405D01*
X128254001Y-41346803D01*
X128254000Y-43944000D01*
X125877527Y-43944000D01*
X125868472Y-43914149D01*
X125786405Y-43760613D01*
X125675962Y-43626038D01*
X125541387Y-43515595D01*
X125387851Y-43433528D01*
X125221255Y-43382992D01*
X125048001Y-43365928D01*
X124397999Y-43365928D01*
X124224745Y-43382992D01*
X124058149Y-43433528D01*
X123904613Y-43515595D01*
X123770038Y-43626038D01*
X123698000Y-43713816D01*
X123625962Y-43626038D01*
X123491387Y-43515595D01*
X123337851Y-43433528D01*
X123181082Y-43385973D01*
X123187112Y-40328599D01*
X123231937Y-40283774D01*
X123345205Y-40114256D01*
X123423226Y-39925898D01*
X123463000Y-39725939D01*
X123463000Y-39522061D01*
X123423226Y-39322102D01*
X123345205Y-39133744D01*
X123231937Y-38964226D01*
X123087774Y-38820063D01*
X122918256Y-38706795D01*
X122729898Y-38628774D01*
X122529939Y-38589000D01*
X122326061Y-38589000D01*
X122126102Y-38628774D01*
X121937744Y-38706795D01*
X121768226Y-38820063D01*
X121624063Y-38964226D01*
X121510795Y-39133744D01*
X121432774Y-39322102D01*
X121393000Y-39522061D01*
X121393000Y-39725939D01*
X121432774Y-39925898D01*
X121510795Y-40114256D01*
X121624063Y-40283774D01*
X121667114Y-40326825D01*
X121660463Y-43698630D01*
X121609595Y-43760613D01*
X121527528Y-43914149D01*
X121476992Y-44080745D01*
X121459928Y-44253999D01*
X121459928Y-45154001D01*
X121476992Y-45327255D01*
X121527528Y-45493851D01*
X121609595Y-45647387D01*
X121720038Y-45781962D01*
X121854613Y-45892405D01*
X122008149Y-45974472D01*
X122174745Y-46025008D01*
X122347999Y-46042072D01*
X122998001Y-46042072D01*
X123171255Y-46025008D01*
X123337851Y-45974472D01*
X123491387Y-45892405D01*
X123625962Y-45781962D01*
X123698000Y-45694184D01*
X123770038Y-45781962D01*
X123904613Y-45892405D01*
X123963000Y-45923614D01*
X123963001Y-47931557D01*
X123836745Y-47943992D01*
X123670149Y-47994528D01*
X123516613Y-48076595D01*
X123382038Y-48187038D01*
X123271595Y-48321613D01*
X123245197Y-48371000D01*
X120599614Y-48371000D01*
X120568405Y-48312613D01*
X120457962Y-48178038D01*
X120323387Y-48067595D01*
X120169851Y-47985528D01*
X120003255Y-47934992D01*
X119830001Y-47917928D01*
X118929999Y-47917928D01*
X118756745Y-47934992D01*
X118590149Y-47985528D01*
X118436613Y-48067595D01*
X118302038Y-48178038D01*
X118191595Y-48312613D01*
X118109528Y-48466149D01*
X118058992Y-48632745D01*
X118041928Y-48805999D01*
X116584000Y-48805999D01*
X116584000Y-44762801D01*
X117533802Y-43813000D01*
X118168289Y-43813000D01*
X118212226Y-43856937D01*
X118381744Y-43970205D01*
X118570102Y-44048226D01*
X118770061Y-44088000D01*
X118973939Y-44088000D01*
X119173898Y-44048226D01*
X119362256Y-43970205D01*
X119531774Y-43856937D01*
X119675937Y-43712774D01*
X119789205Y-43543256D01*
X119867226Y-43354898D01*
X119907000Y-43154939D01*
X119907000Y-42951061D01*
X119867226Y-42751102D01*
X119789205Y-42562744D01*
X119675937Y-42393226D01*
X119531774Y-42249063D01*
X119362256Y-42135795D01*
X119173898Y-42057774D01*
X119171550Y-42057307D01*
X119173898Y-42056840D01*
X119362256Y-41978819D01*
X119531774Y-41865551D01*
X119675937Y-41721388D01*
X119789205Y-41551870D01*
X119867226Y-41363512D01*
X119907000Y-41163553D01*
X119907000Y-40959675D01*
X119867226Y-40759716D01*
X119789205Y-40571358D01*
X119675937Y-40401840D01*
X119531774Y-40257677D01*
X119362256Y-40144409D01*
X119173898Y-40066388D01*
X118973939Y-40026614D01*
X118770061Y-40026614D01*
X118570102Y-40066388D01*
X118381744Y-40144409D01*
X118212226Y-40257677D01*
X118168289Y-40301614D01*
X117576416Y-40301614D01*
X114355804Y-37081003D01*
X114332001Y-37051999D01*
X114216276Y-36957026D01*
X114084247Y-36886454D01*
X113940986Y-36842997D01*
X113829333Y-36832000D01*
X113829322Y-36832000D01*
X113792000Y-36828324D01*
X113754678Y-36832000D01*
X112706909Y-36832000D01*
X112700918Y-36817537D01*
X112521987Y-36549748D01*
X112294252Y-36322013D01*
X112294233Y-36322000D01*
X112294252Y-36321987D01*
X112521987Y-36094252D01*
X112700918Y-35826463D01*
X112706909Y-35812000D01*
X114493199Y-35812000D01*
X116276201Y-37595003D01*
X116299999Y-37624001D01*
X116328997Y-37647799D01*
X116415723Y-37718974D01*
X116547753Y-37789546D01*
X116691014Y-37833003D01*
X116802667Y-37844000D01*
X116802677Y-37844000D01*
X116840000Y-37847676D01*
X116877323Y-37844000D01*
X117914289Y-37844000D01*
X117958226Y-37887937D01*
X118127744Y-38001205D01*
X118316102Y-38079226D01*
X118516061Y-38119000D01*
X118719939Y-38119000D01*
X118919898Y-38079226D01*
X119108256Y-38001205D01*
X119277774Y-37887937D01*
X119421937Y-37743774D01*
X119535205Y-37574256D01*
X119613226Y-37385898D01*
X119653000Y-37185939D01*
X119653000Y-36982061D01*
X119613226Y-36782102D01*
X119535205Y-36593744D01*
X119421937Y-36424226D01*
X119277774Y-36280063D01*
X119108256Y-36166795D01*
X118919898Y-36088774D01*
X118719939Y-36049000D01*
X118516061Y-36049000D01*
X118316102Y-36088774D01*
X118127744Y-36166795D01*
X117958226Y-36280063D01*
X117914289Y-36324000D01*
X117154802Y-36324000D01*
X115371804Y-34541003D01*
X115348001Y-34511999D01*
X115232276Y-34417026D01*
X115100247Y-34346454D01*
X114956986Y-34302997D01*
X114845333Y-34292000D01*
X114845322Y-34292000D01*
X114808000Y-34288324D01*
X114770678Y-34292000D01*
X112706909Y-34292000D01*
X112700918Y-34277537D01*
X112521987Y-34009748D01*
X112400173Y-33887934D01*
X112470386Y-33850405D01*
X112604962Y-33739962D01*
X112715405Y-33605386D01*
X112797472Y-33451850D01*
X112848008Y-33285254D01*
X112865072Y-33112000D01*
X112865072Y-31912000D01*
X112848008Y-31738746D01*
X112797472Y-31572150D01*
X112715405Y-31418614D01*
X112604962Y-31284038D01*
X112470386Y-31173595D01*
X112368663Y-31119223D01*
X112432134Y-31067134D01*
X112617706Y-30841014D01*
X112755599Y-30583034D01*
X112840513Y-30303111D01*
X112869185Y-30012000D01*
X112840513Y-29720889D01*
X112755599Y-29440966D01*
X112617706Y-29182986D01*
X112499540Y-29039000D01*
X141259928Y-29039000D01*
X141259928Y-29889000D01*
X141280355Y-30096395D01*
X141340850Y-30295820D01*
X141439088Y-30479611D01*
X141571295Y-30640705D01*
X141732389Y-30772912D01*
X141835245Y-30827889D01*
X141801368Y-30850525D01*
X141594525Y-31057368D01*
X141432010Y-31300589D01*
X141320068Y-31570842D01*
X141263000Y-31857740D01*
X141263000Y-32150260D01*
X141320068Y-32437158D01*
X141432010Y-32707411D01*
X141594525Y-32950632D01*
X141801368Y-33157475D01*
X141983534Y-33279195D01*
X141866645Y-33348822D01*
X141650412Y-33543731D01*
X141476359Y-33777080D01*
X141351175Y-34039901D01*
X141306524Y-34187110D01*
X141427845Y-34417000D01*
X142621000Y-34417000D01*
X142621000Y-34397000D01*
X142875000Y-34397000D01*
X142875000Y-34417000D01*
X144068155Y-34417000D01*
X144189476Y-34187110D01*
X144144825Y-34039901D01*
X144019641Y-33777080D01*
X143845588Y-33543731D01*
X143629355Y-33348822D01*
X143512466Y-33279195D01*
X143694632Y-33157475D01*
X143901475Y-32950632D01*
X144063990Y-32707411D01*
X144175932Y-32437158D01*
X144233000Y-32150260D01*
X144233000Y-31857740D01*
X144175932Y-31570842D01*
X144063990Y-31300589D01*
X143901475Y-31057368D01*
X143694632Y-30850525D01*
X143660755Y-30827889D01*
X143763611Y-30772912D01*
X143924705Y-30640705D01*
X144056912Y-30479611D01*
X144155150Y-30295820D01*
X144215645Y-30096395D01*
X144236072Y-29889000D01*
X144236072Y-29039000D01*
X144215645Y-28831605D01*
X144155150Y-28632180D01*
X144056912Y-28448389D01*
X143924705Y-28287295D01*
X143763611Y-28155088D01*
X143660755Y-28100111D01*
X143694632Y-28077475D01*
X143901475Y-27870632D01*
X144063990Y-27627411D01*
X144175932Y-27357158D01*
X144233000Y-27070260D01*
X144233000Y-26777740D01*
X144175932Y-26490842D01*
X144063990Y-26220589D01*
X143901475Y-25977368D01*
X143694632Y-25770525D01*
X143520240Y-25654000D01*
X143694632Y-25537475D01*
X143901475Y-25330632D01*
X144063990Y-25087411D01*
X144175932Y-24817158D01*
X144233000Y-24530260D01*
X144233000Y-24237740D01*
X144175932Y-23950842D01*
X144063990Y-23680589D01*
X143901475Y-23437368D01*
X143694632Y-23230525D01*
X143520240Y-23114000D01*
X143694632Y-22997475D01*
X143901475Y-22790632D01*
X144063990Y-22547411D01*
X144175932Y-22277158D01*
X144233000Y-21990260D01*
X144233000Y-21697740D01*
X144175932Y-21410842D01*
X144063990Y-21140589D01*
X143901475Y-20897368D01*
X143694632Y-20690525D01*
X143451411Y-20528010D01*
X143181158Y-20416068D01*
X142894260Y-20359000D01*
X142601740Y-20359000D01*
X142314842Y-20416068D01*
X142044589Y-20528010D01*
X141801368Y-20690525D01*
X141594525Y-20897368D01*
X141432010Y-21140589D01*
X141320068Y-21410842D01*
X141263000Y-21697740D01*
X141263000Y-21990260D01*
X141320068Y-22277158D01*
X141432010Y-22547411D01*
X141594525Y-22790632D01*
X141801368Y-22997475D01*
X141975760Y-23114000D01*
X141801368Y-23230525D01*
X141594525Y-23437368D01*
X141432010Y-23680589D01*
X141320068Y-23950842D01*
X141263000Y-24237740D01*
X141263000Y-24530260D01*
X141320068Y-24817158D01*
X141432010Y-25087411D01*
X141594525Y-25330632D01*
X141801368Y-25537475D01*
X141975760Y-25654000D01*
X141801368Y-25770525D01*
X141594525Y-25977368D01*
X141432010Y-26220589D01*
X141320068Y-26490842D01*
X141263000Y-26777740D01*
X141263000Y-27070260D01*
X141320068Y-27357158D01*
X141432010Y-27627411D01*
X141594525Y-27870632D01*
X141801368Y-28077475D01*
X141835245Y-28100111D01*
X141732389Y-28155088D01*
X141571295Y-28287295D01*
X141439088Y-28448389D01*
X141340850Y-28632180D01*
X141280355Y-28831605D01*
X141259928Y-29039000D01*
X112499540Y-29039000D01*
X112432134Y-28956866D01*
X112206014Y-28771294D01*
X112180278Y-28757538D01*
X112386429Y-28601049D01*
X112579496Y-28383193D01*
X112726352Y-28131858D01*
X112818476Y-27868890D01*
X112697155Y-27639000D01*
X111379000Y-27639000D01*
X111379000Y-27659000D01*
X111125000Y-27659000D01*
X111125000Y-27639000D01*
X109806845Y-27639000D01*
X109685524Y-27868890D01*
X109777648Y-28131858D01*
X109924504Y-28383193D01*
X110117571Y-28601049D01*
X110323722Y-28757538D01*
X110297986Y-28771294D01*
X110071866Y-28956866D01*
X109886294Y-29182986D01*
X109748401Y-29440966D01*
X109663487Y-29720889D01*
X109634815Y-30012000D01*
X109663487Y-30303111D01*
X109748401Y-30583034D01*
X109886294Y-30841014D01*
X110071866Y-31067134D01*
X110135337Y-31119223D01*
X110033614Y-31173595D01*
X109899038Y-31284038D01*
X109788595Y-31418614D01*
X109706528Y-31572150D01*
X109655992Y-31738746D01*
X109638928Y-31912000D01*
X109638928Y-33112000D01*
X109655992Y-33285254D01*
X109706528Y-33451850D01*
X109788595Y-33605386D01*
X109899038Y-33739962D01*
X110033614Y-33850405D01*
X110103827Y-33887934D01*
X109982013Y-34009748D01*
X109803082Y-34277537D01*
X109679832Y-34575088D01*
X109617000Y-34890967D01*
X108610000Y-34890967D01*
X108610000Y-27155110D01*
X109685524Y-27155110D01*
X109806845Y-27385000D01*
X111125000Y-27385000D01*
X111125000Y-26185835D01*
X111379000Y-26185835D01*
X111379000Y-27385000D01*
X112697155Y-27385000D01*
X112818476Y-27155110D01*
X112726352Y-26892142D01*
X112579496Y-26640807D01*
X112386429Y-26422951D01*
X112154570Y-26246947D01*
X111892830Y-26119558D01*
X111611267Y-26045680D01*
X111379000Y-26185835D01*
X111125000Y-26185835D01*
X110892733Y-26045680D01*
X110611170Y-26119558D01*
X110349430Y-26246947D01*
X110117571Y-26422951D01*
X109924504Y-26640807D01*
X109777648Y-26892142D01*
X109685524Y-27155110D01*
X108610000Y-27155110D01*
X108610000Y-21912344D01*
X109113000Y-21912344D01*
X109113000Y-22283656D01*
X109185439Y-22647834D01*
X109327534Y-22990882D01*
X109533825Y-23299618D01*
X109796382Y-23562175D01*
X110105118Y-23768466D01*
X110448166Y-23910561D01*
X110812344Y-23983000D01*
X111183656Y-23983000D01*
X111547834Y-23910561D01*
X111890882Y-23768466D01*
X112199618Y-23562175D01*
X112462175Y-23299618D01*
X112668466Y-22990882D01*
X112810561Y-22647834D01*
X112883000Y-22283656D01*
X112883000Y-21912344D01*
X112810561Y-21548166D01*
X112668466Y-21205118D01*
X112462175Y-20896382D01*
X112199618Y-20633825D01*
X111890882Y-20427534D01*
X111547834Y-20285439D01*
X111183656Y-20213000D01*
X110812344Y-20213000D01*
X110448166Y-20285439D01*
X110105118Y-20427534D01*
X109796382Y-20633825D01*
X109533825Y-20896382D01*
X109327534Y-21205118D01*
X109185439Y-21548166D01*
X109113000Y-21912344D01*
X108610000Y-21912344D01*
X108610000Y-19964000D01*
X145390001Y-19964000D01*
X145390000Y-60046000D01*
G37*
X145390000Y-60046000D02*
X108610000Y-60046000D01*
X108610000Y-51793110D01*
X109685524Y-51793110D01*
X109806845Y-52023000D01*
X111125000Y-52023000D01*
X111125000Y-50823835D01*
X111379000Y-50823835D01*
X111379000Y-52023000D01*
X112697155Y-52023000D01*
X112818476Y-51793110D01*
X112726352Y-51530142D01*
X112579496Y-51278807D01*
X112386429Y-51060951D01*
X112154570Y-50884947D01*
X111892830Y-50757558D01*
X111611267Y-50683680D01*
X111379000Y-50823835D01*
X111125000Y-50823835D01*
X110892733Y-50683680D01*
X110611170Y-50757558D01*
X110349430Y-50884947D01*
X110117571Y-51060951D01*
X109924504Y-51278807D01*
X109777648Y-51530142D01*
X109685524Y-51793110D01*
X108610000Y-51793110D01*
X108610000Y-34890967D01*
X109617000Y-34890967D01*
X109617000Y-35213033D01*
X109679832Y-35528912D01*
X109803082Y-35826463D01*
X109982013Y-36094252D01*
X110209748Y-36321987D01*
X110209767Y-36322000D01*
X110209748Y-36322013D01*
X109982013Y-36549748D01*
X109803082Y-36817537D01*
X109679832Y-37115088D01*
X109617000Y-37430967D01*
X109617000Y-37753033D01*
X109679832Y-38068912D01*
X109803082Y-38366463D01*
X109982013Y-38634252D01*
X110209748Y-38861987D01*
X110343564Y-38951400D01*
X110117571Y-39122951D01*
X109924504Y-39340807D01*
X109777648Y-39592142D01*
X109685524Y-39855110D01*
X109806845Y-40085000D01*
X111125000Y-40085000D01*
X111125000Y-40065000D01*
X111379000Y-40065000D01*
X111379000Y-40085000D01*
X112697155Y-40085000D01*
X112818476Y-39855110D01*
X112726352Y-39592142D01*
X112579496Y-39340807D01*
X112386429Y-39122951D01*
X112160436Y-38951400D01*
X112294252Y-38861987D01*
X112521987Y-38634252D01*
X112700918Y-38366463D01*
X112706909Y-38352000D01*
X113477199Y-38352000D01*
X116697815Y-41572617D01*
X116721613Y-41601615D01*
X116837338Y-41696588D01*
X116969367Y-41767160D01*
X117112628Y-41810617D01*
X117224281Y-41821614D01*
X117224290Y-41821614D01*
X117261613Y-41825290D01*
X117298936Y-41821614D01*
X118168289Y-41821614D01*
X118212226Y-41865551D01*
X118381744Y-41978819D01*
X118570102Y-42056840D01*
X118572450Y-42057307D01*
X118570102Y-42057774D01*
X118381744Y-42135795D01*
X118212226Y-42249063D01*
X118168289Y-42293000D01*
X117267475Y-42293000D01*
X117220000Y-42288324D01*
X117219999Y-42288324D01*
X117071013Y-42302998D01*
X116927753Y-42346454D01*
X116795723Y-42417026D01*
X116712083Y-42485668D01*
X116679999Y-42511999D01*
X116656201Y-42540997D01*
X115312998Y-43884201D01*
X115284000Y-43907999D01*
X115260202Y-43936997D01*
X115260201Y-43936998D01*
X115189026Y-44023724D01*
X115118454Y-44155754D01*
X115107157Y-44192998D01*
X115075838Y-44296247D01*
X115074998Y-44299015D01*
X115060324Y-44448000D01*
X115064001Y-44485332D01*
X115064000Y-53537199D01*
X115060000Y-53533199D01*
X115060000Y-43725322D01*
X115063676Y-43687999D01*
X115060000Y-43650676D01*
X115060000Y-43650667D01*
X115049003Y-43539014D01*
X115005546Y-43395753D01*
X114934974Y-43263724D01*
X114915769Y-43240323D01*
X114863799Y-43176996D01*
X114863795Y-43176992D01*
X114840001Y-43147999D01*
X114811008Y-43124205D01*
X113887803Y-42201002D01*
X113864001Y-42171999D01*
X113748276Y-42077026D01*
X113616247Y-42006454D01*
X113472986Y-41962997D01*
X113361333Y-41952000D01*
X113361322Y-41952000D01*
X113324000Y-41948324D01*
X113286678Y-41952000D01*
X112654595Y-41952000D01*
X112617706Y-41882986D01*
X112432134Y-41656866D01*
X112206014Y-41471294D01*
X112180278Y-41457538D01*
X112386429Y-41301049D01*
X112579496Y-41083193D01*
X112726352Y-40831858D01*
X112818476Y-40568890D01*
X112697155Y-40339000D01*
X111379000Y-40339000D01*
X111379000Y-40359000D01*
X111125000Y-40359000D01*
X111125000Y-40339000D01*
X109806845Y-40339000D01*
X109685524Y-40568890D01*
X109777648Y-40831858D01*
X109924504Y-41083193D01*
X110117571Y-41301049D01*
X110323722Y-41457538D01*
X110297986Y-41471294D01*
X110071866Y-41656866D01*
X109886294Y-41882986D01*
X109748401Y-42140966D01*
X109663487Y-42420889D01*
X109634815Y-42712000D01*
X109663487Y-43003111D01*
X109748401Y-43283034D01*
X109886294Y-43541014D01*
X110071866Y-43767134D01*
X110135337Y-43819223D01*
X110033614Y-43873595D01*
X109899038Y-43984038D01*
X109788595Y-44118614D01*
X109706528Y-44272150D01*
X109655992Y-44438746D01*
X109638928Y-44612000D01*
X109638928Y-45812000D01*
X109655992Y-45985254D01*
X109706528Y-46151850D01*
X109788595Y-46305386D01*
X109899038Y-46439962D01*
X110033614Y-46550405D01*
X110187150Y-46632472D01*
X110353746Y-46683008D01*
X110527000Y-46700072D01*
X111977000Y-46700072D01*
X112150254Y-46683008D01*
X112316850Y-46632472D01*
X112470386Y-46550405D01*
X112604962Y-46439962D01*
X112715405Y-46305386D01*
X112797472Y-46151850D01*
X112848008Y-45985254D01*
X112865072Y-45812000D01*
X112865072Y-44612000D01*
X112848008Y-44438746D01*
X112797472Y-44272150D01*
X112715405Y-44118614D01*
X112604962Y-43984038D01*
X112470386Y-43873595D01*
X112368663Y-43819223D01*
X112432134Y-43767134D01*
X112617706Y-43541014D01*
X112654595Y-43472000D01*
X113009199Y-43472000D01*
X113540001Y-44002803D01*
X113540000Y-53810678D01*
X113536324Y-53848000D01*
X113540000Y-53885322D01*
X113540000Y-53885332D01*
X113550997Y-53996985D01*
X113578060Y-54086201D01*
X113594454Y-54140246D01*
X113665026Y-54272276D01*
X113695186Y-54309026D01*
X113759999Y-54388001D01*
X113789002Y-54411803D01*
X115260205Y-55883008D01*
X115283999Y-55912001D01*
X115312992Y-55935795D01*
X115312996Y-55935799D01*
X115383685Y-55993811D01*
X115399724Y-56006974D01*
X115531753Y-56077546D01*
X115675014Y-56121003D01*
X115786667Y-56132000D01*
X115786676Y-56132000D01*
X115823999Y-56135676D01*
X115861322Y-56132000D01*
X120160805Y-56132000D01*
X120048866Y-56223866D01*
X119863294Y-56449986D01*
X119725401Y-56707966D01*
X119640487Y-56987889D01*
X119619000Y-57206050D01*
X119619000Y-57601949D01*
X119640487Y-57820110D01*
X119725401Y-58100033D01*
X119863294Y-58358013D01*
X119915807Y-58422000D01*
X117323802Y-58422000D01*
X113040804Y-54139003D01*
X113017001Y-54109999D01*
X112901276Y-54015026D01*
X112769247Y-53944454D01*
X112667146Y-53913483D01*
X112617706Y-53820986D01*
X112432134Y-53594866D01*
X112206014Y-53409294D01*
X112180278Y-53395538D01*
X112386429Y-53239049D01*
X112579496Y-53021193D01*
X112726352Y-52769858D01*
X112818476Y-52506890D01*
X112697155Y-52277000D01*
X111379000Y-52277000D01*
X111379000Y-52297000D01*
X111125000Y-52297000D01*
X111125000Y-52277000D01*
X109806845Y-52277000D01*
X109685524Y-52506890D01*
X109777648Y-52769858D01*
X109924504Y-53021193D01*
X110117571Y-53239049D01*
X110323722Y-53395538D01*
X110297986Y-53409294D01*
X110071866Y-53594866D01*
X109886294Y-53820986D01*
X109748401Y-54078966D01*
X109663487Y-54358889D01*
X109634815Y-54650000D01*
X109663487Y-54941111D01*
X109748401Y-55221034D01*
X109886294Y-55479014D01*
X110071866Y-55705134D01*
X110135337Y-55757223D01*
X110033614Y-55811595D01*
X109899038Y-55922038D01*
X109788595Y-56056614D01*
X109706528Y-56210150D01*
X109655992Y-56376746D01*
X109638928Y-56550000D01*
X109638928Y-57750000D01*
X109655992Y-57923254D01*
X109706528Y-58089850D01*
X109788595Y-58243386D01*
X109899038Y-58377962D01*
X110033614Y-58488405D01*
X110187150Y-58570472D01*
X110353746Y-58621008D01*
X110527000Y-58638072D01*
X111977000Y-58638072D01*
X112150254Y-58621008D01*
X112316850Y-58570472D01*
X112470386Y-58488405D01*
X112604962Y-58377962D01*
X112715405Y-58243386D01*
X112797472Y-58089850D01*
X112848008Y-57923254D01*
X112865072Y-57750000D01*
X112865072Y-56550000D01*
X112848008Y-56376746D01*
X112797472Y-56210150D01*
X112715405Y-56056614D01*
X112604962Y-55922038D01*
X112470386Y-55811595D01*
X112368663Y-55757223D01*
X112432134Y-55705134D01*
X112443493Y-55691294D01*
X116445201Y-59693003D01*
X116468999Y-59722001D01*
X116584724Y-59816974D01*
X116716753Y-59887546D01*
X116860014Y-59931003D01*
X116971667Y-59942000D01*
X116971677Y-59942000D01*
X117009000Y-59945676D01*
X117046323Y-59942000D01*
X123152678Y-59942000D01*
X123190000Y-59945676D01*
X123227322Y-59942000D01*
X123227333Y-59942000D01*
X123338986Y-59931003D01*
X123482247Y-59887546D01*
X123614276Y-59816974D01*
X123730001Y-59722001D01*
X123753803Y-59692998D01*
X124115003Y-59331799D01*
X124144001Y-59308001D01*
X124238974Y-59192276D01*
X124309546Y-59060247D01*
X124353003Y-58916986D01*
X124363869Y-58806664D01*
X124433013Y-58769706D01*
X124659134Y-58584134D01*
X124844706Y-58358014D01*
X124854000Y-58340626D01*
X124863294Y-58358013D01*
X125048866Y-58584134D01*
X125274986Y-58769706D01*
X125532966Y-58907599D01*
X125812889Y-58992513D01*
X126104000Y-59021185D01*
X126395110Y-58992513D01*
X126675033Y-58907599D01*
X126933013Y-58769706D01*
X127159134Y-58584134D01*
X127344706Y-58358014D01*
X127354000Y-58340626D01*
X127363294Y-58358013D01*
X127548866Y-58584134D01*
X127774986Y-58769706D01*
X128032966Y-58907599D01*
X128312889Y-58992513D01*
X128604000Y-59021185D01*
X128895110Y-58992513D01*
X129175033Y-58907599D01*
X129433013Y-58769706D01*
X129659134Y-58584134D01*
X129844706Y-58358014D01*
X129858462Y-58332278D01*
X130014951Y-58538429D01*
X130232807Y-58731496D01*
X130484142Y-58878352D01*
X130747110Y-58970476D01*
X130977000Y-58849155D01*
X130977000Y-57531000D01*
X130957000Y-57531000D01*
X130957000Y-57277000D01*
X130977000Y-57277000D01*
X130977000Y-55958845D01*
X131231000Y-55958845D01*
X131231000Y-57277000D01*
X131251000Y-57277000D01*
X131251000Y-57531000D01*
X131231000Y-57531000D01*
X131231000Y-58849155D01*
X131460890Y-58970476D01*
X131723858Y-58878352D01*
X131975193Y-58731496D01*
X132193049Y-58538429D01*
X132209286Y-58517039D01*
X132265595Y-58622386D01*
X132376038Y-58756962D01*
X132510614Y-58867405D01*
X132664150Y-58949472D01*
X132830746Y-59000008D01*
X133004000Y-59017072D01*
X134204000Y-59017072D01*
X134377254Y-59000008D01*
X134543850Y-58949472D01*
X134697386Y-58867405D01*
X134831962Y-58756962D01*
X134942405Y-58622386D01*
X135024472Y-58468850D01*
X135075008Y-58302254D01*
X135092072Y-58129000D01*
X135092072Y-57720890D01*
X141156524Y-57720890D01*
X141158446Y-57733261D01*
X141258146Y-58007009D01*
X141409336Y-58256046D01*
X141606205Y-58470802D01*
X141841188Y-58643025D01*
X142105255Y-58766096D01*
X142388258Y-58835285D01*
X142621000Y-58691232D01*
X142621000Y-57491000D01*
X142875000Y-57491000D01*
X142875000Y-58691232D01*
X143107742Y-58835285D01*
X143390745Y-58766096D01*
X143654812Y-58643025D01*
X143889795Y-58470802D01*
X144086664Y-58256046D01*
X144237854Y-58007009D01*
X144337554Y-57733261D01*
X144339476Y-57720890D01*
X144218155Y-57491000D01*
X142875000Y-57491000D01*
X142621000Y-57491000D01*
X141277845Y-57491000D01*
X141156524Y-57720890D01*
X135092072Y-57720890D01*
X135092072Y-56679000D01*
X135075008Y-56505746D01*
X135024472Y-56339150D01*
X134942405Y-56185614D01*
X134831962Y-56051038D01*
X134697386Y-55940595D01*
X134543850Y-55858528D01*
X134377254Y-55807992D01*
X134204000Y-55790928D01*
X133004000Y-55790928D01*
X132830746Y-55807992D01*
X132664150Y-55858528D01*
X132510614Y-55940595D01*
X132376038Y-56051038D01*
X132265595Y-56185614D01*
X132209286Y-56290961D01*
X132193049Y-56269571D01*
X131975193Y-56076504D01*
X131723858Y-55929648D01*
X131460890Y-55837524D01*
X131231000Y-55958845D01*
X130977000Y-55958845D01*
X130747110Y-55837524D01*
X130484142Y-55929648D01*
X130232807Y-56076504D01*
X130014951Y-56269571D01*
X129858462Y-56475722D01*
X129844706Y-56449986D01*
X129659134Y-56223866D01*
X129433014Y-56038294D01*
X129364000Y-56001405D01*
X129364000Y-54981333D01*
X129367677Y-54944000D01*
X129353003Y-54795014D01*
X129309546Y-54651753D01*
X129238974Y-54519724D01*
X129167799Y-54432997D01*
X129144001Y-54403999D01*
X129115002Y-54380200D01*
X128998802Y-54264000D01*
X141109928Y-54264000D01*
X141109928Y-55464000D01*
X141126992Y-55637254D01*
X141177528Y-55803850D01*
X141259595Y-55957386D01*
X141370038Y-56091962D01*
X141504614Y-56202405D01*
X141606593Y-56256914D01*
X141606205Y-56257198D01*
X141409336Y-56471954D01*
X141258146Y-56720991D01*
X141158446Y-56994739D01*
X141156524Y-57007110D01*
X141277845Y-57237000D01*
X142621000Y-57237000D01*
X142621000Y-57217000D01*
X142875000Y-57217000D01*
X142875000Y-57237000D01*
X144218155Y-57237000D01*
X144339476Y-57007110D01*
X144337554Y-56994739D01*
X144237854Y-56720991D01*
X144086664Y-56471954D01*
X143889795Y-56257198D01*
X143889407Y-56256914D01*
X143991386Y-56202405D01*
X144125962Y-56091962D01*
X144236405Y-55957386D01*
X144318472Y-55803850D01*
X144369008Y-55637254D01*
X144386072Y-55464000D01*
X144386072Y-54264000D01*
X144369008Y-54090746D01*
X144318472Y-53924150D01*
X144236405Y-53770614D01*
X144125962Y-53636038D01*
X143991386Y-53525595D01*
X143837850Y-53443528D01*
X143671254Y-53392992D01*
X143498000Y-53375928D01*
X141998000Y-53375928D01*
X141824746Y-53392992D01*
X141658150Y-53443528D01*
X141504614Y-53525595D01*
X141370038Y-53636038D01*
X141259595Y-53770614D01*
X141177528Y-53924150D01*
X141126992Y-54090746D01*
X141109928Y-54264000D01*
X128998802Y-54264000D01*
X128579803Y-53845002D01*
X128556001Y-53815999D01*
X128440276Y-53721026D01*
X128308247Y-53650454D01*
X128164986Y-53606997D01*
X128053333Y-53596000D01*
X128053322Y-53596000D01*
X128016000Y-53592324D01*
X127978678Y-53596000D01*
X116646802Y-53596000D01*
X116584000Y-53533199D01*
X116584000Y-51756000D01*
X118041928Y-51756000D01*
X118054188Y-51880482D01*
X118090498Y-52000180D01*
X118149463Y-52110494D01*
X118228815Y-52207185D01*
X118325506Y-52286537D01*
X118435820Y-52345502D01*
X118555518Y-52381812D01*
X118680000Y-52394072D01*
X119094250Y-52391000D01*
X119253000Y-52232250D01*
X119253000Y-51308000D01*
X119507000Y-51308000D01*
X119507000Y-52232250D01*
X119665750Y-52391000D01*
X120080000Y-52394072D01*
X120204482Y-52381812D01*
X120324180Y-52345502D01*
X120434494Y-52286537D01*
X120531185Y-52207185D01*
X120610537Y-52110494D01*
X120669502Y-52000180D01*
X120705812Y-51880482D01*
X120717185Y-51765000D01*
X123121928Y-51765000D01*
X123134188Y-51889482D01*
X123170498Y-52009180D01*
X123229463Y-52119494D01*
X123308815Y-52216185D01*
X123405506Y-52295537D01*
X123515820Y-52354502D01*
X123635518Y-52390812D01*
X123760000Y-52403072D01*
X124174250Y-52400000D01*
X124333000Y-52241250D01*
X124333000Y-51317000D01*
X124587000Y-51317000D01*
X124587000Y-52241250D01*
X124745750Y-52400000D01*
X125160000Y-52403072D01*
X125284482Y-52390812D01*
X125404180Y-52354502D01*
X125514494Y-52295537D01*
X125611185Y-52216185D01*
X125690537Y-52119494D01*
X125749502Y-52009180D01*
X125785812Y-51889482D01*
X125798072Y-51765000D01*
X125795000Y-51475750D01*
X125636250Y-51317000D01*
X124587000Y-51317000D01*
X124333000Y-51317000D01*
X123283750Y-51317000D01*
X123125000Y-51475750D01*
X123121928Y-51765000D01*
X120717185Y-51765000D01*
X120718072Y-51756000D01*
X120715000Y-51466750D01*
X120556250Y-51308000D01*
X119507000Y-51308000D01*
X119253000Y-51308000D01*
X118203750Y-51308000D01*
X118045000Y-51466750D01*
X118041928Y-51756000D01*
X116584000Y-51756000D01*
X116584000Y-48805999D01*
X118041928Y-48805999D01*
X118041928Y-49456001D01*
X118058992Y-49629255D01*
X118109528Y-49795851D01*
X118191595Y-49949387D01*
X118302038Y-50083962D01*
X118308594Y-50089342D01*
X118228815Y-50154815D01*
X118149463Y-50251506D01*
X118090498Y-50361820D01*
X118054188Y-50481518D01*
X118041928Y-50606000D01*
X118045000Y-50895250D01*
X118203750Y-51054000D01*
X119253000Y-51054000D01*
X119253000Y-51034000D01*
X119507000Y-51034000D01*
X119507000Y-51054000D01*
X120556250Y-51054000D01*
X120715000Y-50895250D01*
X120718072Y-50606000D01*
X120705812Y-50481518D01*
X120669502Y-50361820D01*
X120610537Y-50251506D01*
X120531185Y-50154815D01*
X120451406Y-50089342D01*
X120457962Y-50083962D01*
X120568405Y-49949387D01*
X120599614Y-49891000D01*
X123235576Y-49891000D01*
X123271595Y-49958387D01*
X123382038Y-50092962D01*
X123388594Y-50098342D01*
X123308815Y-50163815D01*
X123229463Y-50260506D01*
X123170498Y-50370820D01*
X123134188Y-50490518D01*
X123121928Y-50615000D01*
X123125000Y-50904250D01*
X123283750Y-51063000D01*
X124333000Y-51063000D01*
X124333000Y-51043000D01*
X124587000Y-51043000D01*
X124587000Y-51063000D01*
X125636250Y-51063000D01*
X125795000Y-50904250D01*
X125798072Y-50615000D01*
X125785812Y-50490518D01*
X125783835Y-50484000D01*
X127800928Y-50484000D01*
X127813188Y-50608482D01*
X127849498Y-50728180D01*
X127908463Y-50838494D01*
X127987815Y-50935185D01*
X128084506Y-51014537D01*
X128194820Y-51073502D01*
X128314518Y-51109812D01*
X128439000Y-51122072D01*
X128728250Y-51119000D01*
X128887000Y-50960250D01*
X128887000Y-49911000D01*
X127962750Y-49911000D01*
X127804000Y-50069750D01*
X127800928Y-50484000D01*
X125783835Y-50484000D01*
X125749502Y-50370820D01*
X125690537Y-50260506D01*
X125611185Y-50163815D01*
X125531406Y-50098342D01*
X125537962Y-50092962D01*
X125648405Y-49958387D01*
X125730472Y-49804851D01*
X125781008Y-49638255D01*
X125798072Y-49465001D01*
X125798072Y-49084000D01*
X127800928Y-49084000D01*
X127804000Y-49498250D01*
X127962750Y-49657000D01*
X128887000Y-49657000D01*
X128887000Y-48607750D01*
X129141000Y-48607750D01*
X129141000Y-49657000D01*
X129161000Y-49657000D01*
X129161000Y-49911000D01*
X129141000Y-49911000D01*
X129141000Y-50960250D01*
X129299750Y-51119000D01*
X129589000Y-51122072D01*
X129713482Y-51109812D01*
X129833180Y-51073502D01*
X129943494Y-51014537D01*
X130040185Y-50935185D01*
X130105658Y-50855406D01*
X130111038Y-50861962D01*
X130245613Y-50972405D01*
X130399149Y-51054472D01*
X130565745Y-51105008D01*
X130738999Y-51122072D01*
X131389001Y-51122072D01*
X131562255Y-51105008D01*
X131728851Y-51054472D01*
X131882387Y-50972405D01*
X132016962Y-50861962D01*
X132127405Y-50727387D01*
X132209472Y-50573851D01*
X132260008Y-50407255D01*
X132277072Y-50234001D01*
X132277072Y-49333999D01*
X132260008Y-49160745D01*
X132213936Y-49008865D01*
X133345802Y-47877000D01*
X133916289Y-47877000D01*
X133960226Y-47920937D01*
X134129744Y-48034205D01*
X134318102Y-48112226D01*
X134518061Y-48152000D01*
X134721939Y-48152000D01*
X134921898Y-48112226D01*
X135110256Y-48034205D01*
X135279774Y-47920937D01*
X135423937Y-47776774D01*
X135537205Y-47607256D01*
X135615226Y-47418898D01*
X135655000Y-47218939D01*
X135655000Y-47015061D01*
X135615226Y-46815102D01*
X135537205Y-46626744D01*
X135423937Y-46457226D01*
X135279774Y-46313063D01*
X135110256Y-46199795D01*
X134921898Y-46121774D01*
X134721939Y-46082000D01*
X134518061Y-46082000D01*
X134318102Y-46121774D01*
X134129744Y-46199795D01*
X133960226Y-46313063D01*
X133916289Y-46357000D01*
X133068322Y-46357000D01*
X133030999Y-46353324D01*
X132993676Y-46357000D01*
X132993667Y-46357000D01*
X132882014Y-46367997D01*
X132738753Y-46411454D01*
X132606723Y-46482026D01*
X132523404Y-46550405D01*
X132490999Y-46576999D01*
X132467201Y-46605997D01*
X130615064Y-48458134D01*
X130565745Y-48462992D01*
X130399149Y-48513528D01*
X130245613Y-48595595D01*
X130111038Y-48706038D01*
X130105658Y-48712594D01*
X130040185Y-48632815D01*
X129943494Y-48553463D01*
X129833180Y-48494498D01*
X129713482Y-48458188D01*
X129589000Y-48445928D01*
X129299750Y-48449000D01*
X129141000Y-48607750D01*
X128887000Y-48607750D01*
X128728250Y-48449000D01*
X128439000Y-48445928D01*
X128314518Y-48458188D01*
X128194820Y-48494498D01*
X128084506Y-48553463D01*
X127987815Y-48632815D01*
X127908463Y-48729506D01*
X127849498Y-48839820D01*
X127813188Y-48959518D01*
X127800928Y-49084000D01*
X125798072Y-49084000D01*
X125798072Y-48814999D01*
X125781008Y-48641745D01*
X125730472Y-48475149D01*
X125648405Y-48321613D01*
X125537962Y-48187038D01*
X125483000Y-48141932D01*
X125483000Y-45923614D01*
X125541387Y-45892405D01*
X125675962Y-45781962D01*
X125786405Y-45647387D01*
X125868472Y-45493851D01*
X125877527Y-45464000D01*
X128976667Y-45464000D01*
X129014000Y-45467677D01*
X129051333Y-45464000D01*
X129162986Y-45453003D01*
X129306247Y-45409546D01*
X129438276Y-45338974D01*
X129554001Y-45244001D01*
X129648974Y-45128276D01*
X129719546Y-44996247D01*
X129763003Y-44852986D01*
X129777677Y-44704000D01*
X129774000Y-44666667D01*
X129774000Y-41356424D01*
X129841387Y-41320405D01*
X129975962Y-41209962D01*
X130048000Y-41122184D01*
X130120038Y-41209962D01*
X130254613Y-41320405D01*
X130408149Y-41402472D01*
X130574745Y-41453008D01*
X130624065Y-41457866D01*
X134809201Y-45643003D01*
X134832999Y-45672001D01*
X134948724Y-45766974D01*
X135080753Y-45837546D01*
X135224014Y-45881003D01*
X135335667Y-45892000D01*
X135335676Y-45892000D01*
X135372999Y-45895676D01*
X135410322Y-45892000D01*
X141345405Y-45892000D01*
X141382294Y-45961014D01*
X141567866Y-46187134D01*
X141793986Y-46372706D01*
X141811374Y-46382000D01*
X141793986Y-46391294D01*
X141567866Y-46576866D01*
X141382294Y-46802986D01*
X141244401Y-47060966D01*
X141159487Y-47340889D01*
X141130815Y-47632000D01*
X141159487Y-47923111D01*
X141244401Y-48203034D01*
X141382294Y-48461014D01*
X141567866Y-48687134D01*
X141793986Y-48872706D01*
X142051966Y-49010599D01*
X142331889Y-49095513D01*
X142550050Y-49117000D01*
X142945950Y-49117000D01*
X143164111Y-49095513D01*
X143444034Y-49010599D01*
X143702014Y-48872706D01*
X143928134Y-48687134D01*
X144113706Y-48461014D01*
X144251599Y-48203034D01*
X144336513Y-47923111D01*
X144365185Y-47632000D01*
X144336513Y-47340889D01*
X144251599Y-47060966D01*
X144113706Y-46802986D01*
X143928134Y-46576866D01*
X143702014Y-46391294D01*
X143684626Y-46382000D01*
X143702014Y-46372706D01*
X143928134Y-46187134D01*
X144113706Y-45961014D01*
X144251599Y-45703034D01*
X144336513Y-45423111D01*
X144365185Y-45132000D01*
X144336513Y-44840889D01*
X144251599Y-44560966D01*
X144113706Y-44302986D01*
X143928134Y-44076866D01*
X143702014Y-43891294D01*
X143676278Y-43877538D01*
X143882429Y-43721049D01*
X144075496Y-43503193D01*
X144222352Y-43251858D01*
X144314476Y-42988890D01*
X144193155Y-42759000D01*
X142875000Y-42759000D01*
X142875000Y-42779000D01*
X142621000Y-42779000D01*
X142621000Y-42759000D01*
X141302845Y-42759000D01*
X141181524Y-42988890D01*
X141273648Y-43251858D01*
X141420504Y-43503193D01*
X141613571Y-43721049D01*
X141819722Y-43877538D01*
X141793986Y-43891294D01*
X141567866Y-44076866D01*
X141382294Y-44302986D01*
X141345405Y-44372000D01*
X135687802Y-44372000D01*
X132222936Y-40907135D01*
X132269008Y-40755255D01*
X132286072Y-40582001D01*
X132286072Y-39681999D01*
X132271299Y-39532000D01*
X141134928Y-39532000D01*
X141134928Y-40732000D01*
X141151992Y-40905254D01*
X141202528Y-41071850D01*
X141284595Y-41225386D01*
X141395038Y-41359962D01*
X141529614Y-41470405D01*
X141634961Y-41526714D01*
X141613571Y-41542951D01*
X141420504Y-41760807D01*
X141273648Y-42012142D01*
X141181524Y-42275110D01*
X141302845Y-42505000D01*
X142621000Y-42505000D01*
X142621000Y-42485000D01*
X142875000Y-42485000D01*
X142875000Y-42505000D01*
X144193155Y-42505000D01*
X144314476Y-42275110D01*
X144222352Y-42012142D01*
X144075496Y-41760807D01*
X143882429Y-41542951D01*
X143861039Y-41526714D01*
X143966386Y-41470405D01*
X144100962Y-41359962D01*
X144211405Y-41225386D01*
X144293472Y-41071850D01*
X144344008Y-40905254D01*
X144361072Y-40732000D01*
X144361072Y-39532000D01*
X144344008Y-39358746D01*
X144293472Y-39192150D01*
X144211405Y-39038614D01*
X144100962Y-38904038D01*
X143966386Y-38793595D01*
X143812850Y-38711528D01*
X143646254Y-38660992D01*
X143473000Y-38643928D01*
X142023000Y-38643928D01*
X141849746Y-38660992D01*
X141683150Y-38711528D01*
X141529614Y-38793595D01*
X141395038Y-38904038D01*
X141284595Y-39038614D01*
X141202528Y-39192150D01*
X141151992Y-39358746D01*
X141134928Y-39532000D01*
X132271299Y-39532000D01*
X132269008Y-39508745D01*
X132218472Y-39342149D01*
X132136405Y-39188613D01*
X132025962Y-39054038D01*
X131891387Y-38943595D01*
X131737851Y-38861528D01*
X131571255Y-38810992D01*
X131398001Y-38793928D01*
X130747999Y-38793928D01*
X130574745Y-38810992D01*
X130408149Y-38861528D01*
X130254613Y-38943595D01*
X130120038Y-39054038D01*
X130048000Y-39141816D01*
X129975962Y-39054038D01*
X129841387Y-38943595D01*
X129774000Y-38907576D01*
X129774000Y-35763614D01*
X129832387Y-35732405D01*
X129966962Y-35621962D01*
X130039000Y-35534184D01*
X130111038Y-35621962D01*
X130245613Y-35732405D01*
X130399149Y-35814472D01*
X130565745Y-35865008D01*
X130738999Y-35882072D01*
X131389001Y-35882072D01*
X131562255Y-35865008D01*
X131728851Y-35814472D01*
X131882387Y-35732405D01*
X132016962Y-35621962D01*
X132127405Y-35487387D01*
X132209472Y-35333851D01*
X132260008Y-35167255D01*
X132277072Y-34994001D01*
X132277072Y-34900890D01*
X141306524Y-34900890D01*
X141351175Y-35048099D01*
X141476359Y-35310920D01*
X141650412Y-35544269D01*
X141866645Y-35739178D01*
X142116748Y-35888157D01*
X142391109Y-35985481D01*
X142621000Y-35864814D01*
X142621000Y-34671000D01*
X142875000Y-34671000D01*
X142875000Y-35864814D01*
X143104891Y-35985481D01*
X143379252Y-35888157D01*
X143629355Y-35739178D01*
X143845588Y-35544269D01*
X144019641Y-35310920D01*
X144144825Y-35048099D01*
X144189476Y-34900890D01*
X144068155Y-34671000D01*
X142875000Y-34671000D01*
X142621000Y-34671000D01*
X141427845Y-34671000D01*
X141306524Y-34900890D01*
X132277072Y-34900890D01*
X132277072Y-34093999D01*
X132260008Y-33920745D01*
X132209472Y-33754149D01*
X132127405Y-33600613D01*
X132016962Y-33466038D01*
X131882387Y-33355595D01*
X131728851Y-33273528D01*
X131562255Y-33222992D01*
X131389001Y-33205928D01*
X130738999Y-33205928D01*
X130565745Y-33222992D01*
X130399149Y-33273528D01*
X130245613Y-33355595D01*
X130111038Y-33466038D01*
X130039000Y-33553816D01*
X129966962Y-33466038D01*
X129832387Y-33355595D01*
X129678851Y-33273528D01*
X129512255Y-33222992D01*
X129339001Y-33205928D01*
X128688999Y-33205928D01*
X128515745Y-33222992D01*
X128349149Y-33273528D01*
X128195613Y-33355595D01*
X128061038Y-33466038D01*
X127950595Y-33600613D01*
X127868528Y-33754149D01*
X127859473Y-33784000D01*
X125868527Y-33784000D01*
X125859472Y-33754149D01*
X125777405Y-33600613D01*
X125666962Y-33466038D01*
X125532387Y-33355595D01*
X125378851Y-33273528D01*
X125212255Y-33222992D01*
X125039001Y-33205928D01*
X124388999Y-33205928D01*
X124215745Y-33222992D01*
X124049149Y-33273528D01*
X123895613Y-33355595D01*
X123761038Y-33466038D01*
X123689000Y-33553816D01*
X123616962Y-33466038D01*
X123482387Y-33355595D01*
X123328851Y-33273528D01*
X123162255Y-33222992D01*
X122989001Y-33205928D01*
X122338999Y-33205928D01*
X122165745Y-33222992D01*
X121999149Y-33273528D01*
X121845613Y-33355595D01*
X121711038Y-33466038D01*
X121600595Y-33600613D01*
X121518528Y-33754149D01*
X121467992Y-33920745D01*
X121450928Y-34093999D01*
X121450928Y-34994001D01*
X121467992Y-35167255D01*
X121518528Y-35333851D01*
X121600595Y-35487387D01*
X121711038Y-35621962D01*
X121845613Y-35732405D01*
X121999149Y-35814472D01*
X122165745Y-35865008D01*
X122338999Y-35882072D01*
X122989001Y-35882072D01*
X123162255Y-35865008D01*
X123328851Y-35814472D01*
X123482387Y-35732405D01*
X123616962Y-35621962D01*
X123689000Y-35534184D01*
X123761038Y-35621962D01*
X123895613Y-35732405D01*
X124049149Y-35814472D01*
X124215745Y-35865008D01*
X124388999Y-35882072D01*
X125039001Y-35882072D01*
X125212255Y-35865008D01*
X125378851Y-35814472D01*
X125532387Y-35732405D01*
X125666962Y-35621962D01*
X125777405Y-35487387D01*
X125859472Y-35333851D01*
X125868527Y-35304000D01*
X127859473Y-35304000D01*
X127868528Y-35333851D01*
X127950595Y-35487387D01*
X128061038Y-35621962D01*
X128195613Y-35732405D01*
X128254001Y-35763614D01*
X128254000Y-38917197D01*
X128204613Y-38943595D01*
X128070038Y-39054038D01*
X127959595Y-39188613D01*
X127877528Y-39342149D01*
X127826992Y-39508745D01*
X127809928Y-39681999D01*
X127809928Y-40582001D01*
X127826992Y-40755255D01*
X127877528Y-40921851D01*
X127959595Y-41075387D01*
X128070038Y-41209962D01*
X128204613Y-41320405D01*
X128254001Y-41346803D01*
X128254000Y-43944000D01*
X125877527Y-43944000D01*
X125868472Y-43914149D01*
X125786405Y-43760613D01*
X125675962Y-43626038D01*
X125541387Y-43515595D01*
X125387851Y-43433528D01*
X125221255Y-43382992D01*
X125048001Y-43365928D01*
X124397999Y-43365928D01*
X124224745Y-43382992D01*
X124058149Y-43433528D01*
X123904613Y-43515595D01*
X123770038Y-43626038D01*
X123698000Y-43713816D01*
X123625962Y-43626038D01*
X123491387Y-43515595D01*
X123337851Y-43433528D01*
X123181082Y-43385973D01*
X123187112Y-40328599D01*
X123231937Y-40283774D01*
X123345205Y-40114256D01*
X123423226Y-39925898D01*
X123463000Y-39725939D01*
X123463000Y-39522061D01*
X123423226Y-39322102D01*
X123345205Y-39133744D01*
X123231937Y-38964226D01*
X123087774Y-38820063D01*
X122918256Y-38706795D01*
X122729898Y-38628774D01*
X122529939Y-38589000D01*
X122326061Y-38589000D01*
X122126102Y-38628774D01*
X121937744Y-38706795D01*
X121768226Y-38820063D01*
X121624063Y-38964226D01*
X121510795Y-39133744D01*
X121432774Y-39322102D01*
X121393000Y-39522061D01*
X121393000Y-39725939D01*
X121432774Y-39925898D01*
X121510795Y-40114256D01*
X121624063Y-40283774D01*
X121667114Y-40326825D01*
X121660463Y-43698630D01*
X121609595Y-43760613D01*
X121527528Y-43914149D01*
X121476992Y-44080745D01*
X121459928Y-44253999D01*
X121459928Y-45154001D01*
X121476992Y-45327255D01*
X121527528Y-45493851D01*
X121609595Y-45647387D01*
X121720038Y-45781962D01*
X121854613Y-45892405D01*
X122008149Y-45974472D01*
X122174745Y-46025008D01*
X122347999Y-46042072D01*
X122998001Y-46042072D01*
X123171255Y-46025008D01*
X123337851Y-45974472D01*
X123491387Y-45892405D01*
X123625962Y-45781962D01*
X123698000Y-45694184D01*
X123770038Y-45781962D01*
X123904613Y-45892405D01*
X123963000Y-45923614D01*
X123963001Y-47931557D01*
X123836745Y-47943992D01*
X123670149Y-47994528D01*
X123516613Y-48076595D01*
X123382038Y-48187038D01*
X123271595Y-48321613D01*
X123245197Y-48371000D01*
X120599614Y-48371000D01*
X120568405Y-48312613D01*
X120457962Y-48178038D01*
X120323387Y-48067595D01*
X120169851Y-47985528D01*
X120003255Y-47934992D01*
X119830001Y-47917928D01*
X118929999Y-47917928D01*
X118756745Y-47934992D01*
X118590149Y-47985528D01*
X118436613Y-48067595D01*
X118302038Y-48178038D01*
X118191595Y-48312613D01*
X118109528Y-48466149D01*
X118058992Y-48632745D01*
X118041928Y-48805999D01*
X116584000Y-48805999D01*
X116584000Y-44762801D01*
X117533802Y-43813000D01*
X118168289Y-43813000D01*
X118212226Y-43856937D01*
X118381744Y-43970205D01*
X118570102Y-44048226D01*
X118770061Y-44088000D01*
X118973939Y-44088000D01*
X119173898Y-44048226D01*
X119362256Y-43970205D01*
X119531774Y-43856937D01*
X119675937Y-43712774D01*
X119789205Y-43543256D01*
X119867226Y-43354898D01*
X119907000Y-43154939D01*
X119907000Y-42951061D01*
X119867226Y-42751102D01*
X119789205Y-42562744D01*
X119675937Y-42393226D01*
X119531774Y-42249063D01*
X119362256Y-42135795D01*
X119173898Y-42057774D01*
X119171550Y-42057307D01*
X119173898Y-42056840D01*
X119362256Y-41978819D01*
X119531774Y-41865551D01*
X119675937Y-41721388D01*
X119789205Y-41551870D01*
X119867226Y-41363512D01*
X119907000Y-41163553D01*
X119907000Y-40959675D01*
X119867226Y-40759716D01*
X119789205Y-40571358D01*
X119675937Y-40401840D01*
X119531774Y-40257677D01*
X119362256Y-40144409D01*
X119173898Y-40066388D01*
X118973939Y-40026614D01*
X118770061Y-40026614D01*
X118570102Y-40066388D01*
X118381744Y-40144409D01*
X118212226Y-40257677D01*
X118168289Y-40301614D01*
X117576416Y-40301614D01*
X114355804Y-37081003D01*
X114332001Y-37051999D01*
X114216276Y-36957026D01*
X114084247Y-36886454D01*
X113940986Y-36842997D01*
X113829333Y-36832000D01*
X113829322Y-36832000D01*
X113792000Y-36828324D01*
X113754678Y-36832000D01*
X112706909Y-36832000D01*
X112700918Y-36817537D01*
X112521987Y-36549748D01*
X112294252Y-36322013D01*
X112294233Y-36322000D01*
X112294252Y-36321987D01*
X112521987Y-36094252D01*
X112700918Y-35826463D01*
X112706909Y-35812000D01*
X114493199Y-35812000D01*
X116276201Y-37595003D01*
X116299999Y-37624001D01*
X116328997Y-37647799D01*
X116415723Y-37718974D01*
X116547753Y-37789546D01*
X116691014Y-37833003D01*
X116802667Y-37844000D01*
X116802677Y-37844000D01*
X116840000Y-37847676D01*
X116877323Y-37844000D01*
X117914289Y-37844000D01*
X117958226Y-37887937D01*
X118127744Y-38001205D01*
X118316102Y-38079226D01*
X118516061Y-38119000D01*
X118719939Y-38119000D01*
X118919898Y-38079226D01*
X119108256Y-38001205D01*
X119277774Y-37887937D01*
X119421937Y-37743774D01*
X119535205Y-37574256D01*
X119613226Y-37385898D01*
X119653000Y-37185939D01*
X119653000Y-36982061D01*
X119613226Y-36782102D01*
X119535205Y-36593744D01*
X119421937Y-36424226D01*
X119277774Y-36280063D01*
X119108256Y-36166795D01*
X118919898Y-36088774D01*
X118719939Y-36049000D01*
X118516061Y-36049000D01*
X118316102Y-36088774D01*
X118127744Y-36166795D01*
X117958226Y-36280063D01*
X117914289Y-36324000D01*
X117154802Y-36324000D01*
X115371804Y-34541003D01*
X115348001Y-34511999D01*
X115232276Y-34417026D01*
X115100247Y-34346454D01*
X114956986Y-34302997D01*
X114845333Y-34292000D01*
X114845322Y-34292000D01*
X114808000Y-34288324D01*
X114770678Y-34292000D01*
X112706909Y-34292000D01*
X112700918Y-34277537D01*
X112521987Y-34009748D01*
X112400173Y-33887934D01*
X112470386Y-33850405D01*
X112604962Y-33739962D01*
X112715405Y-33605386D01*
X112797472Y-33451850D01*
X112848008Y-33285254D01*
X112865072Y-33112000D01*
X112865072Y-31912000D01*
X112848008Y-31738746D01*
X112797472Y-31572150D01*
X112715405Y-31418614D01*
X112604962Y-31284038D01*
X112470386Y-31173595D01*
X112368663Y-31119223D01*
X112432134Y-31067134D01*
X112617706Y-30841014D01*
X112755599Y-30583034D01*
X112840513Y-30303111D01*
X112869185Y-30012000D01*
X112840513Y-29720889D01*
X112755599Y-29440966D01*
X112617706Y-29182986D01*
X112499540Y-29039000D01*
X141259928Y-29039000D01*
X141259928Y-29889000D01*
X141280355Y-30096395D01*
X141340850Y-30295820D01*
X141439088Y-30479611D01*
X141571295Y-30640705D01*
X141732389Y-30772912D01*
X141835245Y-30827889D01*
X141801368Y-30850525D01*
X141594525Y-31057368D01*
X141432010Y-31300589D01*
X141320068Y-31570842D01*
X141263000Y-31857740D01*
X141263000Y-32150260D01*
X141320068Y-32437158D01*
X141432010Y-32707411D01*
X141594525Y-32950632D01*
X141801368Y-33157475D01*
X141983534Y-33279195D01*
X141866645Y-33348822D01*
X141650412Y-33543731D01*
X141476359Y-33777080D01*
X141351175Y-34039901D01*
X141306524Y-34187110D01*
X141427845Y-34417000D01*
X142621000Y-34417000D01*
X142621000Y-34397000D01*
X142875000Y-34397000D01*
X142875000Y-34417000D01*
X144068155Y-34417000D01*
X144189476Y-34187110D01*
X144144825Y-34039901D01*
X144019641Y-33777080D01*
X143845588Y-33543731D01*
X143629355Y-33348822D01*
X143512466Y-33279195D01*
X143694632Y-33157475D01*
X143901475Y-32950632D01*
X144063990Y-32707411D01*
X144175932Y-32437158D01*
X144233000Y-32150260D01*
X144233000Y-31857740D01*
X144175932Y-31570842D01*
X144063990Y-31300589D01*
X143901475Y-31057368D01*
X143694632Y-30850525D01*
X143660755Y-30827889D01*
X143763611Y-30772912D01*
X143924705Y-30640705D01*
X144056912Y-30479611D01*
X144155150Y-30295820D01*
X144215645Y-30096395D01*
X144236072Y-29889000D01*
X144236072Y-29039000D01*
X144215645Y-28831605D01*
X144155150Y-28632180D01*
X144056912Y-28448389D01*
X143924705Y-28287295D01*
X143763611Y-28155088D01*
X143660755Y-28100111D01*
X143694632Y-28077475D01*
X143901475Y-27870632D01*
X144063990Y-27627411D01*
X144175932Y-27357158D01*
X144233000Y-27070260D01*
X144233000Y-26777740D01*
X144175932Y-26490842D01*
X144063990Y-26220589D01*
X143901475Y-25977368D01*
X143694632Y-25770525D01*
X143520240Y-25654000D01*
X143694632Y-25537475D01*
X143901475Y-25330632D01*
X144063990Y-25087411D01*
X144175932Y-24817158D01*
X144233000Y-24530260D01*
X144233000Y-24237740D01*
X144175932Y-23950842D01*
X144063990Y-23680589D01*
X143901475Y-23437368D01*
X143694632Y-23230525D01*
X143520240Y-23114000D01*
X143694632Y-22997475D01*
X143901475Y-22790632D01*
X144063990Y-22547411D01*
X144175932Y-22277158D01*
X144233000Y-21990260D01*
X144233000Y-21697740D01*
X144175932Y-21410842D01*
X144063990Y-21140589D01*
X143901475Y-20897368D01*
X143694632Y-20690525D01*
X143451411Y-20528010D01*
X143181158Y-20416068D01*
X142894260Y-20359000D01*
X142601740Y-20359000D01*
X142314842Y-20416068D01*
X142044589Y-20528010D01*
X141801368Y-20690525D01*
X141594525Y-20897368D01*
X141432010Y-21140589D01*
X141320068Y-21410842D01*
X141263000Y-21697740D01*
X141263000Y-21990260D01*
X141320068Y-22277158D01*
X141432010Y-22547411D01*
X141594525Y-22790632D01*
X141801368Y-22997475D01*
X141975760Y-23114000D01*
X141801368Y-23230525D01*
X141594525Y-23437368D01*
X141432010Y-23680589D01*
X141320068Y-23950842D01*
X141263000Y-24237740D01*
X141263000Y-24530260D01*
X141320068Y-24817158D01*
X141432010Y-25087411D01*
X141594525Y-25330632D01*
X141801368Y-25537475D01*
X141975760Y-25654000D01*
X141801368Y-25770525D01*
X141594525Y-25977368D01*
X141432010Y-26220589D01*
X141320068Y-26490842D01*
X141263000Y-26777740D01*
X141263000Y-27070260D01*
X141320068Y-27357158D01*
X141432010Y-27627411D01*
X141594525Y-27870632D01*
X141801368Y-28077475D01*
X141835245Y-28100111D01*
X141732389Y-28155088D01*
X141571295Y-28287295D01*
X141439088Y-28448389D01*
X141340850Y-28632180D01*
X141280355Y-28831605D01*
X141259928Y-29039000D01*
X112499540Y-29039000D01*
X112432134Y-28956866D01*
X112206014Y-28771294D01*
X112180278Y-28757538D01*
X112386429Y-28601049D01*
X112579496Y-28383193D01*
X112726352Y-28131858D01*
X112818476Y-27868890D01*
X112697155Y-27639000D01*
X111379000Y-27639000D01*
X111379000Y-27659000D01*
X111125000Y-27659000D01*
X111125000Y-27639000D01*
X109806845Y-27639000D01*
X109685524Y-27868890D01*
X109777648Y-28131858D01*
X109924504Y-28383193D01*
X110117571Y-28601049D01*
X110323722Y-28757538D01*
X110297986Y-28771294D01*
X110071866Y-28956866D01*
X109886294Y-29182986D01*
X109748401Y-29440966D01*
X109663487Y-29720889D01*
X109634815Y-30012000D01*
X109663487Y-30303111D01*
X109748401Y-30583034D01*
X109886294Y-30841014D01*
X110071866Y-31067134D01*
X110135337Y-31119223D01*
X110033614Y-31173595D01*
X109899038Y-31284038D01*
X109788595Y-31418614D01*
X109706528Y-31572150D01*
X109655992Y-31738746D01*
X109638928Y-31912000D01*
X109638928Y-33112000D01*
X109655992Y-33285254D01*
X109706528Y-33451850D01*
X109788595Y-33605386D01*
X109899038Y-33739962D01*
X110033614Y-33850405D01*
X110103827Y-33887934D01*
X109982013Y-34009748D01*
X109803082Y-34277537D01*
X109679832Y-34575088D01*
X109617000Y-34890967D01*
X108610000Y-34890967D01*
X108610000Y-27155110D01*
X109685524Y-27155110D01*
X109806845Y-27385000D01*
X111125000Y-27385000D01*
X111125000Y-26185835D01*
X111379000Y-26185835D01*
X111379000Y-27385000D01*
X112697155Y-27385000D01*
X112818476Y-27155110D01*
X112726352Y-26892142D01*
X112579496Y-26640807D01*
X112386429Y-26422951D01*
X112154570Y-26246947D01*
X111892830Y-26119558D01*
X111611267Y-26045680D01*
X111379000Y-26185835D01*
X111125000Y-26185835D01*
X110892733Y-26045680D01*
X110611170Y-26119558D01*
X110349430Y-26246947D01*
X110117571Y-26422951D01*
X109924504Y-26640807D01*
X109777648Y-26892142D01*
X109685524Y-27155110D01*
X108610000Y-27155110D01*
X108610000Y-21912344D01*
X109113000Y-21912344D01*
X109113000Y-22283656D01*
X109185439Y-22647834D01*
X109327534Y-22990882D01*
X109533825Y-23299618D01*
X109796382Y-23562175D01*
X110105118Y-23768466D01*
X110448166Y-23910561D01*
X110812344Y-23983000D01*
X111183656Y-23983000D01*
X111547834Y-23910561D01*
X111890882Y-23768466D01*
X112199618Y-23562175D01*
X112462175Y-23299618D01*
X112668466Y-22990882D01*
X112810561Y-22647834D01*
X112883000Y-22283656D01*
X112883000Y-21912344D01*
X112810561Y-21548166D01*
X112668466Y-21205118D01*
X112462175Y-20896382D01*
X112199618Y-20633825D01*
X111890882Y-20427534D01*
X111547834Y-20285439D01*
X111183656Y-20213000D01*
X110812344Y-20213000D01*
X110448166Y-20285439D01*
X110105118Y-20427534D01*
X109796382Y-20633825D01*
X109533825Y-20896382D01*
X109327534Y-21205118D01*
X109185439Y-21548166D01*
X109113000Y-21912344D01*
X108610000Y-21912344D01*
X108610000Y-19964000D01*
X145390001Y-19964000D01*
X145390000Y-60046000D01*
M02*
